STARTFONT 2.1
COMMENT
COMMENT Converted from OpenType font "Q:\font stuff\winfont\FreeSans.ttf" by "otf2bdf 3.0".
COMMENT
FONT -FreeType-FreeSans-Medium-R-Normal--40-400-72-72-P-222-ISO10646-1
SIZE 40 72 72
FONTBOUNDINGBOX 123 56 -46 -13
STARTPROPERTIES 19
FOUNDRY "FreeType"
FAMILY_NAME "FreeSans"
WEIGHT_NAME "Medium"
SLANT "R"
SETWIDTH_NAME "Normal"
ADD_STYLE_NAME ""
PIXEL_SIZE 40
POINT_SIZE 400
RESOLUTION_X 72
RESOLUTION_Y 72
SPACING "P"
AVERAGE_WIDTH 222
CHARSET_REGISTRY "ISO10646"
CHARSET_ENCODING "1"
FONT_ASCENT 36
FONT_DESCENT 8
COPYRIGHT "Copyright 2002, 2003, 2005, 2008, 2009, 2010, 2012 GNU Freefont contributors."
_OTF_FONTFILE "Q:\font stuff\winfont\FreeSans.ttf"
_OTF_PSNAME "FreeSans"
DEFAULT_CHAR 9633
ENDPROPERTIES
CHARS 4472
STARTCHAR 0020
ENCODING 32
SWIDTH 250 0
DWIDTH 10 0
BBX 0 0 0 0
BITMAP
ENDCHAR
STARTCHAR 0021
ENCODING 33
SWIDTH 325 0
DWIDTH 13 0
BBX 4 29 5 0
BITMAP
F0
F0
F0
F0
F0
F0
F0
F0
F0
F0
F0
F0
F0
F0
F0
F0
F0
F0
60
60
60
60
00
00
00
F0
F0
F0
F0
ENDCHAR
STARTCHAR 0022
ENCODING 34
SWIDTH 325 0
DWIDTH 13 0
BBX 10 10 2 18
BITMAP
F3C0
F3C0
F3C0
F3C0
F3C0
F3C0
71C0
6180
6180
2080
ENDCHAR
STARTCHAR 0023
ENCODING 35
SWIDTH 550 0
DWIDTH 22 0
BBX 21 27 1 0
BITMAP
01C1C0
01C1C0
01C1C0
01C1C0
0381C0
038380
038380
7FFFF8
7FFFF8
7FFFF8
070700
070700
070700
070700
070700
0E0E00
FFFFE0
FFFFE0
FFFFE0
0E0E00
1C1C00
1C1C00
1C1C00
1C1C00
1C1C00
383800
383800
ENDCHAR
STARTCHAR 0024
ENCODING 36
SWIDTH 550 0
DWIDTH 22 0
BBX 20 34 1 -3
BITMAP
006000
006000
01F800
0FFE00
1FFF00
3E6780
3C6380
7C63C0
7861C0
7861C0
786000
786000
7C6000
3C6000
3F6000
1FF000
07FE00
01FF80
006FC0
0063E0
0061F0
0060F0
E060F0
F060F0
F060F0
F861F0
7C61E0
7E67E0
3FFFC0
0FFF00
03FC00
006000
006000
006000
ENDCHAR
STARTCHAR 0025
ENCODING 37
SWIDTH 900 0
DWIDTH 36 0
BBX 34 28 1 -1
BITMAP
000000C000
0FC001C000
1FE0038000
3FF8030000
7878070000
F03C060000
E01C0E0000
E01C1C0000
E01C1C0000
F03C380000
7878300000
3FF0700000
1FE0600000
0FC0E00000
0001C00000
000180FC00
000381FE00
000303FF80
0007078780
000E0F03C0
000E0E01C0
001C0E01C0
00180E01C0
00380F03C0
0030078780
007003FF80
00E001FE00
00C000FC00
ENDCHAR
STARTCHAR 0026
ENCODING 38
SWIDTH 675 0
DWIDTH 27 0
BBX 24 28 2 0
BITMAP
007800
01FE00
03FF00
078700
0F0380
0F0380
0F0380
0F0380
078780
078F00
03DE00
01FC00
00F800
03F000
0FB83C
3F3C3C
7C1E3C
780F78
F00778
F007F0
F003F0
F001E0
F801F0
7C07F8
7E0FF8
3FFE3C
1FFC1E
07F01F
ENDCHAR
STARTCHAR 0027
ENCODING 39
SWIDTH 200 0
DWIDTH 8 0
BBX 4 10 2 18
BITMAP
F0
F0
F0
F0
F0
F0
70
60
60
20
ENDCHAR
STARTCHAR 0028
ENCODING 40
SWIDTH 325 0
DWIDTH 13 0
BBX 9 38 3 -9
BITMAP
0180
0380
0300
0700
0E00
0E00
1C00
1C00
3C00
3800
3800
7800
7800
7000
F000
F000
F000
F000
F000
F000
F000
F000
F000
7000
7000
7800
7800
3800
3800
3C00
1C00
1C00
0E00
0600
0700
0300
0380
0180
ENDCHAR
STARTCHAR 0029
ENCODING 41
SWIDTH 325 0
DWIDTH 13 0
BBX 9 38 2 -9
BITMAP
C000
E000
6000
7000
3800
3800
1C00
1C00
1E00
0E00
0E00
0F00
0F00
0700
0780
0780
0780
0780
0780
0780
0780
0780
0780
0700
0700
0F00
0F00
0E00
0E00
1C00
1C00
1C00
3800
3000
7000
6000
E000
C000
ENDCHAR
STARTCHAR 002A
ENCODING 42
SWIDTH 400 0
DWIDTH 16 0
BBX 12 12 2 17
BITMAP
0600
0600
0600
4620
FFF0
FFF0
1F80
0F00
1F80
39C0
38C0
1080
ENDCHAR
STARTCHAR 002B
ENCODING 43
SWIDTH 575 0
DWIDTH 23 0
BBX 19 19 2 0
BITMAP
00E000
00E000
00E000
00E000
00E000
00E000
00E000
00E000
FFFFE0
FFFFE0
FFFFE0
00E000
00E000
00E000
00E000
00E000
00E000
00E000
00E000
ENDCHAR
STARTCHAR 002C
ENCODING 44
SWIDTH 275 0
DWIDTH 11 0
BBX 4 10 3 -6
BITMAP
F0
F0
F0
F0
30
30
30
70
E0
C0
ENDCHAR
STARTCHAR 002D
ENCODING 45
SWIDTH 325 0
DWIDTH 13 0
BBX 9 3 2 10
BITMAP
FF80
FF80
FF80
ENDCHAR
STARTCHAR 002E
ENCODING 46
SWIDTH 250 0
DWIDTH 10 0
BBX 4 4 3 0
BITMAP
F0
F0
F0
F0
ENDCHAR
STARTCHAR 002F
ENCODING 47
SWIDTH 275 0
DWIDTH 11 0
BBX 11 29 0 0
BITMAP
0060
00E0
00C0
00C0
01C0
0180
0180
0180
0300
0300
0300
0700
0600
0600
0E00
0C00
0C00
1C00
1800
1800
1800
3000
3000
3000
7000
6000
6000
E000
C000
ENDCHAR
STARTCHAR 0030
ENCODING 48
SWIDTH 550 0
DWIDTH 22 0
BBX 19 28 2 0
BITMAP
03F800
0FFE00
1FFF00
3E0F80
3C0780
7C07C0
7803C0
7803C0
F001E0
F001E0
F001E0
F001E0
F001E0
F001E0
F001E0
F001E0
F001E0
F001E0
F001E0
F001E0
7803C0
7803C0
7803C0
3C0780
3E0F80
1FFF00
0FFE00
03F800
ENDCHAR
STARTCHAR 0031
ENCODING 49
SWIDTH 550 0
DWIDTH 22 0
BBX 9 28 5 0
BITMAP
0180
0380
0380
0780
1F80
FF80
FF80
FF80
0780
0780
0780
0780
0780
0780
0780
0780
0780
0780
0780
0780
0780
0780
0780
0780
0780
0780
0780
0780
ENDCHAR
STARTCHAR 0032
ENCODING 50
SWIDTH 550 0
DWIDTH 22 0
BBX 19 28 2 0
BITMAP
03F800
0FFE00
3FFF80
7E0FC0
7C07C0
7803E0
F001E0
F001E0
F001E0
0001E0
0001E0
0003E0
0007C0
000F80
003F00
007E00
01F800
03F000
07C000
0F0000
1E0000
380000
380000
300000
700000
7FFFE0
7FFFE0
7FFFE0
ENDCHAR
STARTCHAR 0033
ENCODING 51
SWIDTH 550 0
DWIDTH 22 0
BBX 20 28 1 0
BITMAP
03FC00
0FFF00
1FFF80
3F07C0
3C03C0
7C01E0
7801E0
7801E0
7801E0
0001E0
0003C0
000FC0
00FF00
00FE00
00FF80
0007E0
0001E0
0000F0
0000F0
F000F0
F000F0
F800F0
7801F0
7C01E0
3E07C0
1FFFC0
0FFF00
03FC00
ENDCHAR
STARTCHAR 0034
ENCODING 52
SWIDTH 550 0
DWIDTH 22 0
BBX 18 28 2 0
BITMAP
000E00
001E00
003E00
003E00
007E00
00FE00
00FE00
01DE00
039E00
071E00
071E00
0E1E00
1C1E00
181E00
381E00
701E00
601E00
E01E00
FFFFC0
FFFFC0
FFFFC0
001E00
001E00
001E00
001E00
001E00
001E00
001E00
ENDCHAR
STARTCHAR 0035
ENCODING 53
SWIDTH 550 0
DWIDTH 22 0
BBX 19 28 2 0
BITMAP
1FFF80
3FFF80
3FFF80
380000
380000
380000
380000
700000
700000
71F800
7FFE00
7FFF00
7E0F80
F807C0
0003C0
0003E0
0001E0
0001E0
0001E0
0001E0
0001E0
F001E0
F803C0
7807C0
7E0F80
3FFF00
1FFE00
03F800
ENDCHAR
STARTCHAR 0036
ENCODING 54
SWIDTH 550 0
DWIDTH 22 0
BBX 19 28 2 0
BITMAP
01F800
07FE00
0FFF00
1F0F80
3C07C0
3803C0
7803C0
780000
700000
F00000
F1F800
F7FE00
FFFF80
FE0F80
FC07C0
F803C0
F001E0
F001E0
F001E0
F001E0
7001E0
7001E0
7803C0
3C07C0
3E0F80
1FFF00
0FFE00
03F800
ENDCHAR
STARTCHAR 0037
ENCODING 55
SWIDTH 550 0
DWIDTH 22 0
BBX 19 28 2 0
BITMAP
FFFFE0
FFFFE0
FFFFE0
0001C0
0003C0
000380
000700
000F00
000E00
001E00
001C00
003800
003800
007000
007000
00F000
00E000
01E000
01C000
03C000
03C000
038000
078000
078000
078000
070000
0F0000
0F0000
ENDCHAR
STARTCHAR 0038
ENCODING 56
SWIDTH 550 0
DWIDTH 22 0
BBX 20 28 1 0
BITMAP
03FC00
0FFF00
1FFF80
3E07C0
7C03C0
7801E0
7801E0
7801E0
7801E0
3C03C0
3E07C0
0FFF00
07FE00
1FFF80
3E07C0
7C03E0
7801E0
F000F0
F000F0
F000F0
F000F0
F000F0
7801E0
7C03E0
3E07C0
1FFF80
0FFF00
03FC00
ENDCHAR
STARTCHAR 0039
ENCODING 57
SWIDTH 550 0
DWIDTH 22 0
BBX 19 28 2 0
BITMAP
03F800
0FFE00
1FFF00
3E0F80
7C0780
7803C0
F003C0
F001C0
F001E0
F001E0
F001E0
F001E0
7803E0
7C07E0
3E0FE0
1FFFE0
0FFDE0
03F1E0
0001E0
0001C0
0003C0
7803C0
780380
7C0780
3E1F00
1FFE00
0FFC00
03F000
ENDCHAR
STARTCHAR 003A
ENCODING 58
SWIDTH 250 0
DWIDTH 10 0
BBX 4 21 3 0
BITMAP
F0
F0
F0
F0
00
00
00
00
00
00
00
00
00
00
00
00
00
F0
F0
F0
F0
ENDCHAR
STARTCHAR 003B
ENCODING 59
SWIDTH 250 0
DWIDTH 10 0
BBX 4 27 3 -6
BITMAP
F0
F0
F0
F0
00
00
00
00
00
00
00
00
00
00
00
00
00
F0
F0
F0
F0
30
30
30
70
E0
C0
ENDCHAR
STARTCHAR 003C
ENCODING 60
SWIDTH 575 0
DWIDTH 23 0
BBX 19 19 2 1
BITMAP
000060
0001E0
0007E0
003FC0
00FE00
03F800
1FC000
7F0000
FC0000
F00000
FE0000
3F8000
0FE000
03FC00
007F00
001FE0
0007E0
0000E0
000020
ENDCHAR
STARTCHAR 003D
ENCODING 61
SWIDTH 575 0
DWIDTH 23 0
BBX 19 10 2 4
BITMAP
FFFFE0
FFFFE0
FFFFE0
000000
000000
000000
000000
FFFFE0
FFFFE0
FFFFE0
ENDCHAR
STARTCHAR 003E
ENCODING 62
SWIDTH 575 0
DWIDTH 23 0
BBX 20 19 2 1
BITMAP
C00000
F00000
FE0000
3F8000
0FE000
03FC00
007F00
001FC0
0003F0
0000F0
0007F0
001FC0
00FE00
03F800
1FE000
7F0000
FC0000
F00000
800000
ENDCHAR
STARTCHAR 003F
ENCODING 63
SWIDTH 550 0
DWIDTH 22 0
BBX 18 29 3 0
BITMAP
03F800
1FFE00
3FFF00
7E0F80
780780
F803C0
F003C0
F003C0
F003C0
0003C0
000780
000F80
000F00
001E00
007C00
00F800
00F000
01E000
01E000
01E000
01E000
000000
000000
000000
000000
01E000
01E000
01E000
01E000
ENDCHAR
STARTCHAR 0040
ENCODING 64
SWIDTH 1025 0
DWIDTH 41 0
BBX 38 35 1 -6
BITMAP
0000FF8000
0007FFF000
001FFFFC00
007F00FF00
01F8001F80
03F0000FC0
07C00003E0
0F800001F0
1F003E00F0
1E01FF38F8
3C03FFB878
3C07C3F87C
780F81F03C
780F00F03C
701E00F03C
F01E00E03C
F03C00E03C
F03C00E03C
F03C01C078
F03C01C078
F03C03C0F8
F03C03C0F0
F81E0781F0
781F0FC7E0
7C0FFDFFC0
3C07F9FF80
3E03E0FE00
1F00000000
0F80000000
07C0000000
03F0000000
01FE00E000
007FFFF000
001FFFF000
0003FF0000
ENDCHAR
STARTCHAR 0041
ENCODING 65
SWIDTH 675 0
DWIDTH 27 0
BBX 25 29 1 0
BITMAP
003E0000
007E0000
007F0000
007F0000
00F70000
00F78000
00E78000
01E38000
01E3C000
01C3C000
03C1E000
03C1E000
0781E000
0780F000
0700F000
0F00F000
0F007800
0FFFF800
1FFFF800
1FFFFC00
1C003C00
3C003C00
3C001E00
38001E00
78001E00
78000F00
F0000F00
F0000F80
F0000780
ENDCHAR
STARTCHAR 0042
ENCODING 66
SWIDTH 675 0
DWIDTH 27 0
BBX 22 29 3 0
BITMAP
FFFF00
FFFFC0
FFFFE0
F003F0
F000F0
F000F8
F00078
F00078
F00078
F00078
F000F0
F000F0
F003E0
FFFFC0
FFFFC0
FFFFE0
F001F0
F00078
F0007C
F0003C
F0003C
F0003C
F0003C
F0007C
F00078
F001F8
FFFFF0
FFFFE0
FFFF80
ENDCHAR
STARTCHAR 0043
ENCODING 67
SWIDTH 700 0
DWIDTH 28 0
BBX 25 29 2 0
BITMAP
007F8000
01FFE000
07FFF800
0FC0FC00
1F003C00
3E001E00
3C001E00
78000F00
78000F00
78000000
F0000000
F0000000
F0000000
F0000000
F0000000
F0000000
F0000000
F0000000
F0000780
78000780
78000F80
78000F00
3C000F00
3E001E00
1F003E00
0FC0FC00
07FFF800
03FFF000
007F8000
ENDCHAR
STARTCHAR 0044
ENCODING 68
SWIDTH 700 0
DWIDTH 28 0
BBX 24 29 3 0
BITMAP
FFFE00
FFFFC0
FFFFE0
F003F0
F000F8
F0007C
F0003C
F0001E
F0001E
F0001E
F0000F
F0000F
F0000F
F0000F
F0000F
F0000F
F0000F
F0000F
F0000F
F0001E
F0001E
F0001E
F0003C
F0007C
F000F8
F003F0
FFFFE0
FFFFC0
FFFE00
ENDCHAR
STARTCHAR 0045
ENCODING 69
SWIDTH 625 0
DWIDTH 25 0
BBX 20 29 3 0
BITMAP
FFFFF0
FFFFF0
FFFFF0
F00000
F00000
F00000
F00000
F00000
F00000
F00000
F00000
F00000
F00000
FFFFE0
FFFFE0
FFFFE0
F00000
F00000
F00000
F00000
F00000
F00000
F00000
F00000
F00000
F00000
FFFFF0
FFFFF0
FFFFF0
ENDCHAR
STARTCHAR 0046
ENCODING 70
SWIDTH 600 0
DWIDTH 24 0
BBX 19 29 3 0
BITMAP
FFFFE0
FFFFE0
FFFFE0
F00000
F00000
F00000
F00000
F00000
F00000
F00000
F00000
F00000
F00000
FFFF80
FFFF80
FFFF80
F00000
F00000
F00000
F00000
F00000
F00000
F00000
F00000
F00000
F00000
F00000
F00000
F00000
ENDCHAR
STARTCHAR 0047
ENCODING 71
SWIDTH 775 0
DWIDTH 31 0
BBX 27 29 2 0
BITMAP
003FE000
01FFF800
07FFFE00
0FE03F00
1F800F80
1E0007C0
3C0003C0
7C0003E0
780001E0
78000000
F0000000
F0000000
F0000000
F001FFE0
F001FFE0
F001FFE0
F00001E0
F00001E0
780001E0
780001E0
780003E0
3C0003E0
3E0007E0
1F0007E0
0F801FE0
0FE07DE0
03FFF8E0
01FFF0E0
003F8060
ENDCHAR
STARTCHAR 0048
ENCODING 72
SWIDTH 725 0
DWIDTH 29 0
BBX 23 29 3 0
BITMAP
F0001E
F0001E
F0001E
F0001E
F0001E
F0001E
F0001E
F0001E
F0001E
F0001E
F0001E
F0001E
F0001E
FFFFFE
FFFFFE
FFFFFE
F0001E
F0001E
F0001E
F0001E
F0001E
F0001E
F0001E
F0001E
F0001E
F0001E
F0001E
F0001E
F0001E
ENDCHAR
STARTCHAR 0049
ENCODING 73
SWIDTH 275 0
DWIDTH 11 0
BBX 4 29 4 0
BITMAP
F0
F0
F0
F0
F0
F0
F0
F0
F0
F0
F0
F0
F0
F0
F0
F0
F0
F0
F0
F0
F0
F0
F0
F0
F0
F0
F0
F0
F0
ENDCHAR
STARTCHAR 004A
ENCODING 74
SWIDTH 525 0
DWIDTH 21 0
BBX 17 29 1 0
BITMAP
000780
000780
000780
000780
000780
000780
000780
000780
000780
000780
000780
000780
000780
000780
000780
000780
000780
000780
000780
F00780
F00780
F00780
F00780
F00F80
780F00
7C1F00
3FFE00
1FFC00
07F000
ENDCHAR
STARTCHAR 004B
ENCODING 75
SWIDTH 675 0
DWIDTH 27 0
BBX 23 29 3 0
BITMAP
F0003E
F0007C
F000F8
F001F0
F003E0
F007C0
F00F80
F01F00
F03E00
F07C00
F0F800
F1F000
F3F000
F7F800
FF7800
FE3C00
FC3E00
F81E00
F00F00
F00F80
F00780
F003C0
F001E0
F001F0
F000F0
F00078
F0007C
F0003C
F0001E
ENDCHAR
STARTCHAR 004C
ENCODING 76
SWIDTH 575 0
DWIDTH 23 0
BBX 18 29 3 0
BITMAP
F00000
F00000
F00000
F00000
F00000
F00000
F00000
F00000
F00000
F00000
F00000
F00000
F00000
F00000
F00000
F00000
F00000
F00000
F00000
F00000
F00000
F00000
F00000
F00000
F00000
F00000
FFFFC0
FFFFC0
FFFFC0
ENDCHAR
STARTCHAR 004D
ENCODING 77
SWIDTH 850 0
DWIDTH 34 0
BBX 28 29 3 0
BITMAP
FC0003F0
FC0003F0
FC0003F0
FE0007F0
FE0007F0
FE0007F0
F7000EF0
F7000EF0
F7000EF0
F3801CF0
F3801CF0
F3801CF0
F1C038F0
F1C038F0
F1C038F0
F0E070F0
F0E070F0
F0E070F0
F070E0F0
F070E0F0
F070E0F0
F039C0F0
F039C0F0
F039C0F0
F01F80F0
F01F80F0
F01F80F0
F00F00F0
F00F00F0
ENDCHAR
STARTCHAR 004E
ENCODING 78
SWIDTH 725 0
DWIDTH 29 0
BBX 23 29 3 0
BITMAP
F8001E
F8001E
FC001E
FE001E
FE001E
FF001E
F7001E
F7801E
F3C01E
F3C01E
F1E01E
F0F01E
F0F01E
F0781E
F0781E
F03C1E
F01E1E
F01E1E
F00F1E
F0071E
F0079E
F003DE
F003DE
F001FE
F000FE
F000FE
F0007E
F0007E
F0003E
ENDCHAR
STARTCHAR 004F
ENCODING 79
SWIDTH 775 0
DWIDTH 31 0
BBX 28 29 2 0
BITMAP
003FC000
01FFF800
03FFFC00
0FE07F00
1F801F80
1E000780
3C0007C0
7C0003E0
780001E0
780001E0
F00001F0
F00000F0
F00000F0
F00000F0
F00000F0
F00000F0
F00000F0
F00000F0
F00001F0
780001E0
780001E0
7C0003E0
3C0003C0
1E000780
1F801F80
0FE07F00
03FFFC00
01FFF800
003FC000
ENDCHAR
STARTCHAR 0050
ENCODING 80
SWIDTH 650 0
DWIDTH 26 0
BBX 21 29 3 0
BITMAP
FFFF00
FFFFC0
FFFFE0
F003F0
F000F0
F000F8
F00078
F00078
F00078
F00078
F000F8
F000F0
F003F0
FFFFE0
FFFFC0
FFFF00
F00000
F00000
F00000
F00000
F00000
F00000
F00000
F00000
F00000
F00000
F00000
F00000
F00000
ENDCHAR
STARTCHAR 0051
ENCODING 81
SWIDTH 775 0
DWIDTH 31 0
BBX 28 31 2 -3
BITMAP
003FC000
01FFF800
03FFFC00
0FE07F00
1F801F80
1E000780
3C0003C0
7C0003E0
780001E0
780001E0
F00001F0
F00000F0
F00000F0
F00000F0
F00000F0
F00000F0
F00000F0
F00000F0
F00001F0
780001E0
780041E0
7C0063C0
3C00F7C0
1E007F80
1F803F00
0FE07F00
03FFFF80
01FFFBC0
003FC1E0
000000E0
00000040
ENDCHAR
STARTCHAR 0052
ENCODING 82
SWIDTH 700 0
DWIDTH 28 0
BBX 23 29 3 0
BITMAP
FFFF80
FFFFE0
FFFFF0
F001F8
F00078
F0003C
F0003C
F0003C
F0003C
F0003C
F00038
F00078
F000F0
FFFFE0
FFFFC0
FFFFF0
F000F8
F00078
F0003C
F0003C
F0003C
F0003C
F0003C
F0003C
F0003C
F0003C
F0003C
F0003E
F0003E
ENDCHAR
STARTCHAR 0053
ENCODING 83
SWIDTH 675 0
DWIDTH 27 0
BBX 23 29 2 0
BITMAP
01FE00
07FFC0
1FFFE0
3F03F0
3C00F8
7C0078
78003C
78003C
78003C
780000
7C0000
3F0000
3FF000
0FFF00
03FFE0
007FF0
0007F8
0000FC
00003E
F0001E
F0001E
F0001E
78001E
78003C
7C007C
3F01F8
1FFFF0
07FFE0
01FF00
ENDCHAR
STARTCHAR 0054
ENCODING 84
SWIDTH 625 0
DWIDTH 25 0
BBX 22 29 2 0
BITMAP
FFFFFC
FFFFFC
FFFFFC
007800
007800
007800
007800
007800
007800
007800
007800
007800
007800
007800
007800
007800
007800
007800
007800
007800
007800
007800
007800
007800
007800
007800
007800
007800
007800
ENDCHAR
STARTCHAR 0055
ENCODING 85
SWIDTH 725 0
DWIDTH 29 0
BBX 23 29 3 0
BITMAP
F0001E
F0001E
F0001E
F0001E
F0001E
F0001E
F0001E
F0001E
F0001E
F0001E
F0001E
F0001E
F0001E
F0001E
F0001E
F0001E
F0001E
F0001E
F0001E
F0001E
F0001E
F0001E
F0003E
78003C
7C007C
3F01F8
1FFFF0
07FFC0
01FF00
ENDCHAR
STARTCHAR 0056
ENCODING 86
SWIDTH 650 0
DWIDTH 26 0
BBX 24 29 1 0
BITMAP
F0000F
F0000F
F0001E
78001E
78001E
3C003C
3C003C
3C003C
1E0078
1E0078
1E0078
0F00F0
0F00F0
0F00F0
0781E0
0781E0
0381C0
03C3C0
03C3C0
01C380
01E780
01E780
00E700
00FF00
00FF00
007E00
007E00
003E00
003C00
ENDCHAR
STARTCHAR 0057
ENCODING 87
SWIDTH 925 0
DWIDTH 37 0
BBX 36 29 1 0
BITMAP
F000F000F0
F001F001F0
F001F001E0
7801F801E0
7803F801E0
7803B803C0
7803BC03C0
3C03BC03C0
3C079C03C0
3C071C0380
3C071E0780
1C071E0780
1E0E0E0780
1E0E0F0700
1E0E0F0F00
0E1E070F00
0F1C070F00
0F1C078E00
0F1C079E00
073C039E00
07B803DE00
07B803DC00
07B801DC00
03F001FC00
03F001FC00
03F001F800
03F000F800
01E000F800
01E000F800
ENDCHAR
STARTCHAR 0058
ENCODING 88
SWIDTH 650 0
DWIDTH 26 0
BBX 24 29 1 0
BITMAP
78001F
7C001E
3C003C
1E007C
1F0078
0F00F0
0781F0
07C1E0
03C3C0
01E7C0
01F780
00FF00
007F00
007E00
003E00
007E00
00FF00
00F780
01E780
03C3C0
07C3E0
0781E0
0F00F0
1F00F8
1E007C
3C003C
7C003E
78001F
F0000F
ENDCHAR
STARTCHAR 0059
ENCODING 89
SWIDTH 675 0
DWIDTH 27 0
BBX 26 29 1 0
BITMAP
F80007C0
78000780
7C000F00
3E001F00
1E001E00
1F003E00
0F003C00
07807800
07C0F800
03C0F000
03E1E000
01E1E000
00F3C000
00FFC000
007F8000
003F0000
003F0000
001E0000
001E0000
001E0000
001E0000
001E0000
001E0000
001E0000
001E0000
001E0000
001E0000
001E0000
001E0000
ENDCHAR
STARTCHAR 005A
ENCODING 90
SWIDTH 625 0
DWIDTH 25 0
BBX 22 29 1 0
BITMAP
7FFFFC
7FFFFC
7FFFFC
00007C
000078
0000F0
0001F0
0003E0
0003C0
000780
000F80
001F00
003E00
003C00
007C00
00F800
01F000
01E000
03E000
07C000
0F8000
0F0000
1F0000
3E0000
7C0000
780000
FFFFFC
FFFFFC
FFFFFC
ENDCHAR
STARTCHAR 005B
ENCODING 91
SWIDTH 275 0
DWIDTH 11 0
BBX 7 37 3 -8
BITMAP
FE
FE
FE
F0
F0
F0
F0
F0
F0
F0
F0
F0
F0
F0
F0
F0
F0
F0
F0
F0
F0
F0
F0
F0
F0
F0
F0
F0
F0
F0
F0
F0
F0
F0
FE
FE
FE
ENDCHAR
STARTCHAR 005C
ENCODING 92
SWIDTH 275 0
DWIDTH 11 0
BBX 11 29 0 0
BITMAP
C000
E000
6000
6000
7000
3000
3000
3000
1800
1800
1800
1C00
0C00
0C00
0E00
0600
0600
0700
0300
0300
0300
0180
0180
0180
01C0
00C0
00C0
00E0
0060
ENDCHAR
STARTCHAR 005D
ENCODING 93
SWIDTH 275 0
DWIDTH 11 0
BBX 7 37 1 -8
BITMAP
FE
FE
FE
1E
1E
1E
1E
1E
1E
1E
1E
1E
1E
1E
1E
1E
1E
1E
1E
1E
1E
1E
1E
1E
1E
1E
1E
1E
1E
1E
1E
1E
1E
1E
FE
FE
FE
ENDCHAR
STARTCHAR 005E
ENCODING 94
SWIDTH 475 0
DWIDTH 19 0
BBX 15 15 2 12
BITMAP
0380
0780
07C0
0FC0
0EE0
0CE0
1C60
1C70
3830
3838
3038
7018
701C
E00C
E00E
ENDCHAR
STARTCHAR 005F
ENCODING 95
SWIDTH 550 0
DWIDTH 22 0
BBX 24 2 -1 -7
BITMAP
FFFFFF
FFFFFF
ENDCHAR
STARTCHAR 0060
ENCODING 96
SWIDTH 250 0
DWIDTH 10 0
BBX 8 6 1 23
BITMAP
F8
78
3C
1C
0E
07
ENDCHAR
STARTCHAR 0061
ENCODING 97
SWIDTH 550 0
DWIDTH 22 0
BBX 21 21 1 0
BITMAP
03FC00
1FFF00
3FFF80
3E0FC0
7C03C0
7803C0
0003C0
0003C0
000FC0
03FFC0
1FFFC0
7FE3C0
7C03C0
F803C0
F003C0
F007C0
F00FC0
7C1FC0
7FFBF8
3FF1F8
0FC0F8
ENDCHAR
STARTCHAR 0062
ENCODING 98
SWIDTH 550 0
DWIDTH 22 0
BBX 20 29 2 0
BITMAP
F00000
F00000
F00000
F00000
F00000
F00000
F00000
F00000
F0FC00
F3FF00
F7FF80
FF0FC0
FC03E0
F801E0
F801E0
F000F0
F000F0
F000F0
F000F0
F000F0
F000F0
F000F0
F801E0
F801E0
FC03E0
FE0FC0
EFFF80
E7FF00
E1FC00
ENDCHAR
STARTCHAR 0063
ENCODING 99
SWIDTH 500 0
DWIDTH 20 0
BBX 19 21 1 0
BITMAP
03F800
0FFF00
1FFF80
3E0FC0
7C03C0
7803C0
7801E0
F00000
F00000
F00000
F00000
F00000
F00000
F001E0
7801E0
7803C0
7C03C0
3E0F80
1FFF80
0FFE00
03F800
ENDCHAR
STARTCHAR 0064
ENCODING 100
SWIDTH 550 0
DWIDTH 22 0
BBX 20 29 1 0
BITMAP
0000F0
0000F0
0000F0
0000F0
0000F0
0000F0
0000F0
0000F0
03F8F0
0FFCF0
1FFEF0
3F0FF0
7C03F0
7801F0
7801F0
F000F0
F000F0
F000F0
F000F0
F000F0
F000F0
F000F0
7801F0
7801F0
7C03F0
3F07F0
1FFF70
0FFE70
03F870
ENDCHAR
STARTCHAR 0065
ENCODING 101
SWIDTH 525 0
DWIDTH 21 0
BBX 20 21 1 0
BITMAP
01FC00
0FFF00
1FFF80
3E07C0
7C03E0
7801E0
F000E0
F000F0
FFFFF0
FFFFF0
FFFFF0
F00000
F00000
F00000
7800E0
7801E0
7C03E0
3F07C0
1FFF80
0FFF00
01FC00
ENDCHAR
STARTCHAR 0066
ENCODING 102
SWIDTH 275 0
DWIDTH 11 0
BBX 8 29 2 0
BITMAP
0F
1F
3F
3C
3C
3C
3C
3C
FF
FF
FF
3C
3C
3C
3C
3C
3C
3C
3C
3C
3C
3C
3C
3C
3C
3C
3C
3C
3C
ENDCHAR
STARTCHAR 0067
ENCODING 103
SWIDTH 550 0
DWIDTH 22 0
BBX 19 30 1 -9
BITMAP
03F1E0
0FFDE0
1FFFE0
3E0FE0
7C07E0
7803E0
7803E0
F001E0
F001E0
F001E0
F001E0
F001E0
F001E0
F001E0
7803E0
7803E0
7C07E0
3E0FE0
1FFDE0
0FF9E0
03F1E0
0001E0
0001E0
0003C0
7803C0
7C07C0
3E0F80
3FFF80
0FFF00
03F800
ENDCHAR
STARTCHAR 0068
ENCODING 104
SWIDTH 525 0
DWIDTH 21 0
BBX 18 29 2 0
BITMAP
F00000
F00000
F00000
F00000
F00000
F00000
F00000
F00000
F0FC00
F3FF00
F7FF80
FE0FC0
FC07C0
F803C0
F803C0
F003C0
F003C0
F003C0
F003C0
F003C0
F003C0
F003C0
F003C0
F003C0
F003C0
F003C0
F003C0
F003C0
F003C0
ENDCHAR
STARTCHAR 0069
ENCODING 105
SWIDTH 225 0
DWIDTH 9 0
BBX 4 29 3 0
BITMAP
F0
F0
F0
F0
00
00
00
00
F0
F0
F0
F0
F0
F0
F0
F0
F0
F0
F0
F0
F0
F0
F0
F0
F0
F0
F0
F0
F0
ENDCHAR
STARTCHAR 006A
ENCODING 106
SWIDTH 250 0
DWIDTH 10 0
BBX 8 38 0 -9
BITMAP
0F
0F
0F
0F
00
00
00
00
0F
0F
0F
0F
0F
0F
0F
0F
0F
0F
0F
0F
0F
0F
0F
0F
0F
0F
0F
0F
0F
0F
0F
0F
0F
0F
1F
FF
FE
F8
ENDCHAR
STARTCHAR 006B
ENCODING 107
SWIDTH 525 0
DWIDTH 21 0
BBX 18 29 2 0
BITMAP
F00000
F00000
F00000
F00000
F00000
F00000
F00000
F00000
F00F80
F01F00
F03E00
F07C00
F0F800
F1F000
F3E000
F7C000
FFE000
FFE000
FCF000
F8F800
F07800
F03C00
F03C00
F01E00
F00F00
F00F00
F00780
F00780
F003C0
ENDCHAR
STARTCHAR 006C
ENCODING 108
SWIDTH 225 0
DWIDTH 9 0
BBX 4 29 2 0
BITMAP
F0
F0
F0
F0
F0
F0
F0
F0
F0
F0
F0
F0
F0
F0
F0
F0
F0
F0
F0
F0
F0
F0
F0
F0
F0
F0
F0
F0
F0
ENDCHAR
STARTCHAR 006D
ENCODING 109
SWIDTH 800 0
DWIDTH 32 0
BBX 29 21 2 0
BITMAP
E1F80FC0
E7FE3FE0
EFFF7FF0
FE1FF1F8
FC0FC0F8
F807C078
F0078078
F0078078
F0078078
F0078078
F0078078
F0078078
F0078078
F0078078
F0078078
F0078078
F0078078
F0078078
F0078078
F0078078
F0078078
ENDCHAR
STARTCHAR 006E
ENCODING 110
SWIDTH 525 0
DWIDTH 21 0
BBX 18 21 2 0
BITMAP
E1FC00
E7FF00
EFFF80
FE0FC0
FC07C0
F803C0
F803C0
F003C0
F003C0
F003C0
F003C0
F003C0
F003C0
F003C0
F003C0
F003C0
F003C0
F003C0
F003C0
F003C0
F003C0
ENDCHAR
STARTCHAR 006F
ENCODING 111
SWIDTH 525 0
DWIDTH 21 0
BBX 20 21 1 0
BITMAP
03FC00
0FFF00
1FFF80
3E0FC0
7C03E0
7801E0
7801E0
F000F0
F000F0
F000F0
F000F0
F000F0
F000F0
F000F0
7801E0
7801E0
7C03E0
3E0FC0
1FFF80
0FFF00
03FC00
ENDCHAR
STARTCHAR 0070
ENCODING 112
SWIDTH 550 0
DWIDTH 22 0
BBX 20 28 2 -7
BITMAP
E1FC00
E7FF00
EFFF80
FF0FC0
FC03E0
F801E0
F801E0
F000F0
F000F0
F000F0
F000F0
F000F0
F000F0
F000F0
F801E0
F801E0
FC03E0
FE0FC0
FFFF80
F3FF00
F0FC00
F00000
F00000
F00000
F00000
F00000
F00000
F00000
ENDCHAR
STARTCHAR 0071
ENCODING 113
SWIDTH 550 0
DWIDTH 22 0
BBX 20 28 1 -7
BITMAP
03F870
0FFE70
1FFF70
3F0FF0
7C03F0
7801F0
7801F0
F000F0
F000F0
F000F0
F000F0
F000F0
F000F0
F000F0
F801F0
7801F0
7C03F0
3F07F0
1FFEF0
0FFCF0
03F8F0
0000F0
0000F0
0000F0
0000F0
0000F0
0000F0
0000F0
ENDCHAR
STARTCHAR 0072
ENCODING 114
SWIDTH 325 0
DWIDTH 13 0
BBX 11 21 2 0
BITMAP
E1E0
E3E0
EFE0
FF00
FC00
F800
F000
F000
F000
F000
F000
F000
F000
F000
F000
F000
F000
F000
F000
F000
F000
ENDCHAR
STARTCHAR 0073
ENCODING 115
SWIDTH 500 0
DWIDTH 20 0
BBX 17 21 2 0
BITMAP
07F000
1FFC00
7FFE00
7C1E00
F00F00
F00F00
F00000
F00000
FC0000
7FC000
1FF800
07FE00
007F00
000F80
F00780
F00780
F80780
7C1F00
7FFF00
3FFC00
0FF000
ENDCHAR
STARTCHAR 0074
ENCODING 116
SWIDTH 275 0
DWIDTH 11 0
BBX 8 26 2 0
BITMAP
3C
3C
3C
3C
3C
FF
FF
FF
3C
3C
3C
3C
3C
3C
3C
3C
3C
3C
3C
3C
3C
3C
3C
3F
3F
1F
ENDCHAR
STARTCHAR 0075
ENCODING 117
SWIDTH 525 0
DWIDTH 21 0
BBX 18 21 2 0
BITMAP
F003C0
F003C0
F003C0
F003C0
F003C0
F003C0
F003C0
F003C0
F003C0
F003C0
F003C0
F003C0
F003C0
F003C0
F007C0
F007C0
F80FC0
FC1FC0
7FFDC0
3FF9C0
0FE1C0
ENDCHAR
STARTCHAR 0076
ENCODING 118
SWIDTH 500 0
DWIDTH 20 0
BBX 18 21 1 0
BITMAP
E003C0
F003C0
F003C0
700780
780780
780700
380F00
3C0F00
3C0E00
1C1E00
1E1C00
1E1C00
0E3C00
0F3800
0F3800
077800
07F000
03F000
03E000
03E000
01E000
ENDCHAR
STARTCHAR 0077
ENCODING 119
SWIDTH 725 0
DWIDTH 29 0
BBX 27 21 1 0
BITMAP
E01F00E0
E01F01E0
F01F01E0
F03F01E0
703F81C0
783B83C0
783B83C0
383B8380
3873C380
3C71C780
3C71C700
1C71C700
1CE1E700
1EE0EF00
0EE0EE00
0EE0EE00
0FC0FE00
0FC07C00
07C07C00
07C07C00
07807C00
ENDCHAR
STARTCHAR 0078
ENCODING 120
SWIDTH 475 0
DWIDTH 19 0
BBX 17 21 1 0
BITMAP
F00780
780700
780F00
3C1E00
1E1C00
0E3C00
0F7800
07F000
03F000
03E000
01E000
03E000
07F000
077800
0F3800
1E3C00
3C1E00
3C1E00
780F00
F00780
F00780
ENDCHAR
STARTCHAR 0079
ENCODING 121
SWIDTH 475 0
DWIDTH 19 0
BBX 18 30 1 -9
BITMAP
E003C0
E00380
F00780
700700
700700
780F00
380E00
381E00
3C1E00
1C1C00
1C3C00
1E3C00
0E3800
0E7800
0F7000
077000
07F000
07E000
03E000
03E000
03C000
03C000
03C000
038000
078000
070000
0F0000
7F0000
7E0000
780000
ENDCHAR
STARTCHAR 007A
ENCODING 122
SWIDTH 475 0
DWIDTH 19 0
BBX 17 21 1 0
BITMAP
7FFF80
7FFF80
7FFF80
000F00
001E00
001E00
003C00
007800
00F000
01E000
03C000
03C000
078000
0F0000
1E0000
3C0000
7C0000
780000
FFFF80
FFFF80
FFFF80
ENDCHAR
STARTCHAR 007B
ENCODING 123
SWIDTH 325 0
DWIDTH 13 0
BBX 9 37 2 -8
BITMAP
0780
0F80
1F80
1E00
1C00
1C00
1C00
1C00
1C00
1C00
1C00
1C00
1C00
1C00
1C00
3C00
3800
F000
E000
F000
3800
3800
1C00
1C00
1C00
1C00
1C00
1C00
1C00
1C00
1C00
1C00
1C00
1E00
1F80
0F80
0780
ENDCHAR
STARTCHAR 007C
ENCODING 124
SWIDTH 250 0
DWIDTH 10 0
BBX 2 38 4 -9
BITMAP
C0
C0
C0
C0
C0
C0
C0
C0
C0
C0
C0
C0
C0
C0
C0
C0
C0
C0
C0
C0
C0
C0
C0
C0
C0
C0
C0
C0
C0
C0
C0
C0
C0
C0
C0
C0
C0
C0
ENDCHAR
STARTCHAR 007D
ENCODING 125
SWIDTH 325 0
DWIDTH 13 0
BBX 9 37 2 -8
BITMAP
F000
F800
F800
3C00
1C00
1C00
1C00
1C00
1C00
1C00
1C00
1C00
1C00
1C00
1C00
1E00
0E00
0780
0380
0780
0E00
1E00
1C00
1C00
1C00
1C00
1C00
1C00
1C00
1C00
1C00
1C00
1C00
3C00
F800
F800
F000
ENDCHAR
STARTCHAR 007E
ENCODING 126
SWIDTH 500 0
DWIDTH 20 0
BBX 18 7 1 11
BITMAP
3C0000
7F0000
7FC0C0
E3F0C0
C0FFC0
003F80
000F00
ENDCHAR
STARTCHAR 00A0
ENCODING 160
SWIDTH 275 0
DWIDTH 11 0
BBX 0 0 0 0
BITMAP
ENDCHAR
STARTCHAR 00A1
ENCODING 161
SWIDTH 325 0
DWIDTH 13 0
BBX 4 29 4 -8
BITMAP
F0
F0
F0
F0
00
00
00
60
60
60
60
F0
F0
F0
F0
F0
F0
F0
F0
F0
F0
F0
F0
F0
F0
F0
F0
F0
F0
ENDCHAR
STARTCHAR 00A2
ENCODING 162
SWIDTH 550 0
DWIDTH 22 0
BBX 19 27 2 -3
BITMAP
004000
004000
004000
01F800
0FFE00
1FFF80
3E4F80
3C43C0
7843C0
7841E0
F04000
F04000
F04000
F04000
F04000
F04000
F041E0
7841E0
7843C0
7C47C0
3F4F80
1FFF80
0FFE00
01F800
004000
004000
004000
ENDCHAR
STARTCHAR 00A3
ENCODING 163
SWIDTH 550 0
DWIDTH 22 0
BBX 21 29 1 0
BITMAP
01FC00
07FF80
0FFFC0
1F07E0
3C01E0
3C01E0
7800F0
7800F0
7800F0
780000
780000
3C0000
3C0000
1E0000
FFF800
FFF800
070000
078000
078000
078000
078000
0F0000
0E0000
1E0000
3DE000
7FFC70
FFFFF8
707FF0
200FC0
ENDCHAR
STARTCHAR 00A4
ENCODING 164
SWIDTH 550 0
DWIDTH 22 0
BBX 16 17 3 5
BITMAP
2004
F7EE
7FFF
3FFE
3C3C
381C
700E
700E
700E
700E
700E
381C
3C3C
3FFE
7FFF
77EE
2004
ENDCHAR
STARTCHAR 00A5
ENCODING 165
SWIDTH 550 0
DWIDTH 22 0
BBX 20 28 1 0
BITMAP
E000F0
7000E0
7001E0
3801C0
3C03C0
1C0380
1E0700
0E0700
070E00
070E00
039C00
039C00
01F800
01F800
3FFFC0
3FFFC0
00F000
00F000
00F000
3FFFC0
3FFFC0
00F000
00F000
00F000
00F000
00F000
00F000
00F000
ENDCHAR
STARTCHAR 00A6
ENCODING 166
SWIDTH 250 0
DWIDTH 10 0
BBX 2 37 4 -9
BITMAP
C0
C0
C0
C0
C0
C0
C0
C0
C0
C0
C0
C0
C0
C0
C0
C0
00
00
00
00
00
C0
C0
C0
C0
C0
C0
C0
C0
C0
C0
C0
C0
C0
C0
C0
C0
ENDCHAR
STARTCHAR 00A7
ENCODING 167
SWIDTH 550 0
DWIDTH 22 0
BBX 18 38 2 -9
BITMAP
01F000
07FC00
0FFE00
1E1F00
3C0F80
3C0780
3C0780
3C0780
1E0000
1F0000
0FC000
1FE000
79F800
707E00
E03F00
E00F80
E00780
E003C0
F001C0
F801C0
7E01C0
3F01C0
1F8380
07E780
03FF00
01FC00
007C00
003E00
001F00
780F00
780F00
780F00
780F00
3C1E00
3E3E00
1FFC00
0FF800
03E000
ENDCHAR
STARTCHAR 00A8
ENCODING 168
SWIDTH 325 0
DWIDTH 13 0
BBX 12 4 1 24
BITMAP
F0F0
F0F0
F0F0
F0F0
ENDCHAR
STARTCHAR 00A9
ENCODING 169
SWIDTH 800 0
DWIDTH 32 0
BBX 28 28 2 0
BITMAP
003FC000
00FFF000
03E07C00
07800E00
0E000700
1C3F8380
387FE1C0
30F8F0C0
61E07060
61C07860
E3C03870
C3800030
C3800030
C3800030
C3800030
C3803830
C3C03830
E1C07870
61E07060
60FFF060
307FE0C0
381F81C0
1C000380
0E000700
07000E00
03E03C00
00FFF000
003FC000
ENDCHAR
STARTCHAR 00AA
ENCODING 170
SWIDTH 375 0
DWIDTH 15 0
BBX 12 18 1 12
BITMAP
3F80
7FC0
E0E0
C060
0060
00E0
1FE0
7E60
E060
C060
C0E0
E1E0
7FF0
3E30
0000
0000
FFE0
FFE0
ENDCHAR
STARTCHAR 00AB
ENCODING 171
SWIDTH 500 0
DWIDTH 20 0
BBX 14 13 3 4
BITMAP
0404
0C0C
1C1C
7C3C
F0F8
E0E0
C0C0
E0E0
F0F0
7C3C
1C1C
0C0C
0404
ENDCHAR
STARTCHAR 00AC
ENCODING 172
SWIDTH 575 0
DWIDTH 23 0
BBX 20 11 2 4
BITMAP
FFFFF0
FFFFF0
FFFFF0
000070
000070
000070
000070
000070
000070
000070
000070
ENDCHAR
STARTCHAR 00AD
ENCODING 173
SWIDTH 325 0
DWIDTH 13 0
BBX 9 3 2 10
BITMAP
FF80
FF80
FF80
ENDCHAR
STARTCHAR 00AE
ENCODING 174
SWIDTH 800 0
DWIDTH 32 0
BBX 28 28 2 0
BITMAP
003FC000
00FFF000
03E07C00
07800E00
0E000700
1C000380
38FFE1C0
30FFF8C0
60C07860
60C03860
E0C03C70
C0C03830
C0C03830
C0FFF030
C0FFF030
C0FFF030
C0C03830
E0C03870
60C03860
60C03860
30C038C0
38C039C0
1CC01F80
0E000700
07000E00
03E03C00
00FFF000
003FC000
ENDCHAR
STARTCHAR 00AF
ENCODING 175
SWIDTH 325 0
DWIDTH 13 0
BBX 11 3 1 25
BITMAP
FFE0
FFE0
FFE0
ENDCHAR
STARTCHAR 00B0
ENCODING 176
SWIDTH 600 0
DWIDTH 24 0
BBX 12 12 6 15
BITMAP
0F00
3FC0
70E0
E060
C030
C030
C030
C030
E060
70E0
3FC0
1F00
ENDCHAR
STARTCHAR 00B1
ENCODING 177
SWIDTH 575 0
DWIDTH 23 0
BBX 19 25 2 0
BITMAP
00E000
00E000
00E000
00E000
00E000
00E000
00E000
00E000
FFFFE0
FFFFE0
FFFFE0
00E000
00E000
00E000
00E000
00E000
00E000
00E000
00E000
000000
000000
000000
FFFFE0
FFFFE0
FFFFE0
ENDCHAR
STARTCHAR 00B2
ENCODING 178
SWIDTH 350 0
DWIDTH 14 0
BBX 12 16 1 16
BITMAP
1F80
3FE0
70E0
E030
C030
C030
0070
00E0
03C0
0F80
3E00
7000
E000
C000
FFF0
FFF0
ENDCHAR
STARTCHAR 00B3
ENCODING 179
SWIDTH 350 0
DWIDTH 14 0
BBX 11 18 1 15
BITMAP
3E00
7F80
E180
C0C0
C0C0
00C0
00C0
01C0
0F80
0FC0
00C0
0060
0060
C060
C060
E1C0
7F80
1F00
ENDCHAR
STARTCHAR 00B4
ENCODING 180
SWIDTH 325 0
DWIDTH 13 0
BBX 8 6 4 23
BITMAP
1F
1E
3C
38
70
E0
ENDCHAR
STARTCHAR 00B5
ENCODING 181
SWIDTH 550 0
DWIDTH 22 0
BBX 20 28 3 -7
BITMAP
F00780
F00780
F00780
F00780
F00780
F00780
F00780
F00780
F00780
F00780
F00780
F00780
F00780
F00780
F00F80
F00F80
F81F80
FC3F80
FFF7F0
FFE3F0
F7C1F0
F00000
F00000
F00000
F00000
F00000
F00000
F00000
ENDCHAR
STARTCHAR 00B6
ENCODING 182
SWIDTH 525 0
DWIDTH 21 0
BBX 19 36 1 -7
BITMAP
03FFE0
0FFFE0
1FFFE0
3FE180
7FE180
7FE180
FFE180
FFE180
FFE180
FFE180
FFE180
FFE180
FFE180
7FE180
7FE180
3FE180
1FE180
0FE180
00E180
006180
006180
006180
006180
006180
006180
006180
006180
006180
006180
006180
006180
006180
006180
006180
006180
006180
ENDCHAR
STARTCHAR 00B7
ENCODING 183
SWIDTH 250 0
DWIDTH 10 0
BBX 4 4 4 8
BITMAP
F0
F0
F0
F0
ENDCHAR
STARTCHAR 00B8
ENCODING 184
SWIDTH 325 0
DWIDTH 13 0
BBX 10 9 1 -9
BITMAP
0400
0C00
0C00
0F80
01C0
01C0
63C0
FF80
1F00
ENDCHAR
STARTCHAR 00B9
ENCODING 185
SWIDTH 350 0
DWIDTH 14 0
BBX 6 17 3 15
BITMAP
04
0C
1C
FC
FC
0C
0C
0C
0C
0C
0C
0C
0C
0C
0C
0C
0C
ENDCHAR
STARTCHAR 00BA
ENCODING 186
SWIDTH 375 0
DWIDTH 15 0
BBX 11 18 2 12
BITMAP
1F00
3F80
71C0
60C0
C060
C060
C060
C060
C060
C060
E0E0
71C0
3F80
1F00
0000
0000
FFE0
FFE0
ENDCHAR
STARTCHAR 00BB
ENCODING 187
SWIDTH 500 0
DWIDTH 20 0
BBX 14 13 3 5
BITMAP
8080
C0C0
E0E0
F0F8
3C3C
1C1C
0C0C
1C1C
7C3C
F0F8
E0E0
C0C0
8080
ENDCHAR
STARTCHAR 00BC
ENCODING 188
SWIDTH 875 0
DWIDTH 35 0
BBX 32 29 2 -1
BITMAP
040001C0
0C000180
1C000380
FC000700
FC000600
0C000E00
0C000C00
0C001800
0C003800
0C003000
0C006000
0C00E018
0C00C038
0C018038
0C038078
0C0300F8
000601D8
00060398
000C0398
00180718
00180E18
00301C18
00601FFF
00601FFF
00C00018
01800018
01800018
03000018
06000000
ENDCHAR
STARTCHAR 00BD
ENCODING 189
SWIDTH 875 0
DWIDTH 35 0
BBX 31 29 2 0
BITMAP
04000000
04000300
0C000700
1C000600
FC000C00
FC001C00
0C001800
0C003000
0C003000
0C006000
0C00C000
0C00C000
0C0181F0
0C0307FC
0C03071C
0C060E06
0C0C0C06
000C0C06
00180006
0030000C
0030003C
006000F8
004001E0
00C00380
01800700
01000E00
03000C00
06000FFE
04000FFE
ENDCHAR
STARTCHAR 00BE
ENCODING 190
SWIDTH 875 0
DWIDTH 35 0
BBX 32 30 1 -1
BITMAP
1F000000
7FC000C0
60E001C0
C0600180
C0600300
00600700
00E00600
0FC00E00
0FE00C00
00601800
00303800
00303000
C0306018
C070E038
60E0C038
7FC1C078
1F8380F8
000301D8
00070398
00060318
000C0718
001C0E18
00181C18
00381FFF
00701FFF
00600018
00E00018
01C00018
01800018
03800000
ENDCHAR
STARTCHAR 00BF
ENCODING 191
SWIDTH 550 0
DWIDTH 22 0
BBX 18 29 3 -8
BITMAP
01E000
01E000
01E000
01E000
000000
000000
000000
000000
01E000
01E000
01E000
01E000
03C000
07C000
0F8000
1F0000
3C0000
7C0000
780000
F00000
F003C0
F003C0
F003C0
F007C0
780780
7C1F80
3FFF00
1FFE00
07F000
ENDCHAR
STARTCHAR 00C0
ENCODING 192
SWIDTH 675 0
DWIDTH 27 0
BBX 25 36 1 0
BITMAP
01E00000
00F00000
00780000
001C0000
000E0000
00000000
00000000
003E0000
007E0000
007F0000
007F0000
00F70000
00F78000
00E78000
01E38000
01E3C000
01C3C000
03C1E000
03C1E000
0781E000
0780F000
0700F000
0F00F000
0F007800
0FFFF800
1FFFF800
1FFFFC00
1C003C00
3C003C00
3C001E00
38001E00
78001E00
78000F00
F0000F00
F0000F80
F0000780
ENDCHAR
STARTCHAR 00C1
ENCODING 193
SWIDTH 675 0
DWIDTH 27 0
BBX 25 36 1 0
BITMAP
00078000
000F0000
001E0000
003C0000
00700000
00000000
00000000
003E0000
007E0000
007F0000
007F0000
00F70000
00F78000
00E78000
01E38000
01E3C000
01C3C000
03C1E000
03C1E000
0781E000
0780F000
0700F000
0F00F000
0F007800
0FFFF800
1FFFF800
1FFFFC00
1C003C00
3C003C00
3C001E00
38001E00
78001E00
78000F00
F0000F00
F0000F80
F0000780
ENDCHAR
STARTCHAR 00C2
ENCODING 194
SWIDTH 675 0
DWIDTH 27 0
BBX 25 36 1 0
BITMAP
003E0000
003E0000
007F0000
00E38000
01C1C000
00000000
00000000
003E0000
007E0000
007F0000
007F0000
00F70000
00F78000
00E78000
01E38000
01E3C000
01C3C000
03C1E000
03C1E000
0781E000
0780F000
0700F000
0F00F000
0F007800
0FFFF800
1FFFF800
1FFFFC00
1C003C00
3C003C00
3C001E00
38001E00
78001E00
78000F00
F0000F00
F0000F80
F0000780
ENDCHAR
STARTCHAR 00C3
ENCODING 195
SWIDTH 675 0
DWIDTH 27 0
BBX 25 37 1 0
BITMAP
00E0C000
01F1C000
01FFC000
03BF8000
03070000
00000000
00000000
00000000
003E0000
007E0000
007F0000
007F0000
00F70000
00F78000
00E78000
01E38000
01E3C000
01C3C000
03C1E000
03C1E000
0781E000
0780F000
0700F000
0F00F000
0F007800
0FFFF800
1FFFF800
1FFFFC00
1C003C00
3C003C00
3C001E00
38001E00
78001E00
78000F00
F0000F00
F0000F80
F0000780
ENDCHAR
STARTCHAR 00C4
ENCODING 196
SWIDTH 675 0
DWIDTH 27 0
BBX 25 35 1 0
BITMAP
01E1E000
01E1E000
01E1E000
01E1E000
00000000
00000000
003E0000
007E0000
007F0000
007F0000
00F70000
00F78000
00E78000
01E38000
01E3C000
01C3C000
03C1E000
03C1E000
0781E000
0780F000
0700F000
0F00F000
0F007800
0FFFF800
1FFFF800
1FFFFC00
1C003C00
3C003C00
3C001E00
38001E00
78001E00
78000F00
F0000F00
F0000F80
F0000780
ENDCHAR
STARTCHAR 00C5
ENCODING 197
SWIDTH 675 0
DWIDTH 27 0
BBX 25 38 1 0
BITMAP
00380000
007E0000
00E60000
00C30000
00C30000
00C70000
00FE0000
007C0000
00000000
003E0000
007E0000
007F0000
007F0000
00F70000
00F78000
00E78000
01E38000
01E3C000
01C3C000
03C1E000
03C1E000
0781E000
0780F000
0700F000
0F00F000
0F007800
0FFFF800
1FFFF800
1FFFFC00
1C003C00
3C003C00
3C001E00
38001E00
78001E00
78000F00
F0000F00
F0000F80
F0000780
ENDCHAR
STARTCHAR 00C6
ENCODING 198
SWIDTH 975 0
DWIDTH 39 0
BBX 37 29 1 0
BITMAP
001FFFFFF0
001FFFFFF0
001FFFFFF0
003C3C0000
00383C0000
00783C0000
00783C0000
00703C0000
00F03C0000
00E03C0000
01E03C0000
01E03C0000
01C03C0000
03C03FFFE0
03803FFFE0
07803FFFE0
07803C0000
0FFFFC0000
0FFFFC0000
0FFFFC0000
1E003C0000
1E003C0000
3C003C0000
3C003C0000
3C003C0000
78003C0000
78003FFFF8
F0003FFFF8
F0003FFFF8
ENDCHAR
STARTCHAR 00C7
ENCODING 199
SWIDTH 700 0
DWIDTH 28 0
BBX 25 38 2 -9
BITMAP
007F8000
01FFE000
07FFF800
0FC0FC00
1F003C00
3E001E00
3C001E00
78000F00
78000F00
78000000
F0000000
F0000000
F0000000
F0000000
F0000000
F0000000
F0000000
F0000000
F0000780
78000780
78000F80
7C000F00
3C000F00
3E001E00
1F003E00
0FC0FC00
07FFF800
01FFF000
007F8000
00080000
00180000
00180000
001F0000
00038000
00038000
00C78000
00FF0000
003E0000
ENDCHAR
STARTCHAR 00C8
ENCODING 200
SWIDTH 625 0
DWIDTH 25 0
BBX 20 36 3 0
BITMAP
03C000
01E000
00F000
003800
001C00
000000
000000
FFFFF0
FFFFF0
FFFFF0
F00000
F00000
F00000
F00000
F00000
F00000
F00000
F00000
F00000
F00000
FFFFE0
FFFFE0
FFFFE0
F00000
F00000
F00000
F00000
F00000
F00000
F00000
F00000
F00000
F00000
FFFFF0
FFFFF0
FFFFF0
ENDCHAR
STARTCHAR 00C9
ENCODING 201
SWIDTH 625 0
DWIDTH 25 0
BBX 20 36 3 0
BITMAP
003C00
007800
00F000
01E000
038000
000000
000000
FFFFF0
FFFFF0
FFFFF0
F00000
F00000
F00000
F00000
F00000
F00000
F00000
F00000
F00000
F00000
FFFFE0
FFFFE0
FFFFE0
F00000
F00000
F00000
F00000
F00000
F00000
F00000
F00000
F00000
F00000
FFFFF0
FFFFF0
FFFFF0
ENDCHAR
STARTCHAR 00CA
ENCODING 202
SWIDTH 625 0
DWIDTH 25 0
BBX 20 36 3 0
BITMAP
00F800
00F800
01FC00
038E00
070700
000000
000000
FFFFF0
FFFFF0
FFFFF0
F00000
F00000
F00000
F00000
F00000
F00000
F00000
F00000
F00000
F00000
FFFFE0
FFFFE0
FFFFE0
F00000
F00000
F00000
F00000
F00000
F00000
F00000
F00000
F00000
F00000
FFFFF0
FFFFF0
FFFFF0
ENDCHAR
STARTCHAR 00CB
ENCODING 203
SWIDTH 625 0
DWIDTH 25 0
BBX 20 35 3 0
BITMAP
078780
078780
078780
078780
000000
000000
FFFFF0
FFFFF0
FFFFF0
F00000
F00000
F00000
F00000
F00000
F00000
F00000
F00000
F00000
F00000
FFFFE0
FFFFE0
FFFFE0
F00000
F00000
F00000
F00000
F00000
F00000
F00000
F00000
F00000
F00000
FFFFF0
FFFFF0
FFFFF0
ENDCHAR
STARTCHAR 00CC
ENCODING 204
SWIDTH 275 0
DWIDTH 11 0
BBX 8 36 1 0
BITMAP
F0
78
3C
0E
07
00
00
1E
1E
1E
1E
1E
1E
1E
1E
1E
1E
1E
1E
1E
1E
1E
1E
1E
1E
1E
1E
1E
1E
1E
1E
1E
1E
1E
1E
1E
ENDCHAR
STARTCHAR 00CD
ENCODING 205
SWIDTH 275 0
DWIDTH 11 0
BBX 8 36 2 0
BITMAP
0F
1E
3C
78
E0
00
00
3C
3C
3C
3C
3C
3C
3C
3C
3C
3C
3C
3C
3C
3C
3C
3C
3C
3C
3C
3C
3C
3C
3C
3C
3C
3C
3C
3C
3C
ENDCHAR
STARTCHAR 00CE
ENCODING 206
SWIDTH 300 0
DWIDTH 12 0
BBX 11 36 1 0
BITMAP
1F00
1F00
3F80
71C0
E0E0
0000
0000
1E00
1E00
1E00
1E00
1E00
1E00
1E00
1E00
1E00
1E00
1E00
1E00
1E00
1E00
1E00
1E00
1E00
1E00
1E00
1E00
1E00
1E00
1E00
1E00
1E00
1E00
1E00
1E00
1E00
ENDCHAR
STARTCHAR 00CF
ENCODING 207
SWIDTH 300 0
DWIDTH 12 0
BBX 12 35 0 0
BITMAP
F0F0
F0F0
F0F0
F0F0
0000
0000
0F00
0F00
0F00
0F00
0F00
0F00
0F00
0F00
0F00
0F00
0F00
0F00
0F00
0F00
0F00
0F00
0F00
0F00
0F00
0F00
0F00
0F00
0F00
0F00
0F00
0F00
0F00
0F00
0F00
ENDCHAR
STARTCHAR 00D0
ENCODING 208
SWIDTH 700 0
DWIDTH 28 0
BBX 25 29 2 0
BITMAP
3FFF8000
3FFFE000
3FFFF000
3C00FC00
3C007C00
3C003E00
3C001E00
3C000F00
3C000F00
3C000F00
3C000780
3C000780
3C000780
FFF00780
FFF00780
FFF00780
3C000780
3C000780
3C000780
3C000F80
3C000F00
3C000F00
3C001F00
3C001E00
3C003C00
3C00FC00
3FFFF800
3FFFE000
3FFF8000
ENDCHAR
STARTCHAR 00D1
ENCODING 209
SWIDTH 725 0
DWIDTH 29 0
BBX 23 36 3 1
BITMAP
01C180
03F380
07FF00
073F00
060E00
000000
000000
F8001E
F8001E
FC001E
FE001E
FE001E
FF001E
F7001E
F7801E
F3C01E
F3C01E
F1E01E
F0F01E
F0F01E
F0781E
F0781E
F03C1E
F01E1E
F01E1E
F00F1E
F0071E
F0079E
F003DE
F003DE
F001FE
F000FE
F000FE
F0007E
F0007E
F0003E
ENDCHAR
STARTCHAR 00D2
ENCODING 210
SWIDTH 775 0
DWIDTH 31 0
BBX 28 36 2 0
BITMAP
00F00000
00780000
003C0000
000E0000
00070000
00000000
00000000
003FC000
01FFF800
03FFFC00
0FE07F00
1F801F80
1E000780
3C0007C0
7C0003E0
780001E0
780001E0
F00001F0
F00000F0
F00000F0
F00000F0
F00000F0
F00000F0
F00000F0
F00000F0
F00001F0
780001E0
780001E0
7C0003E0
3C0003C0
1E000780
1F801F80
0FE07F00
03FFFC00
01FFF800
003FC000
ENDCHAR
STARTCHAR 00D3
ENCODING 211
SWIDTH 775 0
DWIDTH 31 0
BBX 28 36 2 0
BITMAP
0003C000
00078000
000F0000
001E0000
00380000
00000000
00000000
003FC000
01FFF800
03FFFC00
0FE07F00
1F801F80
1E000780
3C0007C0
7C0003E0
780001E0
780001E0
F00001F0
F00000F0
F00000F0
F00000F0
F00000F0
F00000F0
F00000F0
F00000F0
F00001F0
780001E0
780001E0
7C0003E0
3C0003C0
1E000780
1F801F80
0FE07F00
03FFFC00
01FFF800
003FC000
ENDCHAR
STARTCHAR 00D4
ENCODING 212
SWIDTH 775 0
DWIDTH 31 0
BBX 28 36 2 0
BITMAP
001F0000
001F0000
003F8000
0071C000
00E0E000
00000000
00000000
003FC000
01FFF800
03FFFC00
0FE07F00
1F801F80
1E000780
3C0007C0
7C0003E0
780001E0
780001E0
F00001F0
F00000F0
F00000F0
F00000F0
F00000F0
F00000F0
F00000F0
F00000F0
F00001F0
780001E0
780001E0
7C0003E0
3C0003C0
1E000780
1F801F80
0FE07F00
03FFFC00
01FFF800
003FC000
ENDCHAR
STARTCHAR 00D5
ENCODING 213
SWIDTH 775 0
DWIDTH 31 0
BBX 28 37 2 0
BITMAP
00206000
00F8E000
00FFE000
01DFC000
01C7C000
00000000
00000000
00000000
003FC000
01FFF800
03FFFC00
0FE07F00
1F801F80
1E000780
3C0007C0
7C0003E0
780001E0
780001E0
F00001F0
F00000F0
F00000F0
F00000F0
F00000F0
F00000F0
F00000F0
F00000F0
F00001F0
780001E0
780001E0
7C0003E0
3C0003C0
1E000780
1F801F80
0FE07F00
03FFFC00
01FFF800
003FC000
ENDCHAR
STARTCHAR 00D6
ENCODING 214
SWIDTH 775 0
DWIDTH 31 0
BBX 28 35 2 0
BITMAP
00F0F000
00F0F000
00F0F000
00F0F000
00000000
00000000
003FC000
01FFF800
03FFFC00
0FE07F00
1F801F80
1E000780
3C0007C0
7C0003E0
780001E0
780001E0
F00001F0
F00000F0
F00000F0
F00000F0
F00000F0
F00000F0
F00000F0
F00000F0
F00001F0
780001E0
780001E0
7C0003E0
3C0003C0
1E000780
1F801F80
0FE07F00
03FFFC00
01FFF800
003FC000
ENDCHAR
STARTCHAR 00D7
ENCODING 215
SWIDTH 575 0
DWIDTH 23 0
BBX 15 16 4 2
BITMAP
4004
E00E
F01E
783C
3C78
1EF0
0FE0
07C0
07C0
0FE0
1EF0
3C78
783C
F01E
600E
0004
ENDCHAR
STARTCHAR 00D8
ENCODING 216
SWIDTH 800 0
DWIDTH 32 0
BBX 28 30 2 0
BITMAP
00000020
003FC070
01FFF8E0
03FFFDC0
0FE07F80
1F801F00
1E000780
3E000FC0
7C001FC0
780039E0
780071E0
F000E1F0
F001C0F0
F00380F0
F00700F0
F00E00F0
F01C00F0
F03800F0
F07000F0
F86001F0
78C001E0
79C001E0
3F8003E0
3F0003C0
1E000780
1F801F80
3FE07F00
73FFFC00
E1FFF800
403FC000
ENDCHAR
STARTCHAR 00D9
ENCODING 217
SWIDTH 725 0
DWIDTH 29 0
BBX 23 36 3 0
BITMAP
03C000
01E000
00F000
003800
001C00
000000
000000
F0001E
F0001E
F0001E
F0001E
F0001E
F0001E
F0001E
F0001E
F0001E
F0001E
F0001E
F0001E
F0001E
F0001E
F0001E
F0001E
F0001E
F0001E
F0001E
F0001E
F0001E
F0001E
F0003E
78003C
7C007C
3F01F8
1FFFF0
07FFC0
01FF00
ENDCHAR
STARTCHAR 00DA
ENCODING 218
SWIDTH 725 0
DWIDTH 29 0
BBX 23 36 3 0
BITMAP
000F00
001E00
003C00
007800
00E000
000000
000000
F0001E
F0001E
F0001E
F0001E
F0001E
F0001E
F0001E
F0001E
F0001E
F0001E
F0001E
F0001E
F0001E
F0001E
F0001E
F0001E
F0001E
F0001E
F0001E
F0001E
F0001E
F0001E
F0003E
78003C
7C007C
3F01F8
1FFFF0
07FFC0
01FF00
ENDCHAR
STARTCHAR 00DB
ENCODING 219
SWIDTH 725 0
DWIDTH 29 0
BBX 23 36 3 0
BITMAP
007C00
007C00
00FE00
01C700
038380
000000
000000
F0001E
F0001E
F0001E
F0001E
F0001E
F0001E
F0001E
F0001E
F0001E
F0001E
F0001E
F0001E
F0001E
F0001E
F0001E
F0001E
F0001E
F0001E
F0001E
F0001E
F0001E
F0001E
F0003E
78003C
7C007C
3F01F8
1FFFF0
07FFC0
01FF00
ENDCHAR
STARTCHAR 00DC
ENCODING 220
SWIDTH 725 0
DWIDTH 29 0
BBX 23 35 3 0
BITMAP
03C3C0
03C3C0
03C3C0
03C3C0
000000
000000
F0001E
F0001E
F0001E
F0001E
F0001E
F0001E
F0001E
F0001E
F0001E
F0001E
F0001E
F0001E
F0001E
F0001E
F0001E
F0001E
F0001E
F0001E
F0001E
F0001E
F0001E
F0001E
F0003E
78003C
7C007C
3F01F8
1FFFF0
07FFC0
01FF00
ENDCHAR
STARTCHAR 00DD
ENCODING 221
SWIDTH 675 0
DWIDTH 27 0
BBX 26 36 1 0
BITMAP
00078000
000F0000
001E0000
003C0000
00700000
00000000
00000000
F80007C0
78000780
7C000F00
3E001F00
1E001E00
1F003E00
0F003C00
07807800
07C0F800
03C0F000
03E1E000
01E1E000
00F3C000
00FFC000
007F8000
003F0000
003F0000
001E0000
001E0000
001E0000
001E0000
001E0000
001E0000
001E0000
001E0000
001E0000
001E0000
001E0000
001E0000
ENDCHAR
STARTCHAR 00DE
ENCODING 222
SWIDTH 650 0
DWIDTH 26 0
BBX 21 29 3 0
BITMAP
F00000
F00000
F00000
F00000
F00000
FFFF00
FFFFC0
FFFFE0
F003F0
F000F0
F000F8
F00078
F00078
F00078
F00078
F000F8
F000F0
F003F0
FFFFE0
FFFFC0
FFFF00
F00000
F00000
F00000
F00000
F00000
F00000
F00000
F00000
ENDCHAR
STARTCHAR 00DF
ENCODING 223
SWIDTH 600 0
DWIDTH 24 0
BBX 20 29 3 0
BITMAP
03F800
1FFF00
3FFF80
7E0FC0
7803C0
F803E0
F001E0
F001E0
F001E0
F001E0
F003C0
F00780
F03F00
F03F00
F03FC0
F007E0
F001E0
F000F0
F000F0
F000F0
F000F0
F000F0
F000F0
F001E0
F003E0
F007C0
F1FF80
F1FF00
F0FC00
ENDCHAR
STARTCHAR 00E0
ENCODING 224
SWIDTH 550 0
DWIDTH 22 0
BBX 21 29 1 0
BITMAP
078000
03C000
01C000
00E000
006000
003000
000000
000000
03FC00
1FFF00
3FFF80
3E0FC0
7C03C0
7803C0
0003C0
0003C0
000FC0
03FFC0
1FFFC0
7FE3C0
7C03C0
F803C0
F003C0
F007C0
F00FC0
7C1FC0
7FFBF8
3FF1F8
0FC0F8
ENDCHAR
STARTCHAR 00E1
ENCODING 225
SWIDTH 550 0
DWIDTH 22 0
BBX 21 29 1 0
BITMAP
003C00
007800
007000
00E000
00C000
018000
000000
000000
03FC00
1FFF00
3FFF80
3E0FC0
7C03C0
7803C0
0003C0
0003C0
000FC0
03FFC0
1FFFC0
7FE3C0
7C03C0
F803C0
F003C0
F007C0
F00FC0
7C1FC0
7FFBF8
3FF1F8
0FC0F8
ENDCHAR
STARTCHAR 00E2
ENCODING 226
SWIDTH 550 0
DWIDTH 22 0
BBX 21 28 1 1
BITMAP
00F000
01F800
039C00
039C00
070E00
060600
000000
03FC00
1FFF00
3FFF80
3E0FC0
7C03C0
7803C0
0003C0
0003C0
000FC0
03FFC0
1FFFC0
7FE3C0
7C03C0
F803C0
F003C0
F007C0
F00FC0
7C1FC0
7FFBF8
3FF1F8
0FC0F8
ENDCHAR
STARTCHAR 00E3
ENCODING 227
SWIDTH 550 0
DWIDTH 22 0
BBX 21 30 1 0
BITMAP
030600
07C600
0FFE00
0EFE00
0C3C00
000000
000000
000000
000000
03FC00
1FFF00
3FFF80
3E0FC0
7C03C0
7803C0
0003C0
0003C0
000FC0
03FFC0
1FFFC0
7FE3C0
7C03C0
F803C0
F003C0
F007C0
F00FC0
7C1FC0
7FFBF8
3FF1F8
0FC0F8
ENDCHAR
STARTCHAR 00E4
ENCODING 228
SWIDTH 550 0
DWIDTH 22 0
BBX 21 28 1 1
BITMAP
0F0F00
0F0F00
0F0F00
0F0F00
000000
000000
000000
03FC00
1FFF00
3FFF80
3E0FC0
7C03C0
7803C0
0003C0
0003C0
000FC0
03FFC0
1FFFC0
7FE3C0
7C03C0
F803C0
F003C0
F007C0
F00FC0
7C1FC0
7FFBF8
3FF1F8
0FC0F8
ENDCHAR
STARTCHAR 00E5
ENCODING 229
SWIDTH 550 0
DWIDTH 22 0
BBX 21 30 1 0
BITMAP
01E000
03F000
031800
061800
061800
031800
03F800
01E000
000000
03FC00
1FFF00
3FFF80
3E0FC0
7C03C0
7803C0
0003C0
0003C0
000FC0
03FFC0
1FFFC0
7FE3C0
7C03C0
F803C0
F003C0
F007C0
F00FC0
7C1FC0
7FFBF8
3FF1F8
0FC0F8
ENDCHAR
STARTCHAR 00E6
ENCODING 230
SWIDTH 875 0
DWIDTH 35 0
BBX 33 21 1 0
BITMAP
03F80FE000
1FFE3FF800
3FFF7FFC00
3E07F03E00
7C03E01F00
7803C00F00
0003800780
0007800780
03FFFFFF80
1FFFFFFF80
3FF3FFFF80
7E03800000
F803800000
F003800000
F003C00700
F007C00F00
F00FE01F00
7C1EF87E00
7FF87FFC00
3FF03FF800
0FC00FE000
ENDCHAR
STARTCHAR 00E7
ENCODING 231
SWIDTH 500 0
DWIDTH 20 0
BBX 19 30 1 -9
BITMAP
03F800
0FFE00
1FFF80
3E0FC0
7C07C0
7803C0
7801E0
F00000
F00000
F00000
F00000
F00000
F00000
F001E0
7801E0
7803E0
7C07C0
3E0F80
1FFF80
0FFE00
03F800
008000
018000
018000
01F000
003800
003800
0C7800
0FF000
03E000
ENDCHAR
STARTCHAR 00E8
ENCODING 232
SWIDTH 525 0
DWIDTH 21 0
BBX 20 29 1 0
BITMAP
078000
03C000
01C000
00E000
007000
003000
000000
000000
01FC00
0FFF00
1FFF80
3E07C0
7C03E0
7801E0
F000E0
F000F0
FFFFF0
FFFFF0
FFFFF0
F00000
F00000
F00000
7800E0
7801E0
7C03E0
3F07C0
1FFF80
0FFF00
01FC00
ENDCHAR
STARTCHAR 00E9
ENCODING 233
SWIDTH 525 0
DWIDTH 21 0
BBX 20 29 1 0
BITMAP
001E00
003C00
007800
007000
00E000
00C000
000000
000000
01FC00
0FFF00
1FFF80
3E07C0
7C03E0
7801E0
F000E0
F000F0
FFFFF0
FFFFF0
FFFFF0
F00000
F00000
F00000
7800E0
7801E0
7C03E0
3F07C0
1FFF80
0FFF00
01FC00
ENDCHAR
STARTCHAR 00EA
ENCODING 234
SWIDTH 525 0
DWIDTH 21 0
BBX 20 28 1 1
BITMAP
00F000
01F800
039C00
039C00
070E00
060600
000000
01FC00
0FFF00
1FFF80
3E07C0
7C03E0
7801E0
F000E0
F000F0
FFFFF0
FFFFF0
FFFFF0
F00000
F00000
F00000
7800E0
7801E0
7C03E0
3F07C0
1FFF80
0FFF00
01FC00
ENDCHAR
STARTCHAR 00EB
ENCODING 235
SWIDTH 525 0
DWIDTH 21 0
BBX 20 28 1 1
BITMAP
0F0F00
0F0F00
0F0F00
0F0F00
000000
000000
000000
01FC00
0FFF00
1FFF80
3E07C0
7C03E0
7801E0
F000E0
F000F0
FFFFF0
FFFFF0
FFFFF0
F00000
F00000
F00000
7800E0
7801E0
7C03E0
3F07C0
1FFF80
0FFF00
01FC00
ENDCHAR
STARTCHAR 00EC
ENCODING 236
SWIDTH 225 0
DWIDTH 9 0
BBX 7 29 1 0
BITMAP
F0
70
38
3C
1C
0E
00
00
3C
3C
3C
3C
3C
3C
3C
3C
3C
3C
3C
3C
3C
3C
3C
3C
3C
3C
3C
3C
3C
ENDCHAR
STARTCHAR 00ED
ENCODING 237
SWIDTH 225 0
DWIDTH 9 0
BBX 7 29 1 0
BITMAP
1E
1C
38
78
70
E0
00
00
3C
3C
3C
3C
3C
3C
3C
3C
3C
3C
3C
3C
3C
3C
3C
3C
3C
3C
3C
3C
3C
ENDCHAR
STARTCHAR 00EE
ENCODING 238
SWIDTH 250 0
DWIDTH 10 0
BBX 11 28 0 1
BITMAP
1F00
3F00
3B80
7180
E1C0
C0E0
0000
0F00
0F00
0F00
0F00
0F00
0F00
0F00
0F00
0F00
0F00
0F00
0F00
0F00
0F00
0F00
0F00
0F00
0F00
0F00
0F00
0F00
ENDCHAR
STARTCHAR 00EF
ENCODING 239
SWIDTH 250 0
DWIDTH 10 0
BBX 12 28 0 1
BITMAP
F0F0
F0F0
F0F0
F0F0
0000
0000
0000
0F00
0F00
0F00
0F00
0F00
0F00
0F00
0F00
0F00
0F00
0F00
0F00
0F00
0F00
0F00
0F00
0F00
0F00
0F00
0F00
0F00
ENDCHAR
STARTCHAR 00F0
ENCODING 240
SWIDTH 525 0
DWIDTH 21 0
BBX 20 29 1 1
BITMAP
0C0000
3F1C00
0FF800
03E000
0FF000
1EF800
083C00
001E00
03FF00
0FFF80
1FFFC0
3E0FC0
7C03E0
7801E0
7801E0
F000F0
F000F0
F000F0
F000F0
F000F0
F000F0
F000F0
7801E0
7801E0
7C03E0
3E0FC0
1FFF80
0FFF00
03FC00
ENDCHAR
STARTCHAR 00F1
ENCODING 241
SWIDTH 525 0
DWIDTH 21 0
BBX 18 30 2 0
BITMAP
000E00
0F8C00
1FFC00
1FFC00
187800
000000
000000
000000
000000
E1FC00
E7FF00
EFFF80
FE0FC0
FC07C0
F803C0
F803C0
F003C0
F003C0
F003C0
F003C0
F003C0
F003C0
F003C0
F003C0
F003C0
F003C0
F003C0
F003C0
F003C0
F003C0
ENDCHAR
STARTCHAR 00F2
ENCODING 242
SWIDTH 525 0
DWIDTH 21 0
BBX 20 29 1 0
BITMAP
078000
03C000
01C000
00E000
007000
003000
000000
000000
03FC00
0FFF00
1FFF80
3E0FC0
7C03E0
7801E0
7801E0
F000F0
F000F0
F000F0
F000F0
F000F0
F000F0
F000F0
7801E0
7801E0
7C03E0
3E0FC0
1FFF80
0FFF00
03FC00
ENDCHAR
STARTCHAR 00F3
ENCODING 243
SWIDTH 525 0
DWIDTH 21 0
BBX 20 29 1 0
BITMAP
003C00
003800
007800
00F000
00E000
01C000
000000
000000
03FC00
0FFF00
1FFF80
3E0FC0
7C03E0
7801E0
7801E0
F000F0
F000F0
F000F0
F000F0
F000F0
F000F0
F000F0
7801E0
7801E0
7C03E0
3E0FC0
1FFF80
0FFF00
03FC00
ENDCHAR
STARTCHAR 00F4
ENCODING 244
SWIDTH 525 0
DWIDTH 21 0
BBX 20 29 1 0
BITMAP
00E000
01F000
03F800
03B800
071C00
060C00
000000
000000
03FC00
0FFF00
1FFF80
3E0FC0
7C03E0
7801E0
7801E0
F000F0
F000F0
F000F0
F000F0
F000F0
F000F0
F000F0
7801E0
7801E0
7C03E0
3E0FC0
1FFF80
0FFF00
03FC00
ENDCHAR
STARTCHAR 00F5
ENCODING 245
SWIDTH 525 0
DWIDTH 21 0
BBX 20 30 1 0
BITMAP
020600
07C600
0FFE00
0DFE00
0C3C00
000000
000000
000000
000000
03FC00
0FFF00
1FFF80
3E0FC0
7C03E0
7801E0
7801E0
F000F0
F000F0
F000F0
F000F0
F000F0
F000F0
F000F0
7801E0
7801E0
7C03E0
3E0FC0
1FFF80
0FFF00
03FC00
ENDCHAR
STARTCHAR 00F6
ENCODING 246
SWIDTH 525 0
DWIDTH 21 0
BBX 20 29 1 0
BITMAP
0F0F00
0F0F00
0F0F00
0F0F00
000000
000000
000000
000000
03FC00
0FFF00
1FFF80
3E0FC0
7C03E0
7801E0
7801E0
F000F0
F000F0
F000F0
F000F0
F000F0
F000F0
F000F0
7801E0
7801E0
7C03E0
3E0FC0
1FFF80
0FFF00
03FC00
ENDCHAR
STARTCHAR 00F7
ENCODING 247
SWIDTH 575 0
DWIDTH 23 0
BBX 19 19 2 0
BITMAP
00F000
00F000
00F000
00F000
000000
000000
000000
000000
FFFFE0
FFFFE0
FFFFE0
000000
000000
000000
000000
00F000
00F000
00F000
00F000
ENDCHAR
STARTCHAR 00F8
ENCODING 248
SWIDTH 525 0
DWIDTH 21 0
BBX 20 22 1 -2
BITMAP
03F810
0FFE30
1FFFE0
3E0FC0
7C03C0
7803E0
7807E0
F00CF0
F018F0
F030F0
F060F0
F0C0F0
F180F0
F300F0
7E01E0
7C01E0
3C03E0
3F0FC0
7FFF80
67FF00
C1FC00
800000
ENDCHAR
STARTCHAR 00F9
ENCODING 249
SWIDTH 525 0
DWIDTH 21 0
BBX 18 29 2 0
BITMAP
1F0000
0F0000
078000
03C000
01C000
00E000
000000
000000
F003C0
F003C0
F003C0
F003C0
F003C0
F003C0
F003C0
F003C0
F003C0
F003C0
F003C0
F003C0
F003C0
F003C0
F007C0
F007C0
F80FC0
FC1FC0
7FFDC0
3FF9C0
0FE1C0
ENDCHAR
STARTCHAR 00FA
ENCODING 250
SWIDTH 525 0
DWIDTH 21 0
BBX 18 29 2 0
BITMAP
003C00
007800
007000
00E000
01C000
018000
000000
000000
F003C0
F003C0
F003C0
F003C0
F003C0
F003C0
F003C0
F003C0
F003C0
F003C0
F003C0
F003C0
F003C0
F003C0
F007C0
F007C0
F80FC0
FC1FC0
7FFDC0
3FF9C0
0FE1C0
ENDCHAR
STARTCHAR 00FB
ENCODING 251
SWIDTH 525 0
DWIDTH 21 0
BBX 18 29 2 0
BITMAP
01E000
03E000
03F000
077000
0E3800
0C1C00
000000
000000
F003C0
F003C0
F003C0
F003C0
F003C0
F003C0
F003C0
F003C0
F003C0
F003C0
F003C0
F003C0
F003C0
F003C0
F007C0
F007C0
F80FC0
FC1FC0
7FFDC0
3FF9C0
0FE1C0
ENDCHAR
STARTCHAR 00FC
ENCODING 252
SWIDTH 525 0
DWIDTH 21 0
BBX 18 29 2 0
BITMAP
1E1E00
1E1E00
1E1E00
1E1E00
000000
000000
000000
000000
F003C0
F003C0
F003C0
F003C0
F003C0
F003C0
F003C0
F003C0
F003C0
F003C0
F003C0
F003C0
F003C0
F003C0
F007C0
F007C0
F80FC0
FC1FC0
7FFDC0
3FF9C0
0FE1C0
ENDCHAR
STARTCHAR 00FD
ENCODING 253
SWIDTH 475 0
DWIDTH 19 0
BBX 18 38 1 -9
BITMAP
003C00
007800
007000
00E000
01C000
018000
000000
000000
E003C0
E00380
F00780
700700
700700
780F00
380E00
381E00
3C1E00
1C1C00
1C3C00
1E3C00
0E3800
0E7800
0F7000
077000
07F000
07E000
03E000
03E000
03C000
03C000
03C000
038000
078000
070000
0F0000
7F0000
7E0000
780000
ENDCHAR
STARTCHAR 00FE
ENCODING 254
SWIDTH 550 0
DWIDTH 22 0
BBX 20 35 2 -7
BITMAP
F00000
F00000
F00000
F00000
F00000
F00000
F00000
F1FC00
F3FF00
FFFF80
FF0FC0
FC03E0
F801E0
F801E0
F000F0
F000F0
F000F0
F000F0
F000F0
F000F0
F000F0
F801E0
F801E0
FC03E0
FE0FC0
FFFF80
F3FF00
F0FC00
F00000
F00000
F00000
F00000
F00000
F00000
F00000
ENDCHAR
STARTCHAR 00FF
ENCODING 255
SWIDTH 475 0
DWIDTH 19 0
BBX 18 38 1 -9
BITMAP
1E1E00
1E1E00
1E1E00
1E1E00
000000
000000
000000
000000
E003C0
E00380
F00780
700700
700700
780F00
380E00
381E00
3C1E00
1C1C00
1C3C00
1E3C00
0E3800
0E7800
0F7000
077000
07F000
07E000
03E000
03E000
03C000
03C000
03C000
038000
078000
070000
0F0000
7F0000
7E0000
780000
ENDCHAR
STARTCHAR 0100
ENCODING 256
SWIDTH 675 0
DWIDTH 27 0
BBX 25 35 1 0
BITMAP
01FFC000
01FFC000
01FFC000
00000000
00000000
00000000
003E0000
007E0000
007F0000
007F0000
00F70000
00F78000
00E78000
01E38000
01E3C000
01C3C000
03C1E000
03C1E000
0781E000
0780F000
0700F000
0F00F000
0F007800
0FFFF800
1FFFF800
1FFFFC00
1C003C00
3C003C00
3C001E00
38001E00
78001E00
78000F00
F0000F00
F0000F80
F0000780
ENDCHAR
STARTCHAR 0101
ENCODING 257
SWIDTH 550 0
DWIDTH 22 0
BBX 21 27 1 1
BITMAP
0FFE00
0FFE00
0FFE00
000000
000000
000000
03FC00
1FFF00
3FFF80
3E0FC0
7C03C0
7803C0
0003C0
0003C0
000FC0
03FFC0
1FFFC0
7FE3C0
7C03C0
F803C0
F003C0
F007C0
F00FC0
7C1FC0
7FFBF8
3FF1F8
0FC0F8
ENDCHAR
STARTCHAR 0102
ENCODING 258
SWIDTH 675 0
DWIDTH 27 0
BBX 25 36 1 0
BITMAP
0180C000
01C1C000
01FF8000
00FF8000
007F0000
00000000
00000000
003E0000
007E0000
007F0000
007F0000
00F70000
00F78000
00E78000
01E38000
01E3C000
01C3C000
03C1E000
03C1E000
0781E000
0780F000
0700F000
0F00F000
0F007800
0FFFF800
1FFFF800
1FFFFC00
1C003C00
3C003C00
3C001E00
38001E00
78001E00
78000F00
F0000F00
F0000F80
F0000780
ENDCHAR
STARTCHAR 0103
ENCODING 259
SWIDTH 550 0
DWIDTH 22 0
BBX 21 29 1 0
BITMAP
0C0600
060600
07FE00
03FC00
01F800
000000
000000
000000
03FC00
1FFF00
3FFF80
3E0FC0
7C03C0
7803C0
0003C0
0003C0
000FC0
03FFC0
1FFFC0
7FE3C0
7C03C0
F803C0
F003C0
F007C0
F00FC0
7C1FC0
7FFBF8
3FF1F8
0FC0F8
ENDCHAR
STARTCHAR 0104
ENCODING 260
SWIDTH 675 0
DWIDTH 27 0
BBX 26 37 1 -8
BITMAP
003E0000
007E0000
007E0000
007F0000
00F70000
00F78000
01F78000
01E38000
01E3C000
03C3C000
03C1C000
03C1E000
0781E000
0780E000
0780F000
0F00F000
0F007000
1FFFF800
1FFFF800
1FFFF800
3C003C00
3C003C00
3C003E00
78001E00
78001E00
78001F00
F0000F00
F0000F00
F0000F80
00000700
00001C00
00003800
00003800
00003800
00003C00
00001FC0
000007C0
ENDCHAR
STARTCHAR 0105
ENCODING 261
SWIDTH 550 0
DWIDTH 22 0
BBX 22 29 1 -8
BITMAP
03FC00
1FFF00
3FFF80
3E0FC0
7C03C0
7803C0
0003C0
0003C0
000FC0
03FFC0
1FFFC0
7FE3C0
7C03C0
F803C0
F003C0
F007C0
F007C0
781FC0
7FFFF8
3FF1F8
0FC0F8
0000E0
0001C0
000380
000380
000380
0003C0
0001FC
00007C
ENDCHAR
STARTCHAR 0106
ENCODING 262
SWIDTH 700 0
DWIDTH 28 0
BBX 25 36 2 0
BITMAP
00078000
000F0000
001E0000
003C0000
00700000
00000000
00000000
007F8000
01FFE000
07FFF800
0FC0FC00
1F003C00
3E001E00
3C001E00
78000F00
78000F00
78000000
F0000000
F0000000
F0000000
F0000000
F0000000
F0000000
F0000000
F0000000
F0000780
78000780
78000F80
78000F00
3C000F00
3E001E00
1F003E00
0FC0FC00
07FFF800
03FFF000
007F8000
ENDCHAR
STARTCHAR 0107
ENCODING 263
SWIDTH 500 0
DWIDTH 20 0
BBX 19 29 1 0
BITMAP
003C00
003800
007000
00F000
00E000
01C000
000000
000000
03F800
0FFF00
1FFF80
3E0FC0
7C03C0
7803C0
7801E0
F00000
F00000
F00000
F00000
F00000
F00000
F001E0
7801E0
7803C0
7C03C0
3E0F80
1FFF80
0FFE00
03F800
ENDCHAR
STARTCHAR 0108
ENCODING 264
SWIDTH 700 0
DWIDTH 28 0
BBX 25 36 2 0
BITMAP
003E0000
003E0000
007F0000
00E38000
01C1C000
00000000
00000000
007F8000
01FFE000
07FFF800
0FC0FC00
1F003C00
3E001E00
3C001E00
78000F00
78000F00
78000000
F0000000
F0000000
F0000000
F0000000
F0000000
F0000000
F0000000
F0000000
F0000780
78000780
78000F80
78000F00
3C000F00
3E001E00
1F003E00
0FC0FC00
07FFF800
03FFF000
007F8000
ENDCHAR
STARTCHAR 0109
ENCODING 265
SWIDTH 500 0
DWIDTH 20 0
BBX 19 28 1 0
BITMAP
01E000
01F000
03F800
03B800
071C00
0E0C00
000000
03F800
0FFF00
1FFF80
3E0FC0
7C03C0
7803C0
7801E0
F00000
F00000
F00000
F00000
F00000
F00000
F001E0
7801E0
7803C0
7C03C0
3E0F80
1FFF80
0FFE00
03F800
ENDCHAR
STARTCHAR 010A
ENCODING 266
SWIDTH 700 0
DWIDTH 28 0
BBX 25 35 2 1
BITMAP
000F0000
000F0000
000F0000
000F0000
00000000
00000000
007F8000
01FFE000
07FFF800
0FC0FC00
1F003C00
3E001E00
3C001E00
78000F00
78000F00
78000000
F0000000
F0000000
F0000000
F0000000
F0000000
F0000000
F0000000
F0000000
F0000780
78000780
78000F80
78000F00
3C000F00
3E001E00
1F003E00
0FC0FC00
07FFF800
03FFF000
007F8000
ENDCHAR
STARTCHAR 010B
ENCODING 267
SWIDTH 500 0
DWIDTH 20 0
BBX 19 29 1 0
BITMAP
00F000
00F000
00F000
00F000
000000
000000
000000
000000
03F800
0FFF00
1FFF80
3E0FC0
7C03C0
7803C0
7801E0
F00000
F00000
F00000
F00000
F00000
F00000
F001E0
7801E0
7803C0
7C03C0
3E0F80
1FFF80
0FFE00
03F800
ENDCHAR
STARTCHAR 010C
ENCODING 268
SWIDTH 700 0
DWIDTH 28 0
BBX 25 36 2 0
BITMAP
00E0E000
0071C000
003F8000
001F0000
001F0000
00000000
00000000
007F8000
01FFE000
07FFF800
0FC0FC00
1F003C00
3E001E00
3C001E00
78000F00
78000F00
78000000
F0000000
F0000000
F0000000
F0000000
F0000000
F0000000
F0000000
F0000000
F0000780
78000780
78000F80
78000F00
3C000F00
3E001E00
1F003E00
0FC0FC00
07FFF800
03FFF000
007F8000
ENDCHAR
STARTCHAR 010D
ENCODING 269
SWIDTH 500 0
DWIDTH 20 0
BBX 19 29 1 0
BITMAP
0E0600
060C00
071C00
03B800
01F800
01F000
000000
000000
03F800
0FFF00
1FFF80
3E0FC0
7C03C0
7803C0
7801E0
F00000
F00000
F00000
F00000
F00000
F00000
F001E0
7801E0
7803C0
7C03C0
3E0F80
1FFF80
0FFE00
03F800
ENDCHAR
STARTCHAR 010E
ENCODING 270
SWIDTH 700 0
DWIDTH 28 0
BBX 24 36 3 0
BITMAP
070700
038E00
01FC00
00F800
00F800
000000
000000
FFFE00
FFFFC0
FFFFE0
F003F0
F000F8
F0007C
F0003C
F0001E
F0001E
F0001E
F0000F
F0000F
F0000F
F0000F
F0000F
F0000F
F0000F
F0000F
F0000F
F0001E
F0001E
F0001E
F0003C
F0007C
F000F8
F003F0
FFFFE0
FFFFC0
FFFE00
ENDCHAR
STARTCHAR 010F
ENCODING 271
SWIDTH 750 0
DWIDTH 30 0
BBX 28 29 1 0
BITMAP
0000F1F0
0000F1E0
0000F1C0
0000F380
0000F300
0000F600
0000F000
0000F000
03F8F000
0FFCF000
1FFEF000
3F0FF000
7C03F000
7801F000
7801F000
F000F000
F000F000
F000F000
F000F000
F000F000
F000F000
F000F000
7801F000
7801F000
7C03F000
3F07F000
1FFF7000
0FFE7000
03F87000
ENDCHAR
STARTCHAR 0110
ENCODING 272
SWIDTH 700 0
DWIDTH 28 0
BBX 25 29 2 0
BITMAP
3FFF8000
3FFFE000
3FFFF000
3C00FC00
3C007C00
3C003E00
3C001E00
3C000F00
3C000F00
3C000F00
3C000780
3C000780
3C000780
FFF00780
FFF00780
FFF00780
3C000780
3C000780
3C000780
3C000F80
3C000F00
3C000F00
3C001F00
3C001E00
3C003C00
3C00FC00
3FFFF800
3FFFE000
3FFF8000
ENDCHAR
STARTCHAR 0111
ENCODING 273
SWIDTH 575 0
DWIDTH 23 0
BBX 22 29 1 0
BITMAP
0000F0
0000F0
0000F0
001FFC
001FFC
0000F0
0000F0
0000F0
03F0F0
0FFCF0
1FFFF0
3F0FF0
7C03F0
7801F0
7801F0
F000F0
F000F0
F000F0
F000F0
F000F0
F000F0
F000F0
7801F0
7801F0
7C03F0
3F07F0
1FFF70
0FFE70
03F870
ENDCHAR
STARTCHAR 0112
ENCODING 274
SWIDTH 625 0
DWIDTH 25 0
BBX 20 35 3 0
BITMAP
07FF00
07FF00
07FF00
000000
000000
000000
FFFFF0
FFFFF0
FFFFF0
F00000
F00000
F00000
F00000
F00000
F00000
F00000
F00000
F00000
F00000
FFFFE0
FFFFE0
FFFFE0
F00000
F00000
F00000
F00000
F00000
F00000
F00000
F00000
F00000
F00000
FFFFF0
FFFFF0
FFFFF0
ENDCHAR
STARTCHAR 0113
ENCODING 275
SWIDTH 525 0
DWIDTH 21 0
BBX 20 27 1 1
BITMAP
07FF00
07FF00
07FF00
000000
000000
000000
01FC00
0FFF00
1FFF80
3E07C0
7C03E0
7801E0
F000E0
F000F0
FFFFF0
FFFFF0
FFFFF0
F00000
F00000
F00000
7800E0
7801E0
7C03E0
3F07C0
1FFF80
0FFF00
01FC00
ENDCHAR
STARTCHAR 0114
ENCODING 276
SWIDTH 625 0
DWIDTH 25 0
BBX 20 36 3 0
BITMAP
060300
070700
03FF00
03FE00
01FC00
000000
000000
FFFFF0
FFFFF0
FFFFF0
F00000
F00000
F00000
F00000
F00000
F00000
F00000
F00000
F00000
F00000
FFFFE0
FFFFE0
FFFFE0
F00000
F00000
F00000
F00000
F00000
F00000
F00000
F00000
F00000
F00000
FFFFF0
FFFFF0
FFFFF0
ENDCHAR
STARTCHAR 0115
ENCODING 277
SWIDTH 525 0
DWIDTH 21 0
BBX 20 29 1 0
BITMAP
060700
060600
07FE00
03FC00
01F800
000000
000000
000000
01FC00
0FFF00
1FFF80
3E07C0
7C03E0
7801E0
F000E0
F000F0
FFFFF0
FFFFF0
FFFFF0
F00000
F00000
F00000
7800E0
7801E0
7C03E0
3F07C0
1FFF80
0FFF00
01FC00
ENDCHAR
STARTCHAR 0116
ENCODING 278
SWIDTH 625 0
DWIDTH 25 0
BBX 20 35 3 1
BITMAP
007800
007800
007800
007800
000000
000000
FFFFF0
FFFFF0
FFFFF0
F00000
F00000
F00000
F00000
F00000
F00000
F00000
F00000
F00000
F00000
FFFFE0
FFFFE0
FFFFE0
F00000
F00000
F00000
F00000
F00000
F00000
F00000
F00000
F00000
F00000
FFFFF0
FFFFF0
FFFFF0
ENDCHAR
STARTCHAR 0117
ENCODING 279
SWIDTH 525 0
DWIDTH 21 0
BBX 20 29 1 0
BITMAP
007800
007800
007800
007800
000000
000000
000000
000000
01FC00
0FFF00
1FFF80
3E07C0
7C03E0
7801E0
F000E0
F000F0
FFFFF0
FFFFF0
FFFFF0
F00000
F00000
F00000
7800E0
7801E0
7C03E0
3F07C0
1FFF80
0FFF00
01FC00
ENDCHAR
STARTCHAR 0118
ENCODING 280
SWIDTH 650 0
DWIDTH 26 0
BBX 22 37 3 -8
BITMAP
FFFFF0
FFFFF0
FFFFF0
F00000
F00000
F00000
F00000
F00000
F00000
F00000
F00000
F00000
F00000
FFFFE0
FFFFE0
FFFFE0
F00000
F00000
F00000
F00000
F00000
F00000
F00000
F00000
F00000
F00000
FFFFF0
FFFFF0
FFFFF0
000060
0001C0
000380
000380
000380
0003C0
0001FC
00007C
ENDCHAR
STARTCHAR 0119
ENCODING 281
SWIDTH 525 0
DWIDTH 21 0
BBX 20 29 1 -8
BITMAP
03FC00
0FFF00
1FFF80
3E07C0
7C03E0
7801E0
7000E0
F000F0
FFFFF0
FFFFF0
FFFFF0
F00000
F00000
F00000
7800E0
7801E0
7C03E0
3F07C0
1FFF80
0FFF00
03FE00
000C00
001C00
003800
003800
003800
003C00
001FE0
0007E0
ENDCHAR
STARTCHAR 011A
ENCODING 282
SWIDTH 625 0
DWIDTH 25 0
BBX 20 36 3 0
BITMAP
070700
038E00
01FC00
00F800
00F800
000000
000000
FFFFF0
FFFFF0
FFFFF0
F00000
F00000
F00000
F00000
F00000
F00000
F00000
F00000
F00000
F00000
FFFFE0
FFFFE0
FFFFE0
F00000
F00000
F00000
F00000
F00000
F00000
F00000
F00000
F00000
F00000
FFFFF0
FFFFF0
FFFFF0
ENDCHAR
STARTCHAR 011B
ENCODING 283
SWIDTH 525 0
DWIDTH 21 0
BBX 20 29 1 0
BITMAP
060700
030600
038E00
01DC00
01F800
00F800
000000
000000
01FC00
0FFF00
1FFF80
3E07C0
7C03E0
7801E0
F000E0
F000F0
FFFFF0
FFFFF0
FFFFF0
F00000
F00000
F00000
7800E0
7801E0
7C03E0
3F07C0
1FFF80
0FFF00
01FC00
ENDCHAR
STARTCHAR 011C
ENCODING 284
SWIDTH 775 0
DWIDTH 31 0
BBX 27 36 2 0
BITMAP
001F0000
001F0000
003F8000
0071C000
00E0E000
00000000
00000000
003FE000
01FFF800
07FFFE00
0FE03F00
1F800F80
1E0007C0
3C0003C0
7C0003E0
780001E0
78000000
F0000000
F0000000
F0000000
F001FFE0
F001FFE0
F001FFE0
F00001E0
F00001E0
780001E0
780001E0
780003E0
3C0003E0
3E0007E0
1F0007E0
0F801FE0
0FE07DE0
03FFF8E0
01FFF0E0
003F8060
ENDCHAR
STARTCHAR 011D
ENCODING 285
SWIDTH 550 0
DWIDTH 22 0
BBX 19 37 1 -8
BITMAP
00F000
01F800
01DC00
039C00
030E00
060600
000000
03F1E0
0FFDE0
1FFFE0
3E0FE0
7C07E0
7803E0
7803E0
F001E0
F001E0
F001E0
F001E0
F001E0
F001E0
F001E0
7803E0
7803E0
7C07E0
3E0FE0
1FFDE0
0FF9E0
03F1E0
0001E0
0001E0
0003C0
7803C0
7C07C0
3E0F80
3FFF80
0FFF00
03F800
ENDCHAR
STARTCHAR 011E
ENCODING 286
SWIDTH 775 0
DWIDTH 31 0
BBX 27 36 2 0
BITMAP
00C06000
00E0E000
00FFC000
007FC000
003F8000
00000000
00000000
003FE000
01FFF800
07FFFE00
0FE03F00
1F800F80
1E0007C0
3C0003C0
7C0003E0
780001E0
78000000
F0000000
F0000000
F0000000
F001FFE0
F001FFE0
F001FFE0
F00001E0
F00001E0
780001E0
780001E0
780003E0
3C0003E0
3E0007E0
1F0007E0
0F801FE0
0FE07DE0
03FFF8E0
01FFF0E0
003F8060
ENDCHAR
STARTCHAR 011F
ENCODING 287
SWIDTH 550 0
DWIDTH 22 0
BBX 19 38 1 -9
BITMAP
0C0600
0E0E00
0FFC00
07FC00
03F000
000000
000000
000000
03F1E0
0FFDE0
1FFFE0
3E0FE0
7C07E0
7803E0
7803E0
F001E0
F001E0
F001E0
F001E0
F001E0
F001E0
F001E0
7803E0
7803E0
7C07E0
3E0FE0
1FFDE0
0FF9E0
03F1E0
0001E0
0001E0
0003C0
7803C0
7C07C0
3E0F80
3FFF80
0FFF00
03F800
ENDCHAR
STARTCHAR 0120
ENCODING 288
SWIDTH 775 0
DWIDTH 31 0
BBX 27 35 2 1
BITMAP
000F0000
000F0000
000F0000
000F0000
00000000
00000000
003FE000
01FFF800
07FFFE00
0FE03F00
1F800F80
1E0007C0
3C0003C0
7C0003E0
780001E0
78000000
F0000000
F0000000
F0000000
F001FFE0
F001FFE0
F001FFE0
F00001E0
F00001E0
780001E0
780001E0
780003E0
3C0003E0
3E0007E0
1F0007E0
0F801FE0
0FE07DE0
03FFF8E0
01FFF0E0
003F8060
ENDCHAR
STARTCHAR 0121
ENCODING 289
SWIDTH 550 0
DWIDTH 22 0
BBX 19 38 1 -9
BITMAP
00F000
00F000
00F000
00F000
000000
000000
000000
000000
03F1E0
0FFDE0
1FFFE0
3E0FE0
7C07E0
7803E0
7803E0
F001E0
F001E0
F001E0
F001E0
F001E0
F001E0
F001E0
7803E0
7803E0
7C07E0
3E0FE0
1FFDE0
0FF9E0
03F1E0
0001E0
0001E0
0003C0
7803C0
7C07C0
3E0F80
3FFF80
0FFF00
03F800
ENDCHAR
STARTCHAR 0122
ENCODING 290
SWIDTH 775 0
DWIDTH 31 0
BBX 27 41 2 -12
BITMAP
003FE000
01FFF800
07FFFE00
0FE03F00
1F800F80
1E0007C0
3C0003C0
7C0003E0
780001E0
78000000
F0000000
F0000000
F0000000
F001FFE0
F001FFE0
F001FFE0
F00001E0
F00001E0
780001E0
780001E0
780003E0
3C0003E0
3E0007E0
1F0007E0
0F801FE0
0FE07DE0
03FFF8E0
01FFF0E0
003F8060
00000000
00000000
00000000
001E0000
001E0000
001E0000
001E0000
00060000
00060000
000E0000
001C0000
00180000
ENDCHAR
STARTCHAR 0123
ENCODING 291
SWIDTH 550 0
DWIDTH 22 0
BBX 19 39 1 -9
BITMAP
00E000
01E000
010000
01E000
01E000
01E000
000000
000000
000000
03F1E0
0FFDE0
1FFFE0
3E0FE0
7C07E0
7803E0
7803E0
F001E0
F001E0
F001E0
F001E0
F001E0
F001E0
F001E0
7803E0
7803E0
7C07E0
3E0FE0
1FFDE0
0FF9E0
03F1E0
0001E0
0001E0
0003C0
7803C0
7C07C0
3E0F80
3FFF80
0FFF00
03F800
ENDCHAR
STARTCHAR 0124
ENCODING 292
SWIDTH 725 0
DWIDTH 29 0
BBX 23 36 3 0
BITMAP
007C00
007C00
00FE00
01C700
038380
000000
000000
F0001E
F0001E
F0001E
F0001E
F0001E
F0001E
F0001E
F0001E
F0001E
F0001E
F0001E
F0001E
F0001E
FFFFFE
FFFFFE
FFFFFE
F0001E
F0001E
F0001E
F0001E
F0001E
F0001E
F0001E
F0001E
F0001E
F0001E
F0001E
F0001E
F0001E
ENDCHAR
STARTCHAR 0125
ENCODING 293
SWIDTH 525 0
DWIDTH 21 0
BBX 18 35 2 1
BITMAP
01F000
01F800
03B800
071C00
070C00
0E0600
F00000
F00000
F00000
F00000
F00000
F00000
F00000
F00000
F0FC00
F3FF00
F7FF80
FE0FC0
FC07C0
F803C0
F803C0
F003C0
F003C0
F003C0
F003C0
F003C0
F003C0
F003C0
F003C0
F003C0
F003C0
F003C0
F003C0
F003C0
F003C0
ENDCHAR
STARTCHAR 0126
ENCODING 294
SWIDTH 725 0
DWIDTH 29 0
BBX 25 29 2 0
BITMAP
78000F00
78000F00
78000F00
78000F00
78000F00
78000F00
FFFFFF80
FFFFFF80
FFFFFF80
78000F00
78000F00
78000F00
78000F00
7FFFFF00
7FFFFF00
7FFFFF00
78000F00
78000F00
78000F00
78000F00
78000F00
78000F00
78000F00
78000F00
78000F00
78000F00
78000F00
78000F00
78000F00
ENDCHAR
STARTCHAR 0127
ENCODING 295
SWIDTH 550 0
DWIDTH 22 0
BBX 18 29 2 0
BITMAP
780000
780000
780000
FFC000
FFC000
780000
780000
780000
78FC00
79FF00
7BFF80
7F0FC0
7E07C0
7C03C0
7C03C0
7803C0
7803C0
7803C0
7803C0
7803C0
7803C0
7803C0
7803C0
7803C0
7803C0
7803C0
7803C0
7803C0
7803C0
ENDCHAR
STARTCHAR 0128
ENCODING 296
SWIDTH 300 0
DWIDTH 12 0
BBX 11 36 0 1
BITMAP
7860
FEE0
FFE0
C7C0
C180
0000
0000
0F00
0F00
0F00
0F00
0F00
0F00
0F00
0F00
0F00
0F00
0F00
0F00
0F00
0F00
0F00
0F00
0F00
0F00
0F00
0F00
0F00
0F00
0F00
0F00
0F00
0F00
0F00
0F00
0F00
ENDCHAR
STARTCHAR 0129
ENCODING 297
SWIDTH 250 0
DWIDTH 10 0
BBX 12 29 -1 1
BITMAP
7870
7E60
FFE0
C7E0
C180
0000
0000
0000
0780
0780
0780
0780
0780
0780
0780
0780
0780
0780
0780
0780
0780
0780
0780
0780
0780
0780
0780
0780
0780
ENDCHAR
STARTCHAR 012A
ENCODING 298
SWIDTH 275 0
DWIDTH 11 0
BBX 11 35 0 0
BITMAP
FFE0
FFE0
FFE0
0000
0000
0000
0F00
0F00
0F00
0F00
0F00
0F00
0F00
0F00
0F00
0F00
0F00
0F00
0F00
0F00
0F00
0F00
0F00
0F00
0F00
0F00
0F00
0F00
0F00
0F00
0F00
0F00
0F00
0F00
0F00
ENDCHAR
STARTCHAR 012B
ENCODING 299
SWIDTH 250 0
DWIDTH 10 0
BBX 11 27 0 1
BITMAP
FFE0
FFE0
FFE0
0000
0000
0000
0F00
0F00
0F00
0F00
0F00
0F00
0F00
0F00
0F00
0F00
0F00
0F00
0F00
0F00
0F00
0F00
0F00
0F00
0F00
0F00
0F00
ENDCHAR
STARTCHAR 012C
ENCODING 300
SWIDTH 300 0
DWIDTH 12 0
BBX 11 36 0 0
BITMAP
C060
E060
7FE0
7FC0
3F80
0000
0000
0F00
0F00
0F00
0F00
0F00
0F00
0F00
0F00
0F00
0F00
0F00
0F00
0F00
0F00
0F00
0F00
0F00
0F00
0F00
0F00
0F00
0F00
0F00
0F00
0F00
0F00
0F00
0F00
0F00
ENDCHAR
STARTCHAR 012D
ENCODING 301
SWIDTH 250 0
DWIDTH 10 0
BBX 11 29 0 0
BITMAP
C060
E0E0
FFC0
7FC0
3F00
0000
0000
0000
0F00
0F00
0F00
0F00
0F00
0F00
0F00
0F00
0F00
0F00
0F00
0F00
0F00
0F00
0F00
0F00
0F00
0F00
0F00
0F00
0F00
ENDCHAR
STARTCHAR 012E
ENCODING 302
SWIDTH 275 0
DWIDTH 11 0
BBX 9 37 1 -8
BITMAP
1E00
1E00
1E00
1E00
1E00
1E00
1E00
1E00
1E00
1E00
1E00
1E00
1E00
1E00
1E00
1E00
1E00
1E00
1E00
1E00
1E00
1E00
1E00
1E00
1E00
1E00
1E00
1E00
1E00
3C00
7000
E000
E000
E000
F000
7F80
1F80
ENDCHAR
STARTCHAR 012F
ENCODING 303
SWIDTH 250 0
DWIDTH 10 0
BBX 8 37 0 -8
BITMAP
1E
1E
1E
1E
00
00
00
00
1E
1E
1E
1E
1E
1E
1E
1E
1E
1E
1E
1E
1E
1E
1E
1E
1E
1E
1E
1E
1E
38
70
E0
E0
E0
F0
7F
1F
ENDCHAR
STARTCHAR 0130
ENCODING 304
SWIDTH 275 0
DWIDTH 11 0
BBX 4 35 4 0
BITMAP
F0
F0
F0
F0
00
00
F0
F0
F0
F0
F0
F0
F0
F0
F0
F0
F0
F0
F0
F0
F0
F0
F0
F0
F0
F0
F0
F0
F0
F0
F0
F0
F0
F0
F0
ENDCHAR
STARTCHAR 0131
ENCODING 305
SWIDTH 225 0
DWIDTH 9 0
BBX 4 21 3 0
BITMAP
F0
F0
F0
F0
F0
F0
F0
F0
F0
F0
F0
F0
F0
F0
F0
F0
F0
F0
F0
F0
F0
ENDCHAR
STARTCHAR 0132
ENCODING 306
SWIDTH 750 0
DWIDTH 30 0
BBX 23 29 4 0
BITMAP
F0001E
F0001E
F0001E
F0001E
F0001E
F0001E
F0001E
F0001E
F0001E
F0001E
F0001E
F0001E
F0001E
F0001E
F0001E
F0001E
F0001E
F0001E
F0001E
F3C01E
F3C01E
F3C01E
F3C01E
F3E01E
F1E03E
F1F07C
F0FFF8
F07FF0
F01FC0
ENDCHAR
STARTCHAR 0133
ENCODING 307
SWIDTH 375 0
DWIDTH 15 0
BBX 11 38 3 -9
BITMAP
F1E0
F1E0
F1E0
F1E0
0000
0000
0000
0000
F1E0
F1E0
F1E0
F1E0
F1E0
F1E0
F1E0
F1E0
F1E0
F1E0
F1E0
F1E0
F1E0
F1E0
F1E0
F1E0
F1E0
F1E0
F1E0
F1E0
F1E0
01E0
01E0
01E0
01E0
01E0
01E0
0FE0
0FC0
0F80
ENDCHAR
STARTCHAR 0134
ENCODING 308
SWIDTH 525 0
DWIDTH 21 0
BBX 20 36 1 0
BITMAP
000F80
000F80
001FC0
0038E0
007070
000000
000000
000780
000780
000780
000780
000780
000780
000780
000780
000780
000780
000780
000780
000780
000780
000780
000780
000780
000780
000780
F00780
F00780
F00780
F00780
F00F80
780F00
7C1F00
3FFE00
1FFC00
07F000
ENDCHAR
STARTCHAR 0135
ENCODING 309
SWIDTH 250 0
DWIDTH 10 0
BBX 10 37 0 -8
BITMAP
1E00
3F00
3B80
7380
61C0
C0C0
0000
0F00
0F00
0F00
0F00
0F00
0F00
0F00
0F00
0F00
0F00
0F00
0F00
0F00
0F00
0F00
0F00
0F00
0F00
0F00
0F00
0F00
0F00
0F00
0F00
0F00
0F00
1F00
FF00
FE00
F800
ENDCHAR
STARTCHAR 0136
ENCODING 310
SWIDTH 675 0
DWIDTH 27 0
BBX 23 41 3 -12
BITMAP
F0003E
F0007C
F000F8
F001F0
F003E0
F007C0
F00F80
F01F00
F03E00
F07C00
F0F800
F1F000
F3F000
F7F800
FF7800
FE3C00
FC3E00
F81E00
F00F00
F00F80
F00780
F003C0
F001E0
F001F0
F000F0
F00078
F0007C
F0003C
F0001E
000000
000000
000000
007800
007800
007800
007800
001800
001800
003800
007000
006000
ENDCHAR
STARTCHAR 0137
ENCODING 311
SWIDTH 525 0
DWIDTH 21 0
BBX 18 41 2 -12
BITMAP
F00000
F00000
F00000
F00000
F00000
F00000
F00000
F00000
F00F80
F01F00
F03E00
F07C00
F0F800
F1F000
F3E000
F7C000
FFE000
FFE000
FCF000
F8F800
F07800
F03C00
F03C00
F01E00
F00F00
F00F00
F00780
F00780
F003C0
000000
000000
000000
01E000
01E000
01E000
01E000
006000
006000
00E000
01C000
018000
ENDCHAR
STARTCHAR 0138
ENCODING 312
SWIDTH 525 0
DWIDTH 21 0
BBX 18 21 2 0
BITMAP
F00F80
F01F00
F03E00
F07C00
F0F000
F1E000
F3C000
F78000
FF0000
FE0000
FC0000
FF0000
FF8000
F7C000
F1E000
F0F000
F07800
F03C00
F01F00
F00780
F003C0
ENDCHAR
STARTCHAR 0139
ENCODING 313
SWIDTH 575 0
DWIDTH 23 0
BBX 18 36 3 0
BITMAP
078000
0F0000
1E0000
3C0000
700000
000000
000000
F00000
F00000
F00000
F00000
F00000
F00000
F00000
F00000
F00000
F00000
F00000
F00000
F00000
F00000
F00000
F00000
F00000
F00000
F00000
F00000
F00000
F00000
F00000
F00000
F00000
F00000
FFFFC0
FFFFC0
FFFFC0
ENDCHAR
STARTCHAR 013A
ENCODING 314
SWIDTH 250 0
DWIDTH 10 0
BBX 8 36 0 0
BITMAP
0F
1E
3C
78
E0
00
00
3C
3C
3C
3C
3C
3C
3C
3C
3C
3C
3C
3C
3C
3C
3C
3C
3C
3C
3C
3C
3C
3C
3C
3C
3C
3C
3C
3C
3C
ENDCHAR
STARTCHAR 013B
ENCODING 315
SWIDTH 575 0
DWIDTH 23 0
BBX 18 41 3 -12
BITMAP
F00000
F00000
F00000
F00000
F00000
F00000
F00000
F00000
F00000
F00000
F00000
F00000
F00000
F00000
F00000
F00000
F00000
F00000
F00000
F00000
F00000
F00000
F00000
F00000
F00000
F00000
FFFFC0
FFFFC0
FFFFC0
000000
000000
000000
01E000
01E000
01E000
01E000
006000
006000
00E000
01C000
018000
ENDCHAR
STARTCHAR 013C
ENCODING 316
SWIDTH 225 0
DWIDTH 9 0
BBX 4 41 2 -12
BITMAP
F0
F0
F0
F0
F0
F0
F0
F0
F0
F0
F0
F0
F0
F0
F0
F0
F0
F0
F0
F0
F0
F0
F0
F0
F0
F0
F0
F0
F0
00
00
00
F0
F0
F0
F0
30
30
70
E0
C0
ENDCHAR
STARTCHAR 013D
ENCODING 317
SWIDTH 575 0
DWIDTH 23 0
BBX 18 29 3 0
BITMAP
F03E00
F03C00
F03800
F07000
F06000
F0C000
F00000
F00000
F00000
F00000
F00000
F00000
F00000
F00000
F00000
F00000
F00000
F00000
F00000
F00000
F00000
F00000
F00000
F00000
F00000
F00000
FFFFC0
FFFFC0
FFFFC0
ENDCHAR
STARTCHAR 013E
ENCODING 318
SWIDTH 375 0
DWIDTH 15 0
BBX 12 29 2 0
BITMAP
F1F0
F1E0
F1C0
F380
F300
F600
F000
F000
F000
F000
F000
F000
F000
F000
F000
F000
F000
F000
F000
F000
F000
F000
F000
F000
F000
F000
F000
F000
F000
ENDCHAR
STARTCHAR 013F
ENCODING 319
SWIDTH 575 0
DWIDTH 23 0
BBX 18 29 3 0
BITMAP
F00000
F00000
F00000
F00000
F00000
F00000
F00000
F00000
F00000
F00000
F00000
F00000
F00000
F00000
F00000
F00000
F003C0
F003C0
F003C0
F003C0
F00000
F00000
F00000
F00000
F00000
F00000
FFFFC0
FFFFC0
FFFFC0
ENDCHAR
STARTCHAR 0140
ENCODING 320
SWIDTH 350 0
DWIDTH 14 0
BBX 12 29 2 0
BITMAP
F000
F000
F000
F000
F000
F000
F000
F000
F000
F000
F000
F000
F000
F000
F000
F000
F0F0
F0F0
F0F0
F0F0
F000
F000
F000
F000
F000
F000
F000
F000
F000
ENDCHAR
STARTCHAR 0141
ENCODING 321
SWIDTH 600 0
DWIDTH 24 0
BBX 20 29 2 0
BITMAP
3C0000
3C0000
3C0000
3C0000
3C0000
3C0000
3C0000
3C0000
3C0800
3C1800
3C7800
3CF000
3DE000
3F8000
3F0000
7E0000
7C0000
FC0000
FC0000
BC0000
3C0000
3C0000
3C0000
3C0000
3C0000
3C0000
3FFFF0
3FFFF0
3FFFF0
ENDCHAR
STARTCHAR 0142
ENCODING 322
SWIDTH 250 0
DWIDTH 10 0
BBX 6 29 2 0
BITMAP
78
78
78
78
78
78
78
78
78
78
78
7C
7C
7C
78
F8
F8
F8
78
78
78
78
78
78
78
78
78
78
78
ENDCHAR
STARTCHAR 0143
ENCODING 323
SWIDTH 725 0
DWIDTH 29 0
BBX 23 36 3 0
BITMAP
000F00
001E00
003C00
007800
00E000
000000
000000
F8001E
F8001E
FC001E
FE001E
FE001E
FF001E
F7001E
F7801E
F3C01E
F3C01E
F1E01E
F0F01E
F0F01E
F0781E
F0781E
F03C1E
F01E1E
F01E1E
F00F1E
F0071E
F0079E
F003DE
F003DE
F001FE
F000FE
F000FE
F0007E
F0007E
F0003E
ENDCHAR
STARTCHAR 0144
ENCODING 324
SWIDTH 525 0
DWIDTH 21 0
BBX 18 29 2 0
BITMAP
003E00
003C00
007800
007000
00E000
01C000
000000
000000
E1FC00
E7FF00
EFFF80
FE0FC0
FC07C0
F803C0
F803C0
F003C0
F003C0
F003C0
F003C0
F003C0
F003C0
F003C0
F003C0
F003C0
F003C0
F003C0
F003C0
F003C0
F003C0
ENDCHAR
STARTCHAR 0145
ENCODING 325
SWIDTH 725 0
DWIDTH 29 0
BBX 23 41 3 -12
BITMAP
F8001E
F8001E
FC001E
FE001E
FE001E
FF001E
F7001E
F7801E
F3C01E
F3C01E
F1E01E
F0F01E
F0F01E
F0781E
F0381E
F03C1E
F01E1E
F01E1E
F00F1E
F0071E
F0079E
F003DE
F003DE
F001FE
F000FE
F000FE
F0007E
F0007E
F0003E
000000
000000
000000
007800
007800
007800
007800
001800
001800
003800
007000
006000
ENDCHAR
STARTCHAR 0146
ENCODING 326
SWIDTH 525 0
DWIDTH 21 0
BBX 18 33 2 -12
BITMAP
E1FC00
E7FF00
EFFF80
FE0FC0
FC07C0
F803C0
F803C0
F003C0
F003C0
F003C0
F003C0
F003C0
F003C0
F003C0
F003C0
F003C0
F003C0
F003C0
F003C0
F003C0
F003C0
000000
000000
000000
01E000
01E000
01E000
01E000
006000
006000
00E000
01C000
018000
ENDCHAR
STARTCHAR 0147
ENCODING 327
SWIDTH 725 0
DWIDTH 29 0
BBX 23 36 3 0
BITMAP
038380
01C700
00FE00
007C00
007C00
000000
000000
F8001E
F8001E
FC001E
FE001E
FE001E
FF001E
F7001E
F7801E
F3C01E
F3C01E
F1E01E
F0F01E
F0F01E
F0781E
F0781E
F03C1E
F01E1E
F01E1E
F00F1E
F0071E
F0079E
F003DE
F003DE
F001FE
F000FE
F000FE
F0007E
F0007E
F0003E
ENDCHAR
STARTCHAR 0148
ENCODING 328
SWIDTH 525 0
DWIDTH 21 0
BBX 18 29 2 0
BITMAP
0C0E00
0E1C00
071800
03B800
03F000
01F000
000000
000000
E1FC00
E7FF00
EFFF80
FE0FC0
FC07C0
F803C0
F803C0
F003C0
F003C0
F003C0
F003C0
F003C0
F003C0
F003C0
F003C0
F003C0
F003C0
F003C0
F003C0
F003C0
F003C0
ENDCHAR
STARTCHAR 0149
ENCODING 329
SWIDTH 650 0
DWIDTH 26 0
BBX 23 29 1 0
BITMAP
F00000
F00000
F00000
F00000
300000
300000
300000
700000
E707E0
C71FF8
073FFC
07787E
07E01E
07E01E
07C01E
07C01E
07801E
07801E
07801E
07801E
07801E
07801E
07801E
07801E
07801E
07801E
07801E
07801E
07801E
ENDCHAR
STARTCHAR 014A
ENCODING 330
SWIDTH 675 0
DWIDTH 27 0
BBX 23 30 3 0
BITMAP
00FE00
F3FF80
F7FFE0
FF87F0
FE01F0
FC00F8
F8007C
F0003C
F0003C
F0003E
F0001E
F0001E
F0001E
F0001E
F0001E
F0001E
F0001E
F0001E
F0001E
F0003C
F0003C
F0003C
F0007C
F00078
F000F8
F001F0
F003E0
F0FFC0
F0FF80
F0FE00
ENDCHAR
STARTCHAR 014B
ENCODING 331
SWIDTH 525 0
DWIDTH 21 0
BBX 18 30 2 -9
BITMAP
E1FC00
E7FF00
EFFF80
FE0FC0
FC07C0
F803C0
F803C0
F003C0
F003C0
F003C0
F003C0
F003C0
F003C0
F003C0
F003C0
F003C0
F003C0
F003C0
F003C0
F003C0
F003C0
0003C0
0003C0
0003C0
0003C0
0003C0
0007C0
003FC0
003F80
003E00
ENDCHAR
STARTCHAR 014C
ENCODING 332
SWIDTH 775 0
DWIDTH 31 0
BBX 28 35 2 0
BITMAP
00FFE000
00FFE000
00FFE000
00000000
00000000
00000000
003FC000
01FFF800
03FFFC00
0FE07F00
1F801F80
1E000780
3C0007C0
7C0003E0
780001E0
780001E0
F00001F0
F00000F0
F00000F0
F00000F0
F00000F0
F00000F0
F00000F0
F00000F0
F00001F0
780001E0
780001E0
7C0003E0
3C0003C0
1E000780
1F801F80
0FE07F00
03FFFC00
01FFF800
003FC000
ENDCHAR
STARTCHAR 014D
ENCODING 333
SWIDTH 525 0
DWIDTH 21 0
BBX 20 27 1 1
BITMAP
0FFE00
0FFE00
0FFE00
000000
000000
000000
03FC00
0FFF00
1FFF80
3E0FC0
7C03E0
7801E0
7801E0
F000F0
F000F0
F000F0
F000F0
F000F0
F000F0
F000F0
7801E0
7801E0
7C03E0
3E0FC0
1FFF80
0FFF00
03FC00
ENDCHAR
STARTCHAR 014E
ENCODING 334
SWIDTH 775 0
DWIDTH 31 0
BBX 28 36 2 0
BITMAP
00C06000
00E0E000
00FFC000
007FC000
003F8000
00000000
00000000
003FC000
01FFF800
03FFFC00
0FE07F00
1F801F80
1E000780
3C0007C0
7C0003E0
780001E0
780001E0
F00001F0
F00000F0
F00000F0
F00000F0
F00000F0
F00000F0
F00000F0
F00000F0
F00001F0
780001E0
780001E0
7C0003E0
3C0003C0
1E000780
1F801F80
0FE07F00
03FFFC00
01FFF800
003FC000
ENDCHAR
STARTCHAR 014F
ENCODING 335
SWIDTH 525 0
DWIDTH 21 0
BBX 20 29 1 0
BITMAP
0C0600
0E0E00
07FE00
07FC00
01F800
000000
000000
000000
03FC00
0FFF00
1FFF80
3E0FC0
7C03E0
7801E0
7801E0
F000F0
F000F0
F000F0
F000F0
F000F0
F000F0
F000F0
7801E0
7801E0
7C03E0
3E0FC0
1FFF80
0FFF00
03FC00
ENDCHAR
STARTCHAR 0150
ENCODING 336
SWIDTH 775 0
DWIDTH 31 0
BBX 28 36 2 0
BITMAP
001E7C00
003E7800
003CF000
0039E000
0071C000
00000000
00000000
003FC000
01FFF800
03FFFC00
0FE07F00
1F801F80
1E000780
3C0007C0
7C0003E0
780001E0
780001E0
F00001F0
F00000F0
F00000F0
F00000F0
F00000F0
F00000F0
F00000F0
F00000F0
F00001F0
780001E0
780001E0
7C0003E0
3C0003C0
1E000780
1F801F80
0FE07F00
03FFFC00
01FFF800
003FC000
ENDCHAR
STARTCHAR 0151
ENCODING 337
SWIDTH 525 0
DWIDTH 21 0
BBX 20 29 1 0
BITMAP
01E3C0
01E780
03C700
038F00
038E00
071C00
000000
000000
03FC00
0FFF00
1FFF80
3E0FC0
7C03E0
7801E0
7801E0
F000F0
F000F0
F000F0
F000F0
F000F0
F000F0
F000F0
7801E0
7801E0
7C03E0
3E0FC0
1FFF80
0FFF00
03FC00
ENDCHAR
STARTCHAR 0152
ENCODING 338
SWIDTH 975 0
DWIDTH 39 0
BBX 36 29 2 0
BITMAP
00FE1FFFF0
03FF9FFFF0
07FFFFFFF0
0F01FE0000
1E007E0000
3C003E0000
3C003E0000
78001E0000
78001E0000
78001E0000
F0001E0000
F0001E0000
F0001E0000
F0001FFFE0
F0001FFFE0
F0001FFFE0
F0001E0000
F0001E0000
F0001E0000
F0001E0000
78001E0000
78001E0000
7C001E0000
3C003E0000
1E007E0000
1F81FE0000
0FFFFFFFF0
03FF9FFFF0
00FE1FFFF0
ENDCHAR
STARTCHAR 0153
ENCODING 339
SWIDTH 925 0
DWIDTH 37 0
BBX 35 21 1 0
BITMAP
03FC01F800
0FFF07FE00
1FFF9FFF00
3E07FE0F80
7C03FC03C0
7801F803C0
F801F001E0
F000F001E0
F000FFFFE0
F000FFFFE0
F000FFFFE0
F000F00000
F000F00000
F000F00000
7801F801C0
7801F803C0
7C03FC07C0
3F0FFE0F80
1FFF9FFF00
0FFF0FFE00
03F803F800
ENDCHAR
STARTCHAR 0154
ENCODING 340
SWIDTH 700 0
DWIDTH 28 0
BBX 23 36 3 0
BITMAP
001E00
003C00
007800
00F000
01C000
000000
000000
FFFF80
FFFFE0
FFFFF0
F001F8
F00078
F0003C
F0003C
F0003C
F0003C
F0003C
F00038
F00078
F000F0
FFFFE0
FFFFC0
FFFFF0
F000F8
F00078
F0003C
F0003C
F0003C
F0003C
F0003C
F0003C
F0003C
F0003C
F0003C
F0003E
F0003E
ENDCHAR
STARTCHAR 0155
ENCODING 341
SWIDTH 325 0
DWIDTH 13 0
BBX 11 29 2 0
BITMAP
01E0
03C0
0780
0700
0E00
1C00
0000
0000
E1E0
E3E0
EFE0
FF00
FC00
F800
F000
F000
F000
F000
F000
F000
F000
F000
F000
F000
F000
F000
F000
F000
F000
ENDCHAR
STARTCHAR 0156
ENCODING 342
SWIDTH 700 0
DWIDTH 28 0
BBX 23 41 3 -12
BITMAP
FFFF80
FFFFE0
FFFFF0
F001F8
F00078
F0003C
F0003C
F0003C
F0003C
F0003C
F00038
F00078
F000F0
FFFFE0
FFFFC0
FFFFF0
F000F8
F00078
F0003C
F0003C
F0003C
F0003C
F0003C
F0003C
F0003C
F0003C
F0003C
F0003E
F0003E
000000
000000
000000
007800
007800
007800
007800
001800
001800
003800
007000
006000
ENDCHAR
STARTCHAR 0157
ENCODING 343
SWIDTH 325 0
DWIDTH 13 0
BBX 11 33 2 -12
BITMAP
E1E0
E3E0
EFE0
FF00
FC00
F800
F000
F000
F000
F000
F000
F000
F000
F000
F000
F000
F000
F000
F000
F000
F000
0000
0000
0000
7800
7800
7800
7800
1800
1800
3800
7000
6000
ENDCHAR
STARTCHAR 0158
ENCODING 344
SWIDTH 700 0
DWIDTH 28 0
BBX 23 36 3 0
BITMAP
038380
01C700
00FE00
007C00
007C00
000000
000000
FFFF80
FFFFE0
FFFFF0
F001F8
F00078
F0003C
F0003C
F0003C
F0003C
F0003C
F00038
F00078
F000F0
FFFFE0
FFFFC0
FFFFF0
F000F8
F00078
F0003C
F0003C
F0003C
F0003C
F0003C
F0003C
F0003C
F0003C
F0003C
F0003E
F0003E
ENDCHAR
STARTCHAR 0159
ENCODING 345
SWIDTH 325 0
DWIDTH 13 0
BBX 11 29 2 0
BITMAP
E0E0
71C0
31C0
3B80
1F00
1F00
0000
0000
E1E0
E3E0
EFE0
FF00
FC00
F800
F000
F000
F000
F000
F000
F000
F000
F000
F000
F000
F000
F000
F000
F000
F000
ENDCHAR
STARTCHAR 015A
ENCODING 346
SWIDTH 675 0
DWIDTH 27 0
BBX 23 36 2 0
BITMAP
000F00
001E00
003C00
007800
00E000
000000
000000
01FE00
07FFC0
1FFFE0
3F03F0
3C00F8
7C0078
78003C
78003C
78003C
780000
7C0000
3F0000
3FF000
0FFF00
03FFE0
007FF0
0007F8
0000FC
00003E
F0001E
F0001E
F0001E
78001E
78003C
7C007C
3F01F8
1FFFF0
07FFE0
01FF00
ENDCHAR
STARTCHAR 015B
ENCODING 347
SWIDTH 500 0
DWIDTH 20 0
BBX 17 29 2 0
BITMAP
007800
00F000
00E000
01C000
038000
030000
000000
000000
07F000
1FFC00
7FFE00
7C1E00
F00F00
F00F00
F00000
F00000
FC0000
7FC000
1FF800
07FE00
007F00
000F80
F00780
F00780
F80780
7C1F00
7FFF00
3FFC00
0FF000
ENDCHAR
STARTCHAR 015C
ENCODING 348
SWIDTH 675 0
DWIDTH 27 0
BBX 23 36 2 0
BITMAP
007C00
007C00
00FE00
01C700
038380
000000
000000
01FE00
07FFC0
1FFFE0
3F03F0
3C00F8
7C0078
78003C
78003C
78003C
780000
7C0000
3F0000
3FF000
0FFF00
03FFE0
007FF0
0007F8
0000FC
00003E
F0001E
F0001E
F0001E
78001E
78003C
7C007C
3F01F8
1FFFF0
07FFE0
01FF00
ENDCHAR
STARTCHAR 015D
ENCODING 349
SWIDTH 500 0
DWIDTH 20 0
BBX 17 28 2 1
BITMAP
03C000
07E000
0FE000
0E7000
1C3800
181800
000000
07F000
1FFC00
7FFE00
7C1E00
F00F00
F00F00
F00000
F00000
FC0000
7FC000
1FF800
07FE00
007F00
000F80
F00780
F00780
F80780
7C1F00
7FFF00
3FFC00
0FF000
ENDCHAR
STARTCHAR 015E
ENCODING 350
SWIDTH 675 0
DWIDTH 27 0
BBX 23 38 2 -9
BITMAP
01FE00
07FFC0
1FFFE0
3F03F0
3C00F8
7C0078
78003C
78003C
78003C
780000
7C0000
3F0000
3FF000
0FFF00
03FFE0
007FF0
0007F8
0000FC
00003E
F0001E
F0001E
F0001E
F8001E
78003E
7C007C
3F01F8
1FFFF0
07FFE0
01FF00
002000
006000
006000
007C00
000E00
000E00
031E00
03FC00
00F800
ENDCHAR
STARTCHAR 015F
ENCODING 351
SWIDTH 500 0
DWIDTH 20 0
BBX 17 30 2 -9
BITMAP
07E000
1FF800
7FFE00
783E00
F00F00
F00F00
F00000
F00000
FC0000
7FC000
3FF800
07FE00
007F00
000F80
000780
F00780
F00780
F80F80
781F00
7FFF00
3FFE00
1FF800
07C000
020000
07C000
00E000
00E000
18E000
3FC000
0F8000
ENDCHAR
STARTCHAR 0160
ENCODING 352
SWIDTH 675 0
DWIDTH 27 0
BBX 23 36 2 0
BITMAP
038380
01C700
00FE00
007C00
007C00
000000
000000
01FE00
07FFC0
1FFFE0
3F03F0
3C00F8
7C0078
78003C
78003C
78003C
780000
7C0000
3F0000
3FF000
0FFF00
03FFE0
007FF0
0007F8
0000FC
00003E
F0001E
F0001E
F0001E
78001E
78003C
7C007C
3F01F8
1FFFF0
07FFE0
01FF00
ENDCHAR
STARTCHAR 0161
ENCODING 353
SWIDTH 500 0
DWIDTH 20 0
BBX 17 29 2 0
BITMAP
381800
1C3800
0E7000
0EE000
07E000
03C000
000000
000000
07F000
1FFC00
7FFE00
7C1E00
F00F00
F00F00
F00000
F00000
FC0000
7FC000
1FF800
07FE00
007F00
000F80
F00780
F00780
F80780
7C1F00
7FFF00
3FFC00
0FF000
ENDCHAR
STARTCHAR 0162
ENCODING 354
SWIDTH 625 0
DWIDTH 25 0
BBX 22 38 2 -9
BITMAP
FFFFFC
FFFFFC
FFFFFC
007800
007800
007800
007800
007800
007800
007800
007800
007800
007800
007800
007800
007800
007800
007800
007800
007800
007800
007800
007800
007800
007800
007800
007800
007800
007800
007800
002000
006000
007C00
000E00
000E00
031E00
07FC00
00F800
ENDCHAR
STARTCHAR 0163
ENCODING 355
SWIDTH 275 0
DWIDTH 11 0
BBX 10 35 2 -9
BITMAP
3C00
3C00
3C00
3C00
3C00
FF00
FF00
FF00
3C00
3C00
3C00
3C00
3C00
3C00
3C00
3C00
3C00
3C00
3C00
3C00
3C00
3C00
3C00
3F00
3F00
0F00
0200
0600
0400
0F80
01C0
01C0
61C0
7F80
1F00
ENDCHAR
STARTCHAR 0164
ENCODING 356
SWIDTH 625 0
DWIDTH 25 0
BBX 22 36 2 0
BITMAP
070700
038E00
01FC00
00F800
00F800
000000
000000
FFFFFC
FFFFFC
FFFFFC
007800
007800
007800
007800
007800
007800
007800
007800
007800
007800
007800
007800
007800
007800
007800
007800
007800
007800
007800
007800
007800
007800
007800
007800
007800
007800
ENDCHAR
STARTCHAR 0165
ENCODING 357
SWIDTH 450 0
DWIDTH 18 0
BBX 14 29 2 0
BITMAP
007C
0078
0070
3CE0
3CC0
3D80
3C00
3C00
FF00
FF00
FF00
3C00
3C00
3C00
3C00
3C00
3C00
3C00
3C00
3C00
3C00
3C00
3C00
3C00
3C00
3C00
3F00
3F00
1F00
ENDCHAR
STARTCHAR 0166
ENCODING 358
SWIDTH 625 0
DWIDTH 25 0
BBX 22 29 2 0
BITMAP
FFFFFC
FFFFFC
FFFFFC
007800
007800
007800
007800
007800
007800
007800
007800
007800
0FFFC0
0FFFC0
0FFFC0
007800
007800
007800
007800
007800
007800
007800
007800
007800
007800
007800
007800
007800
007800
ENDCHAR
STARTCHAR 0167
ENCODING 359
SWIDTH 275 0
DWIDTH 11 0
BBX 9 26 1 0
BITMAP
1E00
1E00
1E00
1E00
1E00
7F80
7F80
7F80
1E00
1E00
1E00
1E00
1E00
FF80
FF80
FF80
1E00
1E00
1E00
1E00
1E00
1E00
1E00
1F80
1F80
0F80
ENDCHAR
STARTCHAR 0168
ENCODING 360
SWIDTH 725 0
DWIDTH 29 0
BBX 23 36 3 1
BITMAP
01E180
03F380
03FF00
071F00
060600
000000
000000
F0001E
F0001E
F0001E
F0001E
F0001E
F0001E
F0001E
F0001E
F0001E
F0001E
F0001E
F0001E
F0001E
F0001E
F0001E
F0001E
F0001E
F0001E
F0001E
F0001E
F0001E
F0001E
F0003E
78003C
7C007C
3F01F8
1FFFF0
07FFC0
01FF00
ENDCHAR
STARTCHAR 0169
ENCODING 361
SWIDTH 525 0
DWIDTH 21 0
BBX 18 29 2 1
BITMAP
0F0C00
1FFC00
1FFC00
18F800
380000
000000
000000
000000
F003C0
F003C0
F003C0
F003C0
F003C0
F003C0
F003C0
F003C0
F003C0
F003C0
F003C0
F003C0
F003C0
F003C0
F007C0
F007C0
F80FC0
FC1FC0
7FFDC0
3FF9C0
0FE1C0
ENDCHAR
STARTCHAR 016A
ENCODING 362
SWIDTH 725 0
DWIDTH 29 0
BBX 23 35 3 0
BITMAP
03FF80
03FF80
03FF80
000000
000000
000000
F0001E
F0001E
F0001E
F0001E
F0001E
F0001E
F0001E
F0001E
F0001E
F0001E
F0001E
F0001E
F0001E
F0001E
F0001E
F0001E
F0001E
F0001E
F0001E
F0001E
F0001E
F0001E
F0003E
78003C
7C007C
3F01F8
1FFFF0
07FFC0
01FF00
ENDCHAR
STARTCHAR 016B
ENCODING 363
SWIDTH 525 0
DWIDTH 21 0
BBX 18 27 2 1
BITMAP
1FFC00
1FFC00
1FFC00
000000
000000
000000
F003C0
F003C0
F003C0
F003C0
F003C0
F003C0
F003C0
F003C0
F003C0
F003C0
F003C0
F003C0
F003C0
F003C0
F007C0
F007C0
F80FC0
FC1FC0
7FFDC0
3FF9C0
0FE1C0
ENDCHAR
STARTCHAR 016C
ENCODING 364
SWIDTH 725 0
DWIDTH 29 0
BBX 23 36 3 0
BITMAP
030180
038380
03FF00
01FF00
00FE00
000000
000000
F0001E
F0001E
F0001E
F0001E
F0001E
F0001E
F0001E
F0001E
F0001E
F0001E
F0001E
F0001E
F0001E
F0001E
F0001E
F0001E
F0001E
F0001E
F0001E
F0001E
F0001E
F0001E
F0003E
78003C
7C007C
3F01F8
1FFFF0
07FFC0
01FF00
ENDCHAR
STARTCHAR 016D
ENCODING 365
SWIDTH 525 0
DWIDTH 21 0
BBX 18 29 2 0
BITMAP
180C00
1C0C00
0FFC00
0FF800
03F000
000000
000000
000000
F003C0
F003C0
F003C0
F003C0
F003C0
F003C0
F003C0
F003C0
F003C0
F003C0
F003C0
F003C0
F003C0
F003C0
F007C0
F007C0
F80FC0
FC1FC0
7FFDC0
3FF9C0
0FE1C0
ENDCHAR
STARTCHAR 016E
ENCODING 366
SWIDTH 725 0
DWIDTH 29 0
BBX 23 38 3 0
BITMAP
003000
00FC00
01CC00
018600
018600
018E00
01FC00
00FC00
000000
F0001E
F0001E
F0001E
F0001E
F0001E
F0001E
F0001E
F0001E
F0001E
F0001E
F0001E
F0001E
F0001E
F0001E
F0001E
F0001E
F0001E
F0001E
F0001E
F0001E
F0001E
F0001E
F0003E
78003C
7C007C
3F01F8
1FFFF0
07FFC0
01FF00
ENDCHAR
STARTCHAR 016F
ENCODING 367
SWIDTH 525 0
DWIDTH 21 0
BBX 18 30 2 0
BITMAP
03C000
07E000
063000
0C3000
0C3000
0E7000
07F000
03C000
000000
F003C0
F003C0
F003C0
F003C0
F003C0
F003C0
F003C0
F003C0
F003C0
F003C0
F003C0
F003C0
F003C0
F003C0
F007C0
F007C0
F80FC0
FC1FC0
7FFDC0
3FF9C0
0FE1C0
ENDCHAR
STARTCHAR 0170
ENCODING 368
SWIDTH 725 0
DWIDTH 29 0
BBX 23 36 3 0
BITMAP
00F3E0
01F3C0
01E780
01CF00
038E00
000000
000000
F0001E
F0001E
F0001E
F0001E
F0001E
F0001E
F0001E
F0001E
F0001E
F0001E
F0001E
F0001E
F0001E
F0001E
F0001E
F0001E
F0001E
F0001E
F0001E
F0001E
F0001E
F0001E
F0003E
78003C
7C007C
3F01F8
1FFFF0
07FFC0
01FF00
ENDCHAR
STARTCHAR 0171
ENCODING 369
SWIDTH 525 0
DWIDTH 21 0
BBX 18 29 2 0
BITMAP
07CF00
079F00
071E00
0F3C00
0E3800
0C7000
000000
000000
F003C0
F003C0
F003C0
F003C0
F003C0
F003C0
F003C0
F003C0
F003C0
F003C0
F003C0
F003C0
F003C0
F003C0
F007C0
F007C0
F80FC0
FC1FC0
7FFDC0
3FF9C0
0FE1C0
ENDCHAR
STARTCHAR 0172
ENCODING 370
SWIDTH 725 0
DWIDTH 29 0
BBX 23 37 3 -8
BITMAP
F0001E
F0001E
F0001E
F0001E
F0001E
F0001E
F0001E
F0001E
F0001E
F0001E
F0001E
F0001E
F0001E
F0001E
F0001E
F0001E
F0001E
F0001E
F0001E
F0001E
F0001E
F0001E
F0003E
78003C
7C007C
3F01F8
1FFFF0
07FFE0
01FFC0
000180
000380
000700
000700
000700
000780
0003F8
0000F8
ENDCHAR
STARTCHAR 0173
ENCODING 371
SWIDTH 525 0
DWIDTH 21 0
BBX 19 29 2 -8
BITMAP
F003C0
F003C0
F003C0
F003C0
F003C0
F003C0
F003C0
F003C0
F003C0
F003C0
F003C0
F003C0
F003C0
F003C0
F007C0
F007C0
F80FC0
FC1FC0
7FFDC0
3FF9C0
0FE1C0
000380
000E00
001C00
001C00
001C00
001E00
000FE0
0003E0
ENDCHAR
STARTCHAR 0174
ENCODING 372
SWIDTH 925 0
DWIDTH 37 0
BBX 36 36 1 0
BITMAP
0001F00000
0001F00000
0003F80000
00071C0000
000E0E0000
0000000000
0000000000
F000F000F0
F001F001F0
F001F001E0
7801F801E0
7803F801E0
7803B803C0
7803BC03C0
3C03BC03C0
3C079C03C0
3C071C0380
3C071E0780
1C071E0780
1E0E0E0780
1E0E0F0700
1E0E0F0F00
0E1E070F00
0F1C070F00
0F1C078E00
0F1C079E00
073C039E00
07B8039E00
07B803DC00
07B801DC00
03F001FC00
03F001FC00
03F001F800
03F000F800
01E000F800
01E000F800
ENDCHAR
STARTCHAR 0175
ENCODING 373
SWIDTH 725 0
DWIDTH 29 0
BBX 27 28 1 1
BITMAP
001F0000
003F0000
003B8000
00718000
0061C000
00C0E000
00000000
E01F00E0
E01F01E0
F01F01E0
F03F01E0
703F81C0
783B83C0
783B83C0
383B8380
3873C380
3C71C780
3C71C700
1C71C700
1CE1E700
1EE0EF00
0EE0EE00
0EE0EE00
0FC0FE00
0FC07C00
07C07C00
07C07C00
07807C00
ENDCHAR
STARTCHAR 0176
ENCODING 374
SWIDTH 675 0
DWIDTH 27 0
BBX 26 36 1 0
BITMAP
003E0000
003E0000
007F0000
00E38000
01C1C000
00000000
00000000
F80007C0
78000780
7C000F00
3E001F00
1E001E00
1F003E00
0F003C00
07807800
07C0F800
03C0F000
03E1E000
01E1E000
00F3C000
00FFC000
007F8000
003F0000
003F0000
001E0000
001E0000
001E0000
001E0000
001E0000
001E0000
001E0000
001E0000
001E0000
001E0000
001E0000
001E0000
ENDCHAR
STARTCHAR 0177
ENCODING 375
SWIDTH 475 0
DWIDTH 19 0
BBX 18 37 1 -8
BITMAP
01E000
03F000
07F000
073800
0E1C00
0C0C00
000000
E003C0
E00380
F00780
700700
700700
780F00
380E00
381E00
3C1E00
1C1C00
1C3C00
1E3C00
0E3800
0E7800
0F7000
077000
07F000
07E000
03E000
03E000
03C000
03C000
03C000
038000
078000
070000
0F0000
7F0000
7E0000
780000
ENDCHAR
STARTCHAR 0178
ENCODING 376
SWIDTH 675 0
DWIDTH 27 0
BBX 26 35 1 0
BITMAP
01E1E000
01E1E000
01E1E000
01E1E000
00000000
00000000
F80007C0
78000780
7C000F00
3E001F00
1E001E00
1F003E00
0F003C00
07807800
07C0F800
03C0F000
03E1E000
01E1E000
00F3C000
00FFC000
007F8000
003F0000
003F0000
001E0000
001E0000
001E0000
001E0000
001E0000
001E0000
001E0000
001E0000
001E0000
001E0000
001E0000
001E0000
ENDCHAR
STARTCHAR 0179
ENCODING 377
SWIDTH 625 0
DWIDTH 25 0
BBX 22 36 1 0
BITMAP
000780
000F00
001E00
003C00
007000
000000
000000
7FFFFC
7FFFFC
7FFFFC
00007C
000078
0000F0
0001F0
0003E0
0003C0
000780
000F80
001F00
003E00
003C00
007C00
00F800
01F000
01E000
03E000
07C000
0F8000
0F0000
1F0000
3E0000
7C0000
780000
FFFFFC
FFFFFC
FFFFFC
ENDCHAR
STARTCHAR 017A
ENCODING 378
SWIDTH 475 0
DWIDTH 19 0
BBX 17 29 1 0
BITMAP
003C00
003800
007000
00E000
00E000
01C000
000000
000000
7FFF80
7FFF80
7FFF80
000F00
001E00
001E00
003C00
007800
00F000
01E000
03C000
03C000
078000
0F0000
1E0000
3C0000
7C0000
780000
FFFF80
FFFF80
FFFF80
ENDCHAR
STARTCHAR 017B
ENCODING 379
SWIDTH 625 0
DWIDTH 25 0
BBX 22 35 1 0
BITMAP
003C00
003C00
003C00
003C00
000000
000000
7FFFFC
7FFFFC
7FFFFC
00007C
000078
0000F0
0001F0
0003E0
0003C0
000780
000F80
001F00
003E00
003C00
007C00
00F800
01F000
01E000
03E000
07C000
0F8000
0F0000
1F0000
3E0000
7C0000
780000
FFFFFC
FFFFFC
FFFFFC
ENDCHAR
STARTCHAR 017C
ENCODING 380
SWIDTH 475 0
DWIDTH 19 0
BBX 17 29 1 0
BITMAP
01E000
01E000
01E000
01E000
000000
000000
000000
000000
7FFF80
7FFF80
7FFF80
000F00
001E00
001E00
003C00
007800
00F000
01E000
03C000
03C000
078000
0F0000
1E0000
3C0000
7C0000
780000
FFFF80
FFFF80
FFFF80
ENDCHAR
STARTCHAR 017D
ENCODING 381
SWIDTH 625 0
DWIDTH 25 0
BBX 22 36 1 0
BITMAP
038380
01C700
00FE00
007C00
007C00
000000
000000
7FFFFC
7FFFFC
7FFFFC
00007C
000078
0000F0
0001F0
0003E0
0003C0
000780
000F80
001F00
003E00
003C00
007C00
00F800
01F000
01E000
03E000
07C000
0F8000
0F0000
1F0000
3E0000
7C0000
780000
FFFFFC
FFFFFC
FFFFFC
ENDCHAR
STARTCHAR 017E
ENCODING 382
SWIDTH 475 0
DWIDTH 19 0
BBX 17 29 1 0
BITMAP
0C0C00
0E1C00
073800
07B800
03F000
01E000
000000
000000
7FFF80
7FFF80
7FFF80
000F00
001E00
001E00
003C00
007800
00F000
01E000
03C000
03C000
078000
0F0000
1E0000
3C0000
7C0000
780000
FFFF80
FFFF80
FFFF80
ENDCHAR
STARTCHAR 017F
ENCODING 383
SWIDTH 275 0
DWIDTH 11 0
BBX 9 29 2 0
BITMAP
0780
1F80
3F80
3E00
3C00
3C00
3C00
3C00
FC00
FC00
FC00
3C00
3C00
3C00
3C00
3C00
3C00
3C00
3C00
3C00
3C00
3C00
3C00
3C00
3C00
3C00
3C00
3C00
3C00
ENDCHAR
STARTCHAR 0180
ENCODING 384
SWIDTH 575 0
DWIDTH 23 0
BBX 22 29 1 0
BITMAP
3C0000
3C0000
3C0000
FFE000
FFE000
3C0000
3C0000
3C0000
3C3F00
3CFFC0
3FFFE0
3FC3F0
3F00F8
3E0078
3E0078
3C003C
3C003C
3C003C
3C003C
3C003C
3C003C
3C003C
3E0078
3E0078
3F00F8
3F83F0
3BFFE0
39FFC0
387F00
ENDCHAR
STARTCHAR 0181
ENCODING 385
SWIDTH 850 0
DWIDTH 34 0
BBX 30 29 2 0
BITMAP
1FFFFF00
7FFFFFC0
7FFFFFE0
F8F003F0
F0F000F0
F0F000F8
F0F00078
F8F00078
7EF00078
7EF00078
1EF000F0
00F000F0
00F003E0
00FFFFC0
00FFFFC0
00FFFFE0
00F001F0
00F00078
00F0007C
00F0003C
00F0003C
00F0003C
00F0003C
00F0007C
00F00078
00F001F8
00FFFFF0
00FFFFE0
00FFFF80
ENDCHAR
STARTCHAR 0182
ENCODING 386
SWIDTH 675 0
DWIDTH 27 0
BBX 22 29 3 0
BITMAP
FFFFE0
FFFFE0
FFFFE0
F00000
F00000
F00000
F00000
F00000
F00000
F00000
F00000
F00000
FFFF00
FFFFC0
FFFFF0
F001F8
F00078
F0007C
F0003C
F0003C
F0003C
F0003C
F0003C
F0007C
F00078
F001F8
FFFFF0
FFFFE0
FFFF80
ENDCHAR
STARTCHAR 0183
ENCODING 387
SWIDTH 550 0
DWIDTH 22 0
BBX 20 29 2 0
BITMAP
FFFE00
FFFE00
FFFE00
F00000
F00000
F00000
F00000
F00000
F0FC00
F3FF00
F7FF80
FF0FC0
FC03E0
F801E0
F801E0
F000F0
F000F0
F000F0
F000F0
F000F0
F000F0
F000F0
F801E0
F801E0
FC03E0
FE0FC0
EFFF80
E7FF00
E1FC00
ENDCHAR
STARTCHAR 0184
ENCODING 388
SWIDTH 725 0
DWIDTH 29 0
BBX 27 29 0 0
BITMAP
07800000
0F800000
1F800000
3F800000
7F800000
FF800000
7F800000
3F800000
1F800000
0F800000
07800000
07FFF000
07FFFE00
07FFFF00
07800F80
078007C0
078003C0
078001E0
078001E0
078001E0
078001E0
078001E0
078001E0
078003C0
078007C0
07800F80
07FFFF00
07FFFE00
07FFF800
ENDCHAR
STARTCHAR 0185
ENCODING 389
SWIDTH 600 0
DWIDTH 24 0
BBX 23 29 0 0
BITMAP
0F0000
1F0000
3F0000
3F0000
7F0000
FF0000
7F0000
7F0000
3F1F80
1F3FE0
1F7FF0
0FE0F8
0FC07C
0F803C
0F803E
0F001E
0F001E
0F001E
0F001E
0F001E
0F001E
0F001E
0F803C
0F803C
0FC07C
0FE0F8
0EFFF0
0E7FE0
0E1F80
ENDCHAR
STARTCHAR 0186
ENCODING 390
SWIDTH 700 0
DWIDTH 28 0
BBX 25 29 1 -1
BITMAP
003E0000
03FFC000
07FFF000
0FC3F800
1F007C00
3E003E00
3C001E00
78000F00
78000F00
78000780
F8000780
00000780
00000780
00000780
00000780
00000780
00000780
00000780
00000780
00000780
78000F00
3C000F00
3C001F00
3E001E00
1E003C00
1F80FC00
0FFFF800
03FFE000
00FF8000
ENDCHAR
STARTCHAR 0187
ENCODING 391
SWIDTH 775 0
DWIDTH 31 0
BBX 27 29 2 0
BITMAP
007F8000
01FFE1E0
07FFFBE0
0FC0FFE0
1F003F80
3E001F00
3C001F00
78000F00
78000F00
78000000
F0000000
F0000000
F0000000
F0000000
F0000000
F0000000
F0000000
F0000000
F0000780
78000780
78000F80
78000F00
3C000F00
3E001E00
1F003E00
0FC0FC00
07FFF800
03FFF000
007F8000
ENDCHAR
STARTCHAR 0188
ENCODING 392
SWIDTH 575 0
DWIDTH 23 0
BBX 21 22 1 0
BITMAP
000078
03F8F8
0FFFF8
1FFFE0
3E0FC0
7C07C0
7803C0
7803C0
F00000
F00000
F00000
F00000
F00000
F00000
F003C0
F803C0
7807C0
7C0780
3E0F80
1FFF00
0FFE00
03F800
ENDCHAR
STARTCHAR 0189
ENCODING 393
SWIDTH 700 0
DWIDTH 28 0
BBX 25 29 2 0
BITMAP
3FFF8000
3FFFE000
3FFFF000
3C00FC00
3C007C00
3C003E00
3C001E00
3C000F00
3C000F00
3C000F00
3C000780
3C000780
3C000780
FFF00780
FFF00780
FFF00780
3C000780
3C000780
3C000780
3C000F80
3C000F00
3C000F00
3C001F00
3C001E00
3C003C00
3C00FC00
3FFFF800
3FFFE000
3FFF8000
ENDCHAR
STARTCHAR 018A
ENCODING 394
SWIDTH 875 0
DWIDTH 35 0
BBX 32 29 2 0
BITMAP
1FFFFF00
7FFFFFC0
7FFFFFE0
F8F003F0
F0F000F8
F0F0007C
F0F0003C
F8F0001E
7EF0001E
7EF0001E
1EF0000F
00F0000F
00F0000F
00F0000F
00F0000F
00F0000F
00F0000F
00F0000F
00F0000F
00F0001E
00F0001E
00F0001E
00F0003C
00F0007C
00F000F8
00F003F0
00FFFFE0
00FFFFC0
00FFFE00
ENDCHAR
STARTCHAR 018B
ENCODING 395
SWIDTH 675 0
DWIDTH 27 0
BBX 22 29 2 0
BITMAP
1FFFFC
1FFFFC
1FFFFC
00003C
00003C
00003C
00003C
00003C
00003C
00003C
00003C
00003C
03FFFC
0FFFFC
3FFFFC
7E003C
78003C
F8003C
F0003C
F0003C
F0003C
F0003C
F0003C
F8003C
78003C
7E003C
3FFFFC
1FFFFC
07FFFC
ENDCHAR
STARTCHAR 018C
ENCODING 396
SWIDTH 550 0
DWIDTH 22 0
BBX 20 29 1 0
BITMAP
07FFF0
07FFF0
07FFF0
0000F0
0000F0
0000F0
0000F0
0000F0
03F0F0
0FFCF0
1FFEF0
3F0FF0
7C03F0
7801F0
F801F0
F000F0
F000F0
F000F0
F000F0
F000F0
F000F0
F000F0
7801F0
7801F0
7C03F0
3F07F0
1FFF70
0FFE70
03F870
ENDCHAR
STARTCHAR 018D
ENCODING 397
SWIDTH 550 0
DWIDTH 22 0
BBX 20 29 1 -7
BITMAP
03FE00
0FFF00
1FFFC0
3E07C0
7C01E0
7801E0
F800F0
F000F0
F000F0
F000F0
F000F0
F000F0
F000F0
7801F0
7801E0
3C03E0
3F9FC0
1FFF80
0FFF00
07F800
03E000
00F800
007C00
003E00
000F80
0007C0
1FFFC0
1FFFC0
1FFFC0
ENDCHAR
STARTCHAR 018E
ENCODING 398
SWIDTH 625 0
DWIDTH 25 0
BBX 20 29 2 0
BITMAP
FFFFF0
FFFFF0
FFFFF0
0000F0
0000F0
0000F0
0000F0
0000F0
0000F0
0000F0
0000F0
0000F0
0000F0
7FFFF0
7FFFF0
7FFFF0
0000F0
0000F0
0000F0
0000F0
0000F0
0000F0
0000F0
0000F0
0000F0
0000F0
FFFFF0
FFFFF0
FFFFF0
ENDCHAR
STARTCHAR 018F
ENCODING 399
SWIDTH 700 0
DWIDTH 28 0
BBX 25 29 2 0
BITMAP
01FE0000
07FFC000
1FFFF000
3F01F800
3C007C00
7C003E00
78001E00
F0000F00
F0000F00
00000F00
00000780
00000780
00000780
00000780
00000780
FFFFFF80
FFFFFF80
FFFFFF80
F0000F80
F0000F00
F0000F00
F8001F00
78001E00
7C003C00
3E007C00
1F01F800
0FFFF000
07FFC000
01FF0000
ENDCHAR
STARTCHAR 0190
ENCODING 400
SWIDTH 650 0
DWIDTH 26 0
BBX 23 29 2 0
BITMAP
01FE00
07FFC0
1FFFE0
3F03F0
3C00F8
7C0078
78003C
78003C
78003C
780000
7C0000
3E0000
1F8000
0FFC00
0FFC00
1FFC00
7F0000
7C0000
F80000
F0001E
F0001E
F0001E
F0003C
78003C
7C007C
3E01F8
1FFFF0
0FFFC0
01FE00
ENDCHAR
STARTCHAR 0191
ENCODING 401
SWIDTH 600 0
DWIDTH 24 0
BBX 23 38 0 -9
BITMAP
0FFFFE
0FFFFE
0FFFFE
0F0000
0F0000
0F0000
0F0000
0F0000
0F0000
0F0000
0F0000
0F0000
0F0000
0FFFF8
0FFFF8
0FFFF8
0F0000
0F0000
0F0000
0F0000
0F0000
0F0000
0F0000
0F0000
0F0000
0F0000
0F0000
0F0000
0F0000
0F0000
0F0000
0F0000
0F0000
0F0000
1F0000
FF0000
FE0000
F80000
ENDCHAR
STARTCHAR 0192
ENCODING 402
SWIDTH 275 0
DWIDTH 11 0
BBX 10 38 0 -9
BITMAP
03C0
07C0
0FC0
0F00
0F00
0F00
0F00
0F00
3FC0
3FC0
3FC0
0F00
0F00
0F00
0F00
0F00
0F00
0F00
0F00
0F00
0F00
0F00
0F00
0F00
0F00
0F00
0F00
0F00
0F00
0F00
0F00
0F00
0F00
0F00
1F00
FF00
FE00
F800
ENDCHAR
STARTCHAR 0193
ENCODING 403
SWIDTH 825 0
DWIDTH 33 0
BBX 30 29 2 0
BITMAP
003FC000
01FFF87C
07FFFDFC
0FE03FFC
1F800FF0
1E0007E0
3C0003E0
7C0003E0
780001E0
78000000
F0000000
F0000000
F0000000
F001FFE0
F001FFE0
F001FFE0
F00001E0
F00001E0
780001E0
780001E0
780003E0
3C0003E0
3E0007E0
1F0007E0
0F801FE0
0FE07DE0
03FFF8E0
01FFF0E0
003F8060
ENDCHAR
STARTCHAR 0194
ENCODING 404
SWIDTH 675 0
DWIDTH 27 0
BBX 25 30 1 -1
BITMAP
F8000780
7C000F80
3C000F00
3E001F00
1E001E00
1F003C00
0F003C00
07807800
07C0F800
03C0F000
01E1E000
01E1E000
00F3C000
00F38000
007F8000
003F0000
003F0000
001E0000
001E0000
003F0000
003F0000
007F8000
007F8000
00F3C000
00F3C000
00F3C000
00F3C000
007F8000
007F8000
001E0000
ENDCHAR
STARTCHAR 0195
ENCODING 405
SWIDTH 850 0
DWIDTH 34 0
BBX 31 29 2 0
BITMAP
F0000000
F0000000
F0000000
F0000000
F0000000
F0000000
F0000000
F0000000
F0FC0000
F3FF0000
F7FF8000
FE0FC1E0
FC07C0F0
F803C078
F803C03C
F003C03C
F003C01E
F003C01E
F003C01E
F003C01E
F003C01E
F003C03C
F003C03C
F003C07C
F003C078
F003E1F0
F003FFE0
F003FFC0
F000FF00
ENDCHAR
STARTCHAR 0196
ENCODING 406
SWIDTH 250 0
DWIDTH 10 0
BBX 7 29 3 0
BITMAP
F0
F0
F0
F0
F0
F0
F0
F0
F0
F0
F0
F0
F0
F0
F0
F0
F0
F0
F0
F0
F0
F0
F0
F0
F0
F0
FE
7E
3E
ENDCHAR
STARTCHAR 0197
ENCODING 407
SWIDTH 375 0
DWIDTH 15 0
BBX 12 29 1 0
BITMAP
0F00
0F00
0F00
0F00
0F00
0F00
0F00
0F00
0F00
0F00
0F00
0F00
0F00
FFF0
FFF0
FFF0
0F00
0F00
0F00
0F00
0F00
0F00
0F00
0F00
0F00
0F00
0F00
0F00
0F00
ENDCHAR
STARTCHAR 0198
ENCODING 408
SWIDTH 675 0
DWIDTH 27 0
BBX 24 29 3 0
BITMAP
F00000
F0003E
F0007F
F001FE
F003E0
F007C0
F00F80
F01F00
F03E00
F07C00
F0F800
F1F000
F3F000
F7F800
FFF800
FE3C00
FC3E00
F81E00
F00F00
F00F80
F00780
F003C0
F001E0
F001F0
F000F0
F00078
F0007C
F0003C
F0001E
ENDCHAR
STARTCHAR 0199
ENCODING 409
SWIDTH 525 0
DWIDTH 21 0
BBX 18 29 2 0
BITMAP
1E0000
7E0000
FE0000
F80000
F00000
F00000
F00000
F00000
F00F80
F01F00
F03E00
F07C00
F0F800
F1F000
F3E000
F7C000
FFE000
FFE000
FCF000
F8F800
F07800
F03C00
F03C00
F01E00
F00F00
F00F00
F00780
F00780
F003C0
ENDCHAR
STARTCHAR 019A
ENCODING 410
SWIDTH 350 0
DWIDTH 14 0
BBX 12 29 1 0
BITMAP
0F00
0F00
0F00
0F00
0F00
0F00
0F00
0F00
0F00
0F00
0F00
0F00
0F00
FFF0
FFF0
FFF0
0F00
0F00
0F00
0F00
0F00
0F00
0F00
0F00
0F00
0F00
0F00
0F00
0F00
ENDCHAR
STARTCHAR 019B
ENCODING 411
SWIDTH 550 0
DWIDTH 22 0
BBX 21 29 0 1
BITMAP
3E0200
3F0E00
3F9E00
03FC00
01F000
03E000
07E000
1FE000
3CF000
78F000
61F800
41F800
01F800
03DC00
039C00
079C00
078E00
070E00
0F0F00
0E0700
1E0700
1E0780
1C0380
3C0380
3C03C0
3801C0
7801F8
7800F8
F00078
ENDCHAR
STARTCHAR 019C
ENCODING 412
SWIDTH 875 0
DWIDTH 35 0
BBX 29 29 3 0
BITMAP
F00F0078
F00F0078
F00F0078
F00F0078
F00F0078
F00F0078
F00F0078
F00F0078
F00F0078
F00F0078
F00F0078
F00F0078
F00F0078
F00F0078
F00F0078
F00F0078
F00F0078
F00F0078
F00F0078
F00F0078
F00F0078
F00F0078
F00F0078
F01F00F8
F81F81F8
FC7FC3F8
7FF7FF78
3FE3FE78
1F80FC78
ENDCHAR
STARTCHAR 019D
ENCODING 413
SWIDTH 725 0
DWIDTH 29 0
BBX 27 38 -1 -9
BITMAP
0F8001E0
0F8001E0
0FC001E0
0FE001E0
0FE001E0
0FF001E0
0F7001E0
0F7801E0
0F3C01E0
0F3C01E0
0F1E01E0
0F0F01E0
0F0F01E0
0F0781E0
0F0381E0
0F03C1E0
0F01E1E0
0F01E1E0
0F00F1E0
0F0071E0
0F0079E0
0F003DE0
0F003DE0
0F001FE0
0F000FE0
0F000FE0
0F0007E0
0F0007E0
0F0003E0
0F000000
0F000000
0F000000
0F000000
0F000000
1F000000
FF000000
FE000000
F8000000
ENDCHAR
STARTCHAR 019E
ENCODING 414
SWIDTH 525 0
DWIDTH 21 0
BBX 18 30 2 -9
BITMAP
E1FC00
E7FF00
EFFF80
FE0FC0
FC07C0
F803C0
F803C0
F003C0
F003C0
F003C0
F003C0
F003C0
F003C0
F003C0
F003C0
F003C0
F003C0
F003C0
F003C0
F003C0
F003C0
0003C0
0003C0
0003C0
0003C0
0003C0
0003C0
0003C0
0003C0
0003C0
ENDCHAR
STARTCHAR 019F
ENCODING 415
SWIDTH 775 0
DWIDTH 31 0
BBX 28 29 2 0
BITMAP
003FC000
01FFF800
07FFFC00
0FE07F00
1F801F80
3E000780
3C0003C0
7C0003E0
780001E0
780001E0
F00000F0
F00000F0
F00000F0
FFFFFFF0
FFFFFFF0
FFFFFFF0
F00000F0
F00000F0
F00000F0
780001E0
780001E0
7C0003C0
3C0003C0
1E000780
1F801F00
0FE07F00
03FFFC00
01FFF800
003FC000
ENDCHAR
STARTCHAR 01A0
ENCODING 416
SWIDTH 800 0
DWIDTH 32 0
BBX 30 31 2 1
BITMAP
00000018
0000003C
003FC03C
01FFF83C
03FFFE7C
0FE07FFC
1F801FF8
1E0007C0
3C0007C0
7C0003C0
780001E0
780001E0
F00001E0
F00000F0
F00000F0
F00000F0
F00000F0
F00000F0
F00000F0
F00000F0
F00001F0
780001E0
780001E0
7C0003E0
3C0003C0
1E000780
1F801F80
0FE07F00
03FFFC00
01FFF800
003FC000
ENDCHAR
STARTCHAR 01A1
ENCODING 417
SWIDTH 550 0
DWIDTH 22 0
BBX 23 25 1 0
BITMAP
000008
00001C
00003E
00001E
03F81E
0FFFFE
1FFFFC
3E0FF8
7C03E0
7801E0
7801E0
F000F0
F000F0
F000F0
F000F0
F000F0
F000F0
F000F0
7801E0
7801E0
7C03E0
3E0FC0
1FFF80
0FFF00
03FC00
ENDCHAR
STARTCHAR 01A2
ENCODING 418
SWIDTH 1025 0
DWIDTH 41 0
BBX 36 29 2 1
BITMAP
003FC07F00
01FFF1FFC0
03FFFFFFE0
0FE07FC1E0
1F801F01F0
1E000780F0
3C0007C0F0
7C0003C0F0
780001E0F0
780001E0F0
F00001E0F0
F00000F0F0
F00000F0F0
F00000F0F0
F00000F0F0
F00000F0F0
F00000F0F0
F00000F0F0
F00001F0F0
780001E0F0
780001E0F0
7C0003E0F0
3C0003C0F0
1E000780F0
1F801F80F0
0FE07F00F0
03FFFC00F0
01FFF800F0
003FC000F0
ENDCHAR
STARTCHAR 01A3
ENCODING 419
SWIDTH 725 0
DWIDTH 29 0
BBX 26 29 1 -8
BITMAP
03F83E00
0FFEFF80
1FFFFF80
3E0FC3C0
7C03C3C0
7801E3C0
7801E3C0
F000F3C0
F000F3C0
F000F3C0
F000F3C0
F000F3C0
F000F3C0
F000F3C0
7801E3C0
7801E3C0
7C03E3C0
3E0FC3C0
1FFF83C0
0FFF03C0
03FC03C0
000003C0
000003C0
000003C0
000003C0
000003C0
000003C0
000003C0
000003C0
ENDCHAR
STARTCHAR 01A4
ENCODING 420
SWIDTH 825 0
DWIDTH 33 0
BBX 29 29 2 0
BITMAP
1FFFFF00
7FFFFFC0
7FFFFFE0
F8F003F0
F0F000F0
F0F000F8
F0F00078
F8F00078
7EF00078
7EF00078
1EF00078
00F000F8
00F001F0
00F003F0
00FFFFE0
00FFFFC0
00FFFF00
00F00000
00F00000
00F00000
00F00000
00F00000
00F00000
00F00000
00F00000
00F00000
00F00000
00F00000
00F00000
ENDCHAR
STARTCHAR 01A5
ENCODING 421
SWIDTH 550 0
DWIDTH 22 0
BBX 20 37 2 -8
BITMAP
1E0000
7E0000
FE0000
F00000
E00000
E00000
E00000
E00000
E1FC00
E7FF00
EFFF80
FF0FC0
FC03E0
F801E0
F801E0
F000F0
F000F0
F000F0
F000F0
F000F0
F000F0
F000F0
F801E0
F801E0
FC03E0
FE0FC0
FFFF80
F3FF00
F0FC00
F00000
F00000
F00000
F00000
F00000
F00000
F00000
F00000
ENDCHAR
STARTCHAR 01A6
ENCODING 422
SWIDTH 650 0
DWIDTH 26 0
BBX 22 34 3 -5
BITMAP
F00000
F00000
F00000
F00000
F00000
FFFF00
FFFFC0
FFFFE0
F003F0
F000F0
F00078
F00078
F00078
F00078
F00078
F00078
F000F0
F003F0
FFFFE0
FFFFC0
FFFFE0
F001F0
F000F0
F00070
F00078
F00078
F00078
F00078
F00078
000078
000078
000078
00007C
00003C
ENDCHAR
STARTCHAR 01A7
ENCODING 423
SWIDTH 675 0
DWIDTH 27 0
BBX 23 29 2 0
BITMAP
00FF00
07FFC0
0FFFF0
1F81F8
3E0078
3C007C
78003C
78003C
78003C
00007C
0000FC
0003F8
001FF0
01FFE0
0FFF80
3FF800
7F8000
7E0000
F80000
F0001E
F0001E
F0001E
F0003C
78003C
7C007C
3F01F8
1FFFF0
0FFFC0
01FF00
ENDCHAR
STARTCHAR 01A8
ENCODING 424
SWIDTH 500 0
DWIDTH 20 0
BBX 17 21 1 0
BITMAP
07F000
1FFC00
3FFF00
3C1F00
780780
780780
000780
000F80
003F00
03FF00
1FFC00
7FE000
7E0000
F80000
F00780
F00780
F00F80
7C1F00
7FFF00
1FFE00
07F800
ENDCHAR
STARTCHAR 01A9
ENCODING 425
SWIDTH 625 0
DWIDTH 25 0
BBX 22 29 1 0
BITMAP
FFFFF8
FFFFF8
FFFFF8
780000
7C0000
3E0000
1F0000
0F0000
0F8000
07C000
03E000
01E000
01F000
00F800
007C00
00F800
01F000
01E000
03E000
07C000
0F8000
0F0000
1F0000
3E0000
7C0000
780000
FFFFFC
FFFFFC
FFFFFC
ENDCHAR
STARTCHAR 01AA
ENCODING 426
SWIDTH 375 0
DWIDTH 15 0
BBX 15 38 0 -9
BITMAP
1F00
7FC0
61C0
C0E0
C060
C060
C0E0
61E0
7FE0
1FE0
01E0
01E0
01E0
01E0
01E0
01E0
01E0
01E0
01E0
01E0
01E0
01E0
01E0
01E0
01E0
01E0
01E0
01E0
01E0
01E0
01E0
01E0
01E0
01E0
01F0
01FE
00FE
003E
ENDCHAR
STARTCHAR 01AB
ENCODING 427
SWIDTH 275 0
DWIDTH 11 0
BBX 9 36 2 -9
BITMAP
3C00
3C00
3C00
3C00
3C00
3C00
FF80
FF80
FF80
3C00
3C00
3C00
3C00
3C00
3C00
3C00
3C00
3C00
3C00
3C00
3C00
3C00
3C00
3C00
3C00
3F80
3F80
1F80
0780
0780
0780
0780
0F80
3F80
3F00
3C00
ENDCHAR
STARTCHAR 01AC
ENCODING 428
SWIDTH 650 0
DWIDTH 26 0
BBX 23 29 1 0
BITMAP
1FFFFE
7FFFFE
FFFFFE
F83C00
F03C00
F03C00
F03C00
F03C00
7C3C00
7C3C00
1C3C00
003C00
003C00
003C00
003C00
003C00
003C00
003C00
003C00
003C00
003C00
003C00
003C00
003C00
003C00
003C00
003C00
003C00
003C00
ENDCHAR
STARTCHAR 01AD
ENCODING 429
SWIDTH 275 0
DWIDTH 11 0
BBX 8 29 2 0
BITMAP
0F
1F
3F
3C
3C
3C
3C
3C
FF
FF
FF
3C
3C
3C
3C
3C
3C
3C
3C
3C
3C
3C
3C
3C
3C
3C
3F
3F
1F
ENDCHAR
STARTCHAR 01AE
ENCODING 430
SWIDTH 625 0
DWIDTH 25 0
BBX 22 38 2 -9
BITMAP
FFFFFC
FFFFFC
FFFFFC
007800
007800
007800
007800
007800
007800
007800
007800
007800
007800
007800
007800
007800
007800
007800
007800
007800
007800
007800
007800
007800
007800
007800
007800
007800
007800
007800
007800
007800
007800
007800
007C00
007F80
003F80
000F80
ENDCHAR
STARTCHAR 01AF
ENCODING 431
SWIDTH 775 0
DWIDTH 31 0
BBX 28 34 3 1
BITMAP
00000020
000000E0
000000F0
000000F0
000000F0
F0001FF0
F0001FE0
F0001FC0
F0001E00
F0001E00
F0001E00
F0001E00
F0001E00
F0001E00
F0001E00
F0001E00
F0001E00
F0001E00
F0001E00
F0001E00
F0001E00
F0001E00
F0001E00
F0001E00
F0001E00
F0001E00
F0001E00
F0003E00
78003C00
7C007C00
3F01F800
1FFFF000
07FFC000
01FF0000
ENDCHAR
STARTCHAR 01B0
ENCODING 432
SWIDTH 625 0
DWIDTH 25 0
BBX 23 26 2 1
BITMAP
000004
00001C
00001E
00001E
00001E
F003FE
F003FC
F003F8
F003C0
F003C0
F003C0
F003C0
F003C0
F003C0
F003C0
F003C0
F003C0
F003C0
F003C0
F007C0
F007C0
F80FC0
FC1FC0
7FFDC0
3FF9C0
0FE1C0
ENDCHAR
STARTCHAR 01B1
ENCODING 433
SWIDTH 750 0
DWIDTH 30 0
BBX 27 29 1 1
BITMAP
7FF0FFE0
7FF0FFE0
7FF0FFE0
01E07800
07C01C00
0F000F00
1F000F00
1E000780
3C0003C0
3C0003C0
780003C0
780001E0
780001E0
F00001E0
F00001E0
F00001E0
F00001E0
F00001E0
780001E0
780001E0
780003C0
3C0003C0
3E000780
1F000F80
0F801F00
07E07E00
03FFFC00
00FFF000
001F8000
ENDCHAR
STARTCHAR 01B2
ENCODING 434
SWIDTH 700 0
DWIDTH 28 0
BBX 23 29 3 0
BITMAP
F00780
F003C0
F001E0
F001F0
F000F0
F000F8
F00078
F0007C
F0003C
F0003C
F0003C
F0001E
F0001E
F0001E
F0001E
F0001E
F0001E
F0001E
F0001E
F0003C
F0003C
F0003C
F00078
F000F8
7801F0
7C0FE0
3FFFC0
1FFF80
03FC00
ENDCHAR
STARTCHAR 01B3
ENCODING 435
SWIDTH 725 0
DWIDTH 29 0
BBX 28 29 1 0
BITMAP
F80003E0
780007F0
7C000FE0
3E001F20
1E001E00
1F003C00
0F003C00
07807800
07C0F000
03C0F000
01E1E000
01F3E000
00F3C000
007F8000
007F8000
003F0000
003F0000
001E0000
001E0000
001E0000
001E0000
001E0000
001E0000
001E0000
001E0000
001E0000
001E0000
001E0000
001E0000
ENDCHAR
STARTCHAR 01B4
ENCODING 436
SWIDTH 625 0
DWIDTH 25 0
BBX 23 38 1 -9
BITMAP
00001E
00003E
00007E
0000F0
0000E0
0001E0
0001C0
0003C0
E003C0
E00380
F00780
700700
700700
780F00
380E00
381E00
3C1E00
1C1C00
1C3C00
1E3C00
0E3800
0E7800
0F7800
077000
07F000
07E000
03E000
03E000
03C000
03C000
03C000
038000
078000
078000
0F0000
7F0000
7E0000
780000
ENDCHAR
STARTCHAR 01B5
ENCODING 437
SWIDTH 625 0
DWIDTH 25 0
BBX 22 29 1 0
BITMAP
7FFFFC
7FFFFC
7FFFFC
00007C
000078
0000F8
0001F0
0003E0
0003C0
0007C0
000F80
001F00
001E00
07FFC0
07FFC0
07FFC0
00F000
01F000
03E000
07C000
078000
0F0000
1F0000
3E0000
7C0000
780000
FFFFFC
FFFFFC
FFFFFC
ENDCHAR
STARTCHAR 01B6
ENCODING 438
SWIDTH 475 0
DWIDTH 19 0
BBX 17 21 1 0
BITMAP
7FFF80
7FFF80
7FFF80
000F00
001F00
001E00
003C00
007800
00F000
3FFE00
3FFE00
3FFE00
078000
0F0000
1E0000
3C0000
7C0000
780000
FFFF80
FFFF80
FFFF80
ENDCHAR
STARTCHAR 01B7
ENCODING 439
SWIDTH 625 0
DWIDTH 25 0
BBX 22 29 2 0
BITMAP
3FFFFC
3FFFFC
3FFFFC
00007C
0000F8
0001F0
0003E0
0003C0
000780
000F80
001F00
007E00
007F80
007FE0
0007F0
0000F8
000078
00007C
00003C
00003C
F0003C
F0003C
F0003C
780078
7C00F8
3F03F0
1FFFE0
0FFF80
01FE00
ENDCHAR
STARTCHAR 01B8
ENCODING 440
SWIDTH 600 0
DWIDTH 24 0
BBX 23 29 1 0
BITMAP
FFFFF0
FFFFF0
FFFFF0
780000
7C0000
3E0000
1F0000
0F0000
078000
03C000
03E000
01F800
07F800
1FF800
3F8000
7C0000
780000
F80000
F00000
F00000
F0001E
F0001E
F0003E
78003C
7C007C
3F01F8
1FFFF0
07FFE0
00FF00
ENDCHAR
STARTCHAR 01B9
ENCODING 441
SWIDTH 525 0
DWIDTH 21 0
BBX 20 27 1 -6
BITMAP
3FFFC0
3FFFC0
3FFFC0
3C0000
1E0000
0F0000
078000
038000
01C000
01E000
03E000
0FE000
3FE000
7E0000
780000
F80000
F00000
F00000
F000F0
F000F0
F000F0
7801E0
7C03E0
3E07C0
1FFF80
0FFF00
03FC00
ENDCHAR
STARTCHAR 01BA
ENCODING 442
SWIDTH 500 0
DWIDTH 20 0
BBX 18 29 1 -8
BITMAP
7FFF00
7FFF00
7FFF00
000F00
001E00
003C00
003C00
007800
00F000
01E000
01F800
01FF00
01FF80
000780
0003C0
0001C0
0001C0
0001C0
0001C0
000380
7E0F80
FFFF00
FFFE00
E3F800
E00000
F00F00
7FFF00
3FFF00
0FF000
ENDCHAR
STARTCHAR 01BB
ENCODING 443
SWIDTH 550 0
DWIDTH 22 0
BBX 19 28 2 0
BITMAP
03F800
0FFE00
3FFF80
7E0F80
7C07C0
7803E0
F001E0
F001E0
F001E0
0001E0
0001E0
0003C0
1007C0
1C0F80
1FBF00
0FFE00
03FC00
07FF00
0FDF80
1F0780
3E0080
780000
780000
F00000
F00000
FFFFE0
FFFFE0
FFFFE0
ENDCHAR
STARTCHAR 01BE
ENCODING 446
SWIDTH 500 0
DWIDTH 20 0
BBX 18 27 1 0
BITMAP
01E000
01E000
01E000
01E000
01E000
01E000
07F800
07F800
07F800
01E000
01E000
01E000
00F000
00F800
003E00
000F00
000780
0003C0
E003C0
E003C0
E003C0
7003C0
7807C0
3C0F80
3FFF00
0FFE00
03F800
ENDCHAR
STARTCHAR 01BF
ENCODING 447
SWIDTH 550 0
DWIDTH 22 0
BBX 20 30 2 -9
BITMAP
E0FF00
E7FFC0
EFFFE0
FF83F0
FE00F0
FC00F0
F800F0
F000F0
F000F0
F001E0
F001E0
F003E0
F003C0
F00780
F00F00
F01E00
F03C00
F07800
F0F000
F1E000
F78000
FE0000
FC0000
F00000
F00000
F00000
F00000
F00000
F00000
F00000
ENDCHAR
STARTCHAR 01C0
ENCODING 448
SWIDTH 250 0
DWIDTH 10 0
BBX 2 38 4 -9
BITMAP
C0
C0
C0
C0
C0
C0
C0
C0
C0
C0
C0
C0
C0
C0
C0
C0
C0
C0
C0
C0
C0
C0
C0
C0
C0
C0
C0
C0
C0
C0
C0
C0
C0
C0
C0
C0
C0
C0
ENDCHAR
STARTCHAR 01C1
ENCODING 449
SWIDTH 375 0
DWIDTH 15 0
BBX 6 38 4 -9
BITMAP
CC
CC
CC
CC
CC
CC
CC
CC
CC
CC
CC
CC
CC
CC
CC
CC
CC
CC
CC
CC
CC
CC
CC
CC
CC
CC
CC
CC
CC
CC
CC
CC
CC
CC
CC
CC
CC
CC
ENDCHAR
STARTCHAR 01C2
ENCODING 450
SWIDTH 575 0
DWIDTH 23 0
BBX 18 37 2 -8
BITMAP
00C000
00C000
00C000
00C000
00C000
00C000
00C000
00C000
00C000
00C000
00C000
00C000
00C000
00C000
00C000
FFFFC0
FFFFC0
FFFFC0
00C000
00C000
00C000
00C000
FFFFC0
FFFFC0
FFFFC0
00C000
00C000
00C000
00C000
00C000
00C000
00C000
00C000
00C000
00C000
00C000
00C000
ENDCHAR
STARTCHAR 01C3
ENCODING 451
SWIDTH 275 0
DWIDTH 11 0
BBX 4 29 5 0
BITMAP
F0
F0
F0
F0
F0
F0
F0
F0
F0
F0
F0
F0
F0
F0
F0
F0
F0
F0
60
60
60
60
00
00
00
F0
F0
F0
F0
ENDCHAR
STARTCHAR 01C4
ENCODING 452
SWIDTH 1275 0
DWIDTH 51 0
BBX 47 36 3 0
BITMAP
000000018380
00000000E700
00000000FF00
000000007E00
000000003C00
000000000000
000000000000
FFFE003FFFFE
FFFFC03FFFFE
FFFFE03FFFFE
F003F000003C
F000F800007C
F0007C0000F8
F0003C0001F0
F0001E0001E0
F0001E0003E0
F0001E0007C0
F0000F000F80
F0000F000F00
F0000F001F00
F0000F003E00
F0000F007C00
F0000F007800
F0000F00F800
F0000F01F000
F0000F03E000
F0001E03C000
F0001E078000
F0001E0F8000
F0003C1F0000
F0007C3E0000
F000F83C0000
F003F07C0000
FFFFE07FFFFE
FFFFC07FFFFE
FFFE007FFFFE
ENDCHAR
STARTCHAR 01C5
ENCODING 453
SWIDTH 1175 0
DWIDTH 47 0
BBX 43 29 3 0
BITMAP
FFFE00070700
FFFFC0030600
FFFFE0038E00
F003F001DC00
F000F800F800
F0007C00F800
F0003C000000
F0001E000000
F0001E1FFFC0
F0001E1FFFC0
F0000F1FFFC0
F0000F0003C0
F0000F000780
F0000F000F00
F0000F001E00
F0000F003E00
F0000F003C00
F0000F007800
F0000F00F000
F0001E01E000
F0001E03C000
F0001E07C000
F0003C078000
F0007C0F0000
F000F81E0000
F003F03C0000
FFFFE03FFFE0
FFFFC03FFFE0
FFFE003FFFE0
ENDCHAR
STARTCHAR 01C6
ENCODING 454
SWIDTH 1025 0
DWIDTH 41 0
BBX 39 29 1 0
BITMAP
0000F07030
0000F03870
0000F01CE0
0000F01DC0
0000F00FC0
0000F00780
0000F00000
0000F00000
03F8F1FFFE
0FFCF1FFFE
1FFEF1FFFE
3F0FF0003C
7C03F00078
7801F000F8
7801F000F0
F000F001E0
F000F003C0
F000F00780
F000F00F00
F000F01F00
F000F01E00
F000F03C00
7801F07800
7801F0F000
7C03F1E000
3F07F3E000
1FFF73FFFE
0FFE73FFFE
03F873FFFE
ENDCHAR
STARTCHAR 01C7
ENCODING 455
SWIDTH 1050 0
DWIDTH 42 0
BBX 36 29 3 0
BITMAP
F0000000F0
F0000000F0
F0000000F0
F0000000F0
F0000000F0
F0000000F0
F0000000F0
F0000000F0
F0000000F0
F0000000F0
F0000000F0
F0000000F0
F0000000F0
F0000000F0
F0000000F0
F0000000F0
F0000000F0
F0000000F0
F0000000F0
F0001E00F0
F0001E00F0
F0001E00F0
F0001E00F0
F0001E01F0
F0000F01E0
F0000F83E0
FFFFC7FFC0
FFFFC3FF80
FFFFC0FE00
ENDCHAR
STARTCHAR 01C8
ENCODING 456
SWIDTH 775 0
DWIDTH 31 0
BBX 27 38 3 -9
BITMAP
F00001E0
F00001E0
F00001E0
F00001E0
F0000000
F0000000
F0000000
F0000000
F00001E0
F00001E0
F00001E0
F00001E0
F00001E0
F00001E0
F00001E0
F00001E0
F00001E0
F00001E0
F00001E0
F00001E0
F00001E0
F00001E0
F00001E0
F00001E0
F00001E0
F00001E0
FFFFC1E0
FFFFC1E0
FFFFC1E0
000001E0
000001E0
000001E0
000001E0
000001E0
000003E0
00000FE0
00000FC0
00000F00
ENDCHAR
STARTCHAR 01C9
ENCODING 457
SWIDTH 425 0
DWIDTH 17 0
BBX 14 38 2 -9
BITMAP
F03C
F03C
F03C
F03C
F000
F000
F000
F000
F03C
F03C
F03C
F03C
F03C
F03C
F03C
F03C
F03C
F03C
F03C
F03C
F03C
F03C
F03C
F03C
F03C
F03C
F03C
F03C
F03C
003C
003C
003C
003C
003C
007C
01FC
01F8
01E0
ENDCHAR
STARTCHAR 01CA
ENCODING 458
SWIDTH 1225 0
DWIDTH 49 0
BBX 43 29 3 0
BITMAP
F8001E0001E0
F8001E0001E0
FC001E0001E0
FE001E0001E0
FE001E0001E0
FF001E0001E0
F7001E0001E0
F7801E0001E0
F3C01E0001E0
F3C01E0001E0
F1E01E0001E0
F0F01E0001E0
F0F01E0001E0
F0781E0001E0
F0781E0001E0
F03C1E0001E0
F01E1E0001E0
F01E1E0001E0
F00F1E0001E0
F0071E3C01E0
F0079E3C03E0
F003DE3C03E0
F003DE3C03C0
F001FE3C03C0
F000FE3E07C0
F000FE1F0F80
F0007E1FFF80
F0007E0FFE00
F0003E03F800
ENDCHAR
STARTCHAR 01CB
ENCODING 459
SWIDTH 925 0
DWIDTH 37 0
BBX 33 38 3 -9
BITMAP
F8001E0780
F8001E0780
FC001E0780
FE001E0780
FE001E0000
FF001E0000
F7001E0000
F7801E0000
F3C01E0780
F3C01E0780
F1E01E0780
F0F01E0780
F0F01E0780
F0781E0780
F0381E0780
F03C1E0780
F01E1E0780
F01E1E0780
F00F1E0780
F0071E0780
F0079E0780
F003DE0780
F003DE0780
F001FE0780
F000FE0780
F000FE0780
F0007E0780
F0007E0780
F0003E0780
0000000780
0000000780
0000000780
0000000780
0000000780
0000000F80
0000003F80
0000003F00
0000003C00
ENDCHAR
STARTCHAR 01CC
ENCODING 460
SWIDTH 750 0
DWIDTH 30 0
BBX 27 38 2 -9
BITMAP
000001E0
000001E0
000001E0
000001E0
00000000
00000000
00000000
00000000
E1FC01E0
E7FF01E0
EFFF81E0
FE0FC1E0
FC07C1E0
F803C1E0
F803C1E0
F003C1E0
F003C1E0
F003C1E0
F003C1E0
F003C1E0
F003C1E0
F003C1E0
F003C1E0
F003C1E0
F003C1E0
F003C1E0
F003C1E0
F003C1E0
F003C1E0
000001E0
000001E0
000001E0
000001E0
000001E0
000001E0
00000FE0
00000FC0
00000F80
ENDCHAR
STARTCHAR 01CD
ENCODING 461
SWIDTH 675 0
DWIDTH 27 0
BBX 25 36 1 0
BITMAP
01C1C000
00E38000
007F0000
003E0000
003E0000
00000000
00000000
003E0000
007E0000
007F0000
007F0000
00F70000
00F78000
00E78000
01E38000
01E3C000
01C3C000
03C1E000
03C1E000
0781E000
0780F000
0700F000
0F00F000
0F007800
0FFFF800
1FFFF800
1FFFFC00
1C003C00
3C003C00
3C001E00
38001E00
78001E00
78000F00
F0000F00
F0000F80
F0000780
ENDCHAR
STARTCHAR 01CE
ENCODING 462
SWIDTH 550 0
DWIDTH 22 0
BBX 21 29 1 0
BITMAP
0E0600
070E00
039C00
039C00
01F800
00F000
000000
000000
03FC00
1FFF00
3FFF80
3E0FC0
7C03C0
7803C0
0003C0
0003C0
000FC0
03FFC0
1FFFC0
7FE3C0
7C03C0
F803C0
F003C0
F007C0
F00FC0
7C1FC0
7FFBF8
3FF1F8
0FC0F8
ENDCHAR
STARTCHAR 01CF
ENCODING 463
SWIDTH 300 0
DWIDTH 12 0
BBX 11 36 0 0
BITMAP
E0E0
71C0
3F80
1F00
1F00
0000
0000
0F00
0F00
0F00
0F00
0F00
0F00
0F00
0F00
0F00
0F00
0F00
0F00
0F00
0F00
0F00
0F00
0F00
0F00
0F00
0F00
0F00
0F00
0F00
0F00
0F00
0F00
0F00
0F00
0F00
ENDCHAR
STARTCHAR 01D0
ENCODING 464
SWIDTH 250 0
DWIDTH 10 0
BBX 11 29 0 0
BITMAP
C0E0
E1C0
7180
3B80
3F00
1F00
0000
0000
0F00
0F00
0F00
0F00
0F00
0F00
0F00
0F00
0F00
0F00
0F00
0F00
0F00
0F00
0F00
0F00
0F00
0F00
0F00
0F00
0F00
ENDCHAR
STARTCHAR 01D1
ENCODING 465
SWIDTH 775 0
DWIDTH 31 0
BBX 28 36 2 0
BITMAP
00E0E000
0071C000
003F8000
001F0000
001F0000
00000000
00000000
003FC000
01FFF800
03FFFC00
0FE07F00
1F801F80
1E000780
3C0007C0
7C0003E0
780001E0
780001E0
F00001F0
F00000F0
F00000F0
F00000F0
F00000F0
F00000F0
F00000F0
F00000F0
F00001F0
780001E0
780001E0
7C0003E0
3C0003C0
1E000780
1F801F80
0FE07F00
03FFFC00
01FFF800
003FC000
ENDCHAR
STARTCHAR 01D2
ENCODING 466
SWIDTH 525 0
DWIDTH 21 0
BBX 20 29 1 0
BITMAP
0E0600
070E00
031C00
039C00
01F800
01F000
000000
000000
03FC00
0FFF00
1FFF80
3E0FC0
7C03E0
7801E0
7801E0
F000F0
F000F0
F000F0
F000F0
F000F0
F000F0
F000F0
7801E0
7801E0
7C03E0
3E0FC0
1FFF80
0FFF00
03FC00
ENDCHAR
STARTCHAR 01D3
ENCODING 467
SWIDTH 725 0
DWIDTH 29 0
BBX 23 36 3 0
BITMAP
038380
01C700
00FE00
007C00
007C00
000000
000000
F0001E
F0001E
F0001E
F0001E
F0001E
F0001E
F0001E
F0001E
F0001E
F0001E
F0001E
F0001E
F0001E
F0001E
F0001E
F0001E
F0001E
F0001E
F0001E
F0001E
F0001E
F0001E
F0003E
78003C
7C007C
3F01F8
1FFFF0
07FFC0
01FF00
ENDCHAR
STARTCHAR 01D4
ENCODING 468
SWIDTH 525 0
DWIDTH 21 0
BBX 18 29 2 0
BITMAP
1C0C00
0E1C00
063800
073800
03F000
01E000
000000
000000
F003C0
F003C0
F003C0
F003C0
F003C0
F003C0
F003C0
F003C0
F003C0
F003C0
F003C0
F003C0
F003C0
F003C0
F007C0
F007C0
F80FC0
FC1FC0
7FFDC0
3FF9C0
0FE1C0
ENDCHAR
STARTCHAR 01D5
ENCODING 469
SWIDTH 725 0
DWIDTH 29 0
BBX 23 39 3 0
BITMAP
03FF80
03FF80
03FF80
000000
000000
03C3C0
03C3C0
03C3C0
03C3C0
000000
F0001E
F0001E
F0001E
F0001E
F0001E
F0001E
F0001E
F0001E
F0001E
F0001E
F0001E
F0001E
F0001E
F0001E
F0001E
F0001E
F0001E
F0001E
F0001E
F0001E
F0001E
F0001E
F0003E
78003C
7C007C
3F01F8
1FFFF0
07FFC0
01FF00
ENDCHAR
STARTCHAR 01D6
ENCODING 470
SWIDTH 525 0
DWIDTH 21 0
BBX 18 33 2 0
BITMAP
1FFC00
1FFC00
1FFC00
000000
000000
000000
1E1E00
1E1E00
1E1E00
1E1E00
000000
000000
F003C0
F003C0
F003C0
F003C0
F003C0
F003C0
F003C0
F003C0
F003C0
F003C0
F003C0
F003C0
F003C0
F003C0
F007C0
F007C0
F80FC0
FC1FC0
7FFDC0
3FF9C0
0FE1C0
ENDCHAR
STARTCHAR 01D7
ENCODING 471
SWIDTH 725 0
DWIDTH 29 0
BBX 23 40 3 0
BITMAP
000780
000F00
001E00
003C00
007000
000000
000000
03C3C0
03C3C0
03C3C0
03C3C0
F0001E
F0001E
F0001E
F0001E
F0001E
F0001E
F0001E
F0001E
F0001E
F0001E
F0001E
F0001E
F0001E
F0001E
F0001E
F0001E
F0001E
F0001E
F0001E
F0001E
F0001E
F0001E
F0003E
78003C
7C007C
3F01F8
1FFFF0
07FFC0
01FF00
ENDCHAR
STARTCHAR 01D8
ENCODING 472
SWIDTH 525 0
DWIDTH 21 0
BBX 18 35 2 1
BITMAP
001E00
001C00
003800
007000
006000
00C000
000000
000000
1E1E00
1E1E00
1E1E00
1E1E00
000000
000000
F003C0
F003C0
F003C0
F003C0
F003C0
F003C0
F003C0
F003C0
F003C0
F003C0
F003C0
F003C0
F003C0
F003C0
F007C0
F007C0
F80FC0
FC1FC0
7FFDC0
3FF9C0
0FE1C0
ENDCHAR
STARTCHAR 01D9
ENCODING 473
SWIDTH 725 0
DWIDTH 29 0
BBX 23 39 3 0
BITMAP
038380
01C700
00FE00
007C00
007C00
000000
000000
03C3C0
03C3C0
03C3C0
F3C3DE
F0001E
F0001E
F0001E
F0001E
F0001E
F0001E
F0001E
F0001E
F0001E
F0001E
F0001E
F0001E
F0001E
F0001E
F0001E
F0001E
F0001E
F0001E
F0001E
F0001E
F0001E
F0003E
78003C
7C007C
3F01F8
1FFFF0
07FFC0
01FF00
ENDCHAR
STARTCHAR 01DA
ENCODING 474
SWIDTH 525 0
DWIDTH 21 0
BBX 18 35 2 1
BITMAP
0E1C00
061800
073800
03F000
03F000
01E000
000000
000000
1E1E00
1E1E00
1E1E00
1E1E00
000000
000000
F003C0
F003C0
F003C0
F003C0
F003C0
F003C0
F003C0
F003C0
F003C0
F003C0
F003C0
F003C0
F003C0
F003C0
F007C0
F007C0
F80FC0
FC1FC0
7FFDC0
3FF9C0
0FE1C0
ENDCHAR
STARTCHAR 01DB
ENCODING 475
SWIDTH 725 0
DWIDTH 29 0
BBX 23 39 3 0
BITMAP
078000
03C000
01E000
007000
003800
000000
03C3C0
03C3C0
03C3C0
03C3C0
F0001E
F0001E
F0001E
F0001E
F0001E
F0001E
F0001E
F0001E
F0001E
F0001E
F0001E
F0001E
F0001E
F0001E
F0001E
F0001E
F0001E
F0001E
F0001E
F0001E
F0001E
F0001E
F0003E
78003C
7C007C
3F01F8
1FFFF0
07FFC0
01FF00
ENDCHAR
STARTCHAR 01DC
ENCODING 476
SWIDTH 525 0
DWIDTH 21 0
BBX 18 35 2 1
BITMAP
1E0000
0E0000
070000
038000
018000
00C000
000000
000000
1E1E00
1E1E00
1E1E00
1E1E00
000000
000000
F003C0
F003C0
F003C0
F003C0
F003C0
F003C0
F003C0
F003C0
F003C0
F003C0
F003C0
F003C0
F003C0
F003C0
F007C0
F007C0
F80FC0
FC1FC0
7FFDC0
3FF9C0
0FE1C0
ENDCHAR
STARTCHAR 01DD
ENCODING 477
SWIDTH 525 0
DWIDTH 21 0
BBX 20 21 0 -1
BITMAP
007000
07FE00
0FFF80
1F9FC0
3C03E0
7C01E0
7801F0
0000F0
0000F0
0000F0
FFFFF0
FFFFF0
FFFFF0
7000F0
7000F0
7800F0
7C01E0
3E03E0
1FFFC0
0FFF80
07FE00
ENDCHAR
STARTCHAR 01DE
ENCODING 478
SWIDTH 675 0
DWIDTH 27 0
BBX 25 39 1 0
BITMAP
01FFC000
01FFC000
01FFC000
00000000
00000000
01E1E000
01E1E000
01E1E000
01E1E000
00000000
003E0000
007E0000
007F0000
007F0000
00F70000
00F78000
00E78000
01E38000
01E3C000
01C3C000
03C1E000
03C1E000
0781E000
0780F000
0700F000
0F00F000
0F007800
0FFFF800
1FFFF800
1FFFFC00
1C003C00
3C003C00
3C001E00
38001E00
78001E00
78000F00
F0000F00
F0000F80
F0000780
ENDCHAR
STARTCHAR 01DF
ENCODING 479
SWIDTH 550 0
DWIDTH 22 0
BBX 21 32 1 0
BITMAP
07FF00
07FF00
07FF00
000000
000000
0F0F00
0F0F00
0F0F00
0F0F00
000000
000000
03FC00
1FFF00
3FFF80
3E0FC0
7C03C0
7803C0
0003C0
0003C0
000FC0
03FFC0
1FFFC0
7FE3C0
7C03C0
F803C0
F003C0
F007C0
F00FC0
7C1FC0
7FFBF8
3FF1F8
0FC0F8
ENDCHAR
STARTCHAR 01E0
ENCODING 480
SWIDTH 675 0
DWIDTH 27 0
BBX 25 38 1 1
BITMAP
01FFC000
01FFC000
01FFC000
00000000
001E0000
001E0000
001E0000
001E0000
00000000
003E0000
007E0000
007F0000
007F0000
00F70000
00F78000
00E78000
01E38000
01E3C000
01C3C000
03C1E000
03C1E000
0781E000
0780F000
0700F000
0F00F000
0F007800
0FFFF800
1FFFF800
1FFFFC00
1C003C00
3C003C00
3C001E00
38001E00
78001E00
78000F00
F0000F00
F0000F80
F0000780
ENDCHAR
STARTCHAR 01E1
ENCODING 481
SWIDTH 550 0
DWIDTH 22 0
BBX 21 32 1 0
BITMAP
0FFE00
0FFE00
0FFE00
000000
000000
00F000
00F000
00F000
00F000
000000
000000
03FC00
1FFF00
3FFF80
3E0FC0
7C03C0
7803C0
0003C0
0003C0
000FC0
03FFC0
1FFFC0
7FE3C0
7C03C0
F803C0
F003C0
F007C0
F00FC0
7C1FC0
7FFBF8
3FF1F8
0FC0F8
ENDCHAR
STARTCHAR 01E2
ENCODING 482
SWIDTH 975 0
DWIDTH 39 0
BBX 37 35 1 0
BITMAP
00003FF800
00003FF800
00003FF800
0000000000
0000000000
0000000000
001FFFFFF0
001FFFFFF0
001FFFFFF0
003C3C0000
00383C0000
00783C0000
00783C0000
00703C0000
00F03C0000
00E03C0000
01E03C0000
01E03C0000
01C03C0000
03C03FFFE0
03803FFFE0
07803FFFE0
07803C0000
0FFFFC0000
0FFFFC0000
0FFFFC0000
1E003C0000
1E003C0000
3C003C0000
3C003C0000
3C003C0000
78003C0000
78003FFFF8
F0003FFFF8
F0003FFFF8
ENDCHAR
STARTCHAR 01E3
ENCODING 483
SWIDTH 875 0
DWIDTH 35 0
BBX 33 28 1 0
BITMAP
001FFC0000
001FFC0000
001FFC0000
0000000000
0000000000
0000000000
0000000000
03F80FE000
1FFE3FF800
3FFF7FFC00
3E07F03E00
7C03E01F00
7803C00F00
0003800780
0007800780
03FFFFFF80
1FFFFFFF80
3FF3FFFF80
7E03800000
F803800000
F003800000
F003C00700
F007C00F00
F00FE01F00
7C1EF87E00
7FF87FFC00
3FF03FF800
0FC00FE000
ENDCHAR
STARTCHAR 01E4
ENCODING 484
SWIDTH 775 0
DWIDTH 31 0
BBX 28 29 2 0
BITMAP
003FE000
01FFF800
07FFFE00
0FE03F00
1F800F80
1E0007C0
3C0003C0
7C0003E0
780001E0
78000000
F0000000
F0000000
F0000000
F001FFE0
F001FFE0
F001FFE0
F00001E0
F00001E0
780001E0
7801FFF0
7801FFF0
3C0001E0
3E0003E0
1F0007E0
0F800FE0
0FE03DE0
03FFF8E0
01FFF0E0
003F8060
ENDCHAR
STARTCHAR 01E5
ENCODING 485
SWIDTH 550 0
DWIDTH 22 0
BBX 20 30 1 -9
BITMAP
03F0E0
0FFCE0
1FFEE0
3E0FE0
7C07E0
7803E0
7803E0
F001E0
F001E0
F001E0
F001E0
F001E0
F001E0
F001E0
7803E0
7803E0
7C07E0
3E0FE0
1FFDE0
0FF9E0
03F1E0
0001E0
0001E0
783FF0
783FF0
3C07C0
3E0F80
1FFF00
0FFE00
03F800
ENDCHAR
STARTCHAR 01E6
ENCODING 486
SWIDTH 775 0
DWIDTH 31 0
BBX 27 36 2 0
BITMAP
00E0E000
0071C000
003F8000
001F0000
001F0000
00000000
00000000
003FE000
01FFF800
07FFFE00
0FE03F00
1F800F80
1E0007C0
3C0003C0
7C0003E0
780001E0
78000000
F0000000
F0000000
F0000000
F001FFE0
F001FFE0
F001FFE0
F00001E0
F00001E0
780001E0
780001E0
780003E0
3C0003E0
3E0007E0
1F0007E0
0F801FE0
0FE07DE0
03FFF8E0
01FFF0E0
003F8060
ENDCHAR
STARTCHAR 01E7
ENCODING 487
SWIDTH 550 0
DWIDTH 22 0
BBX 19 38 1 -9
BITMAP
0C0E00
0E1C00
071800
073800
03F000
01F000
000000
000000
03F1E0
0FFDE0
1FFFE0
3E0FE0
7C07E0
7803E0
7803E0
F001E0
F001E0
F001E0
F001E0
F001E0
F001E0
F001E0
7803E0
7803E0
7C07E0
3E0FE0
1FFDE0
0FF9E0
03F1E0
0001E0
0001E0
0003C0
7803C0
7C07C0
3E0F80
3FFF80
0FFF00
03F800
ENDCHAR
STARTCHAR 01E8
ENCODING 488
SWIDTH 675 0
DWIDTH 27 0
BBX 23 36 3 0
BITMAP
038380
01C700
00FE00
007C00
007C00
000000
000000
F0003E
F0007C
F000F8
F001F0
F003E0
F007C0
F00F80
F01F00
F03E00
F07C00
F0F800
F1F000
F3F000
F7F800
FF7800
FE3C00
FC3E00
F81E00
F00F00
F00F80
F00780
F003C0
F001E0
F001F0
F000F0
F00078
F0007C
F0003C
F0001E
ENDCHAR
STARTCHAR 01E9
ENCODING 489
SWIDTH 525 0
DWIDTH 21 0
BBX 18 35 2 1
BITMAP
0C1C00
0E3800
077000
07F000
03E000
01E000
F00000
F00000
F00000
F00000
F00000
F00000
F00000
F00000
F00F80
F01F00
F03E00
F07C00
F0F800
F1F000
F3E000
F7C000
FFE000
FFE000
FCF000
F8F800
F07800
F03C00
F03C00
F01E00
F00F00
F00F00
F00780
F00780
F003C0
ENDCHAR
STARTCHAR 01EA
ENCODING 490
SWIDTH 775 0
DWIDTH 31 0
BBX 28 38 2 -9
BITMAP
003FC000
01FFF000
07FFFC00
0FC07E00
1F001F00
1E000F80
3C0007C0
7C0003C0
780001E0
780001E0
F80001E0
F00000F0
F00000F0
F00000F0
F00000F0
F00000F0
F00000F0
F00000F0
F00000F0
F80001E0
780001E0
780003E0
7C0003C0
3C0007C0
1E000F80
1F803F00
0FE0FE00
07FFFC00
01FFF000
003F8000
00380000
00700000
00E00000
00E00000
00E00000
00F00000
007F8000
001F8000
ENDCHAR
STARTCHAR 01EB
ENCODING 491
SWIDTH 525 0
DWIDTH 21 0
BBX 20 30 1 -9
BITMAP
03F800
0FFE00
1FFF80
3E0FC0
7C03C0
7801E0
7801E0
F001F0
F000F0
F000F0
F000F0
F000F0
F000F0
F000F0
F001F0
7801E0
7801E0
7C03C0
3E0FC0
1FFF80
0FFF00
03F800
03C000
070000
0E0000
0E0000
0E0000
0F0000
07F800
01F800
ENDCHAR
STARTCHAR 01EC
ENCODING 492
SWIDTH 775 0
DWIDTH 31 0
BBX 28 44 2 -9
BITMAP
00FFE000
00FFE000
00FFE000
00000000
00000000
00000000
003FC000
01FFF000
07FFFC00
0FC07E00
1F001F00
1E000F80
3C0007C0
7C0003C0
780001E0
780001E0
F80001E0
F00000F0
F00000F0
F00000F0
F00000F0
F00000F0
F00000F0
F00000F0
F00000F0
F80001E0
780001E0
780003E0
7C0003C0
3C0007C0
1E000F80
1F803F00
0FE0FE00
07FFFC00
01FFF000
003F8000
00380000
00700000
00E00000
00E00000
00E00000
00F00000
007F8000
001F8000
ENDCHAR
STARTCHAR 01ED
ENCODING 493
SWIDTH 525 0
DWIDTH 21 0
BBX 20 35 1 -9
BITMAP
0FFE00
0FFE00
0FFE00
000000
000000
03F800
0FFE00
1FFF80
3E0FC0
7C03C0
7801E0
7801E0
F001F0
F000F0
F000F0
F000F0
F000F0
F000F0
F000F0
F001F0
7801E0
7801E0
7C03C0
3E0FC0
1FFF80
0FFF00
03F800
03C000
070000
0E0000
0E0000
0E0000
0F0000
07F800
01F800
ENDCHAR
STARTCHAR 01EE
ENCODING 494
SWIDTH 625 0
DWIDTH 25 0
BBX 22 36 2 0
BITMAP
070700
038E00
01FC00
00F800
00F800
000000
000000
3FFFFC
3FFFFC
3FFFFC
00007C
0000F8
0001F0
0003E0
0003C0
000780
000F80
001F00
007E00
007F80
007FE0
0007F0
0000F8
000078
00007C
00003C
00003C
F0003C
F0003C
F0003C
780078
7C00F8
3F03F0
1FFFE0
0FFF80
01FE00
ENDCHAR
STARTCHAR 01EF
ENCODING 495
SWIDTH 525 0
DWIDTH 21 0
BBX 19 35 1 -6
BITMAP
0C0E00
0E0C00
071C00
03B800
03F000
01F000
000000
000000
3FFF80
3FFF80
3FFF80
000780
000F00
001E00
003C00
003C00
007800
00F000
00F800
00FF00
00FF80
000FC0
0003C0
0003E0
0001E0
0001E0
F001E0
F001E0
F001E0
7803C0
7C03C0
3E0F80
3FFF80
0FFE00
03F800
ENDCHAR
STARTCHAR 01F0
ENCODING 496
SWIDTH 225 0
DWIDTH 9 0
BBX 11 37 -1 -9
BITMAP
E0E0
61C0
7180
3B80
1F00
1F00
0000
0F00
0F00
0F00
0F00
0F00
0F00
0F00
0F00
0F00
0F00
0F00
0F00
0F00
0F00
0F00
0F00
0F00
0F00
0F00
0F00
0F00
0F00
0F00
0F00
0F00
0F00
1F00
FF00
FE00
F800
ENDCHAR
STARTCHAR 01F1
ENCODING 497
SWIDTH 1300 0
DWIDTH 52 0
BBX 48 29 3 0
BITMAP
FFFE001FFFFF
FFFFC01FFFFF
FFFFE01FFFFF
F003F000001E
F000F800003E
F0007C00007C
F0003C0000F8
F0001E0000F0
F0001E0001E0
F0001E0003E0
F0000F0007C0
F0000F000780
F0000F000F00
F0000F001F00
F0000F003E00
F0000F007C00
F0000F007800
F0000F00F800
F0000F01F000
F0001E03E000
F0001E03C000
F0001E07C000
F0003C0F8000
F0007C1F0000
F000F81E0000
F003F03E0000
FFFFE07FFFFF
FFFFC07FFFFF
FFFE007FFFFF
ENDCHAR
STARTCHAR 01F2
ENCODING 498
SWIDTH 1175 0
DWIDTH 47 0
BBX 43 29 3 0
BITMAP
FFFE00000000
FFFFC0000000
FFFFE0000000
F003F0000000
F000F8000000
F0007C000000
F0003C000000
F0001E000000
F0001E1FFFC0
F0001E1FFFC0
F0000F1FFFC0
F0000F0003C0
F0000F000780
F0000F000F00
F0000F001F00
F0000F001E00
F0000F003C00
F0000F007800
F0000F00F000
F0001E01E000
F0001E03E000
F0001E03C000
F0003C078000
F0007C0F0000
F000F81E0000
F003F03C0000
FFFFE03FFFE0
FFFFC03FFFE0
FFFE003FFFE0
ENDCHAR
STARTCHAR 01F3
ENCODING 499
SWIDTH 1050 0
DWIDTH 42 0
BBX 39 29 1 0
BITMAP
0000F00000
0000F00000
0000F00000
0000F00000
0000F00000
0000F00000
0000F00000
0000F00000
03F8F1FFFE
0FFCF1FFFE
1FFEF1FFFE
3F0FF0001E
7C03F0003C
7801F00078
7801F000F0
F000F001E0
F000F003C0
F000F007C0
F000F00780
F000F00F00
F000F01E00
F000F03C00
7801F07800
7801F0F800
7C03F0F000
3F07F1E000
1FFF73FFFE
0FFE73FFFE
03F873FFFE
ENDCHAR
STARTCHAR 01F4
ENCODING 500
SWIDTH 775 0
DWIDTH 31 0
BBX 27 36 2 0
BITMAP
0001E000
0003C000
00078000
000F0000
001C0000
00000000
00000000
003FE000
01FFF800
07FFFE00
0FE03F00
1F800F80
1E0007C0
3C0003C0
7C0003E0
780001E0
78000000
F0000000
F0000000
F0000000
F001FFE0
F001FFE0
F001FFE0
F00001E0
F00001E0
780001E0
780001E0
780003E0
3C0003E0
3E0007E0
1F0007E0
0F801FE0
0FE07DE0
03FFF8E0
01FFF0E0
003F8060
ENDCHAR
STARTCHAR 01F5
ENCODING 501
SWIDTH 550 0
DWIDTH 22 0
BBX 19 37 1 -8
BITMAP
001E00
001C00
003800
007000
006000
00E000
000000
03F1E0
0FFDE0
1FFFE0
3E0FE0
7C07E0
7803E0
7803E0
F001E0
F001E0
F001E0
F001E0
F001E0
F001E0
F001E0
7803E0
7803E0
7C07E0
3E0FE0
1FFDE0
0FF9E0
03F1E0
0001E0
0001E0
0003C0
7803C0
7C07C0
3E0F80
3FFF80
0FFF00
03F800
ENDCHAR
STARTCHAR 01F7
ENCODING 503
SWIDTH 600 0
DWIDTH 24 0
BBX 20 29 3 0
BITMAP
007F00
F1FFC0
F7FFE0
FF83E0
FE01F0
FC00F0
F800F0
F000F0
F000F0
F001E0
F001E0
F003E0
F007C0
F00F80
F01F80
F03F00
F07E00
F0F800
F3F000
F7E000
FF8000
FF0000
FC0000
F80000
F00000
F00000
F00000
F00000
F00000
ENDCHAR
STARTCHAR 01F8
ENCODING 504
SWIDTH 725 0
DWIDTH 29 0
BBX 23 36 3 0
BITMAP
01E000
00F000
007800
001C00
000E00
000000
000000
F8001E
F8001E
FC001E
FE001E
FE001E
FF001E
F7001E
F7801E
F3C01E
F3C01E
F1E01E
F0F01E
F0F01E
F0781E
F0781E
F03C1E
F01E1E
F01E1E
F00F1E
F0071E
F0079E
F003DE
F003DE
F001FE
F000FE
F000FE
F0007E
F0007E
F0003E
ENDCHAR
STARTCHAR 01F9
ENCODING 505
SWIDTH 525 0
DWIDTH 21 0
BBX 18 29 2 0
BITMAP
0F0000
078000
038000
01C000
00E000
006000
000000
000000
E1FC00
E7FF00
EFFF80
FE0FC0
FC07C0
F803C0
F803C0
F003C0
F003C0
F003C0
F003C0
F003C0
F003C0
F003C0
F003C0
F003C0
F003C0
F003C0
F003C0
F003C0
F003C0
ENDCHAR
STARTCHAR 01FA
ENCODING 506
SWIDTH 675 0
DWIDTH 27 0
BBX 25 36 1 0
BITMAP
001E0000
003C0000
00780000
00F00000
01C00000
00000000
007C0000
00FE0000
00C70000
00C30000
00C70000
00FE0000
007E0000
00000000
003E0000
007E0000
007F0000
00F70000
00F78000
01E78000
01E3C000
01C3C000
03C1E000
0381E000
0780F000
0700F000
0F007800
0FFFF800
1FFFFC00
1E003C00
3C003C00
3C001E00
78001E00
78000F00
F0000F00
F0000780
ENDCHAR
STARTCHAR 01FB
ENCODING 507
SWIDTH 550 0
DWIDTH 22 0
BBX 21 36 1 0
BITMAP
003C00
007800
00F000
01E000
038000
000000
01E000
03F000
031800
061800
061800
031800
03F800
01E000
000000
03FC00
1FFF00
3FFF80
3E0FC0
7C03C0
7803C0
0003C0
0003C0
000FC0
03FFC0
1FFFC0
7FE3C0
7C03C0
F803C0
F003C0
F007C0
F00FC0
7C1FC0
7FFBF8
3FF1F8
0FC0F8
ENDCHAR
STARTCHAR 01FC
ENCODING 508
SWIDTH 975 0
DWIDTH 39 0
BBX 37 36 1 0
BITMAP
0000007800
000000F000
000001E000
000003C000
0000070000
0000000000
0000000000
001FFFFFF0
001FFFFFF0
001FFFFFF0
003C3C0000
00383C0000
00783C0000
00783C0000
00703C0000
00F03C0000
00E03C0000
01E03C0000
01E03C0000
01C03C0000
03C03FFFE0
03803FFFE0
07803FFFE0
07803C0000
0FFFFC0000
0FFFFC0000
0FFFFC0000
1E003C0000
1E003C0000
3C003C0000
3C003C0000
3C003C0000
78003C0000
78003FFFF8
F0003FFFF8
F0003FFFF8
ENDCHAR
STARTCHAR 01FD
ENCODING 509
SWIDTH 875 0
DWIDTH 35 0
BBX 33 28 1 1
BITMAP
00001E0000
00003C0000
0000380000
0000700000
0000E00000
0000C00000
0000000000
03F80FE000
1FFE3FF800
3FFF7FFC00
3E07F03E00
7C03E01F00
7803C00F00
0003800780
0007800780
03FFFFFF80
1FFFFFFF80
3FF3FFFF80
7E03800000
F803800000
F003800000
F003C00700
F007C00F00
F00FE01F00
7C1EF87E00
7FF87FFC00
3FF03FF800
0FC00FE000
ENDCHAR
STARTCHAR 01FE
ENCODING 510
SWIDTH 800 0
DWIDTH 32 0
BBX 28 36 2 0
BITMAP
0001E000
0003C000
00078000
000F0000
001C0000
00000000
00000020
003FC070
01FFF8E0
03FFFDC0
0FE07F80
1F801F00
1E000780
3E000FC0
7C001FC0
780039E0
780071E0
F000E1F0
F001C0F0
F00380F0
F00700F0
F00E00F0
F01C00F0
F03800F0
F07000F0
F86001F0
78C001E0
79C001E0
3F8003E0
3F0003C0
1E000780
1F801F80
3FE07F00
73FFFC00
E1FFF800
403FC000
ENDCHAR
STARTCHAR 01FF
ENCODING 511
SWIDTH 600 0
DWIDTH 24 0
BBX 20 29 1 -1
BITMAP
000F00
001E00
001C00
003800
003000
006000
000000
03F810
0FFE30
1FFFE0
3E0FC0
7C03C0
7803E0
7807E0
F00CF0
F018F0
F030F0
F060F0
F0C0F0
F180F0
F300F0
7E01E0
7C01E0
3C03E0
3F0FC0
7FFF80
67FF00
C1FC00
800000
ENDCHAR
STARTCHAR 0200
ENCODING 512
SWIDTH 675 0
DWIDTH 27 0
BBX 25 36 1 0
BITMAP
1F3E0000
079E0000
038E0000
01CF0000
00C70000
00000000
00000000
003E0000
007E0000
007F0000
007F0000
00F70000
00F78000
00E78000
01E38000
01E3C000
01C3C000
03C1E000
03C1E000
0781E000
0780F000
0700F000
0F00F000
0F007800
0FFFF800
1FFFF800
1FFFFC00
1C003C00
3C003C00
3C001E00
38001E00
78001E00
78000F00
F0000F00
F0000F80
F0000780
ENDCHAR
STARTCHAR 0201
ENCODING 513
SWIDTH 550 0
DWIDTH 22 0
BBX 21 29 1 0
BITMAP
7CF000
3C7800
1E7800
0E3800
071C00
071C00
000000
000000
03FC00
1FFF00
3FFF80
3E0FC0
7C03C0
7803C0
0003C0
0003C0
000FC0
03FFC0
1FFFC0
7FE3C0
7C03C0
F803C0
F003C0
F007C0
F00FC0
7C1FC0
7FFBF8
3FF1F8
0FC0F8
ENDCHAR
STARTCHAR 0202
ENCODING 514
SWIDTH 675 0
DWIDTH 27 0
BBX 25 36 1 0
BITMAP
003E0000
00FF8000
00FF8000
01C1C000
0180C000
00000000
00000000
003E0000
007E0000
007F0000
007F0000
00F70000
00F78000
00E78000
01E38000
01E3C000
01C3C000
03C1E000
03C1E000
0781E000
0780F000
0700F000
0F00F000
0F007800
0FFFF800
1FFFF800
1FFFFC00
1C003C00
3C003C00
3C001E00
38001E00
78001E00
78000F00
F0000F00
F0000F80
F0000780
ENDCHAR
STARTCHAR 0203
ENCODING 515
SWIDTH 550 0
DWIDTH 22 0
BBX 21 28 1 1
BITMAP
03F800
07FC00
07FE00
060600
0C0600
000000
000000
03FC00
1FFF00
3FFF80
3E0FC0
7C03C0
7803C0
0003C0
0003C0
000FC0
03FFC0
1FFFC0
7FE3C0
7C03C0
F803C0
F003C0
F007C0
F00FC0
7C1FC0
7FFBF8
3FF1F8
0FC0F8
ENDCHAR
STARTCHAR 0204
ENCODING 516
SWIDTH 625 0
DWIDTH 25 0
BBX 20 36 3 0
BITMAP
1F3E00
079E00
038E00
01CF00
00C700
000000
000000
FFFFF0
FFFFF0
FFFFF0
F00000
F00000
F00000
F00000
F00000
F00000
F00000
F00000
F00000
F00000
FFFFE0
FFFFE0
FFFFE0
F00000
F00000
F00000
F00000
F00000
F00000
F00000
F00000
F00000
F00000
FFFFF0
FFFFF0
FFFFF0
ENDCHAR
STARTCHAR 0205
ENCODING 517
SWIDTH 525 0
DWIDTH 21 0
BBX 20 29 1 0
BITMAP
3CF800
3E7800
1E3C00
0F3C00
071C00
038E00
000000
000000
01FC00
0FFF00
1FFF80
3E07C0
7C03E0
7801E0
F000E0
F000F0
FFFFF0
FFFFF0
FFFFF0
F00000
F00000
F00000
7800E0
7801E0
7C03E0
3F07C0
1FFF80
0FFF00
01FC00
ENDCHAR
STARTCHAR 0206
ENCODING 518
SWIDTH 625 0
DWIDTH 25 0
BBX 20 36 3 0
BITMAP
00F800
01FE00
03FF00
078700
060300
000000
000000
FFFFF0
FFFFF0
FFFFF0
F00000
F00000
F00000
F00000
F00000
F00000
F00000
F00000
F00000
F00000
FFFFE0
FFFFE0
FFFFE0
F00000
F00000
F00000
F00000
F00000
F00000
F00000
F00000
F00000
F00000
FFFFF0
FFFFF0
FFFFF0
ENDCHAR
STARTCHAR 0207
ENCODING 519
SWIDTH 525 0
DWIDTH 21 0
BBX 20 28 1 1
BITMAP
01FC00
03FE00
07FE00
060700
060300
000000
000000
01FC00
0FFF00
1FFF80
3E07C0
7C03E0
7801E0
F000E0
F000F0
FFFFF0
FFFFF0
FFFFF0
F00000
F00000
F00000
7800E0
7801E0
7C03E0
3F07C0
1FFF80
0FFF00
01FC00
ENDCHAR
STARTCHAR 0208
ENCODING 520
SWIDTH 300 0
DWIDTH 12 0
BBX 13 36 -1 0
BITMAP
F9F0
3CF0
1C70
0E78
0638
0000
0000
0780
0780
0780
0780
0780
0780
0780
0780
0780
0780
0780
0780
0780
0780
0780
0780
0780
0780
0780
0780
0780
0780
0780
0780
0780
0780
0780
0780
0780
ENDCHAR
STARTCHAR 0209
ENCODING 521
SWIDTH 250 0
DWIDTH 10 0
BBX 13 29 -3 0
BITMAP
F9E0
78F0
3CF0
1C70
0E38
0638
0000
0000
01E0
01E0
01E0
01E0
01E0
01E0
01E0
01E0
01E0
01E0
01E0
01E0
01E0
01E0
01E0
01E0
01E0
01E0
01E0
01E0
01E0
ENDCHAR
STARTCHAR 020A
ENCODING 522
SWIDTH 300 0
DWIDTH 12 0
BBX 11 36 1 0
BITMAP
1F00
7F80
FFC0
E1C0
C0E0
0000
0000
1E00
1E00
1E00
1E00
1E00
1E00
1E00
1E00
1E00
1E00
1E00
1E00
1E00
1E00
1E00
1E00
1E00
1E00
1E00
1E00
1E00
1E00
1E00
1E00
1E00
1E00
1E00
1E00
1E00
ENDCHAR
STARTCHAR 020B
ENCODING 523
SWIDTH 250 0
DWIDTH 10 0
BBX 11 28 0 1
BITMAP
3F80
7FC0
FFC0
C0E0
C060
0000
0000
0F00
0F00
0F00
0F00
0F00
0F00
0F00
0F00
0F00
0F00
0F00
0F00
0F00
0F00
0F00
0F00
0F00
0F00
0F00
0F00
0F00
ENDCHAR
STARTCHAR 020C
ENCODING 524
SWIDTH 775 0
DWIDTH 31 0
BBX 28 36 2 0
BITMAP
07CF8000
01E78000
00E38000
0073C000
0031C000
00000000
00000000
003FC000
01FFF800
03FFFC00
0FE07F00
1F801F80
1E000780
3C0007C0
7C0003E0
780001E0
780001E0
F00001F0
F00000F0
F00000F0
F00000F0
F00000F0
F00000F0
F00000F0
F00000F0
F00001F0
780001E0
780001E0
7C0003E0
3C0003C0
1E000780
1F801F80
0FE07F00
03FFFC00
01FFF800
003FC000
ENDCHAR
STARTCHAR 020D
ENCODING 525
SWIDTH 525 0
DWIDTH 21 0
BBX 20 29 1 0
BITMAP
78F000
3CF000
3C7800
1E3800
0E3800
071C00
000000
000000
03FC00
0FFF00
1FFF80
3E0FC0
7C03E0
7801E0
7801E0
F000F0
F000F0
F000F0
F000F0
F000F0
F000F0
F000F0
7801E0
7801E0
7C03E0
3E0FC0
1FFF80
0FFF00
03FC00
ENDCHAR
STARTCHAR 020E
ENCODING 526
SWIDTH 775 0
DWIDTH 31 0
BBX 28 36 2 0
BITMAP
001F0000
003FC000
007FE000
00F0E000
00C06000
00000000
00000000
003FC000
01FFF800
03FFFC00
0FE07F00
1F801F80
1E000780
3C0007C0
7C0003E0
780001E0
780001E0
F00001F0
F00000F0
F00000F0
F00000F0
F00000F0
F00000F0
F00000F0
F00000F0
F00001F0
780001E0
780001E0
7C0003E0
3C0003C0
1E000780
1F801F80
0FE07F00
03FFFC00
01FFF800
003FC000
ENDCHAR
STARTCHAR 020F
ENCODING 527
SWIDTH 525 0
DWIDTH 21 0
BBX 20 28 1 1
BITMAP
01FC00
03FE00
07FE00
060600
060300
000000
000000
03FC00
0FFF00
1FFF80
3E0FC0
7C03E0
7801E0
7801E0
F000F0
F000F0
F000F0
F000F0
F000F0
F000F0
F000F0
7801E0
7801E0
7C03E0
3E0FC0
1FFF80
0FFF00
03FC00
ENDCHAR
STARTCHAR 0210
ENCODING 528
SWIDTH 700 0
DWIDTH 28 0
BBX 23 36 3 0
BITMAP
3E7C00
0F3C00
071C00
039E00
018E00
000000
000000
FFFF80
FFFFE0
FFFFF0
F001F8
F00078
F0003C
F0003C
F0003C
F0003C
F0003C
F00038
F00078
F000F0
FFFFE0
FFFFC0
FFFFF0
F000F8
F00078
F0003C
F0003C
F0003C
F0003C
F0003C
F0003C
F0003C
F0003C
F0003C
F0003E
F0003E
ENDCHAR
STARTCHAR 0211
ENCODING 529
SWIDTH 325 0
DWIDTH 13 0
BBX 14 29 -1 0
BITMAP
F9E0
78F0
3CF0
1C70
0E38
0638
0000
0000
1C3C
1C7C
1DFC
1FE0
1F80
1F00
1E00
1E00
1E00
1E00
1E00
1E00
1E00
1E00
1E00
1E00
1E00
1E00
1E00
1E00
1E00
ENDCHAR
STARTCHAR 0212
ENCODING 530
SWIDTH 700 0
DWIDTH 28 0
BBX 23 36 3 0
BITMAP
007C00
01FE00
03FF00
038700
030380
000000
000000
FFFF80
FFFFE0
FFFFF0
F001F8
F00078
F0003C
F0003C
F0003C
F0003C
F0003C
F00038
F00078
F000F0
FFFFE0
FFFFC0
FFFFF0
F000F8
F00078
F0003C
F0003C
F0003C
F0003C
F0003C
F0003C
F0003C
F0003C
F0003C
F0003E
F0003E
ENDCHAR
STARTCHAR 0213
ENCODING 531
SWIDTH 325 0
DWIDTH 13 0
BBX 11 28 2 1
BITMAP
3F80
7FC0
7FE0
6060
C060
0000
0000
E1E0
E3E0
EFE0
FF00
FC00
F800
F000
F000
F000
F000
F000
F000
F000
F000
F000
F000
F000
F000
F000
F000
F000
ENDCHAR
STARTCHAR 0214
ENCODING 532
SWIDTH 725 0
DWIDTH 29 0
BBX 23 36 3 0
BITMAP
1F3E00
079E00
038E00
01CF00
00C700
000000
000000
F0001E
F0001E
F0001E
F0001E
F0001E
F0001E
F0001E
F0001E
F0001E
F0001E
F0001E
F0001E
F0001E
F0001E
F0001E
F0001E
F0001E
F0001E
F0001E
F0001E
F0001E
F0001E
F0003E
78003C
7C007C
3F01F8
1FFFF0
07FFC0
01FF00
ENDCHAR
STARTCHAR 0215
ENCODING 533
SWIDTH 525 0
DWIDTH 21 0
BBX 18 29 2 0
BITMAP
7CF800
3C7800
1E3800
0E3C00
071C00
030C00
000000
000000
F003C0
F003C0
F003C0
F003C0
F003C0
F003C0
F003C0
F003C0
F003C0
F003C0
F003C0
F003C0
F003C0
F003C0
F007C0
F007C0
F80FC0
FC1FC0
7FFDC0
3FF9C0
0FE1C0
ENDCHAR
STARTCHAR 0216
ENCODING 534
SWIDTH 725 0
DWIDTH 29 0
BBX 23 36 3 0
BITMAP
007C00
00FF00
01FF80
03C380
030180
000000
000000
F0001E
F0001E
F0001E
F0001E
F0001E
F0001E
F0001E
F0001E
F0001E
F0001E
F0001E
F0001E
F0001E
F0001E
F0001E
F0001E
F0001E
F0001E
F0001E
F0001E
F0001E
F0001E
F0003E
78003C
7C007C
3F01F8
1FFFF0
07FFC0
01FF00
ENDCHAR
STARTCHAR 0217
ENCODING 535
SWIDTH 525 0
DWIDTH 21 0
BBX 18 28 2 1
BITMAP
03F800
07FC00
0FFC00
0C0C00
0C0600
000000
000000
F003C0
F003C0
F003C0
F003C0
F003C0
F003C0
F003C0
F003C0
F003C0
F003C0
F003C0
F003C0
F003C0
F003C0
F007C0
F007C0
F80FC0
FC1FC0
7FFDC0
3FF9C0
0FE1C0
ENDCHAR
STARTCHAR 0218
ENCODING 536
SWIDTH 675 0
DWIDTH 27 0
BBX 23 41 2 -12
BITMAP
01FE00
07FFC0
1FFFE0
3F03F0
3C00F8
7C0078
78003C
78003C
78003C
780000
7C0000
3F0000
3FF000
0FFF00
03FFE0
007FF0
0007F8
0000FC
00003E
F0001E
F0001E
F0001E
78001E
78003C
7C007C
3F01F8
1FFFF0
07FFE0
01FF00
000000
000000
000000
007800
007800
007800
007800
001800
001800
003800
007000
006000
ENDCHAR
STARTCHAR 0219
ENCODING 537
SWIDTH 500 0
DWIDTH 20 0
BBX 17 33 2 -12
BITMAP
07F000
1FFC00
7FFE00
7C1E00
F00F00
F00F00
F00000
F00000
FC0000
7FC000
1FF800
07FE00
007F00
000F80
F00780
F00780
F80780
7C1F00
7FFF00
3FFC00
0FF000
000000
000000
000000
03C000
03C000
03C000
03C000
00C000
00C000
01C000
038000
030000
ENDCHAR
STARTCHAR 021A
ENCODING 538
SWIDTH 625 0
DWIDTH 25 0
BBX 22 41 2 -12
BITMAP
FFFFFC
FFFFFC
FFFFFC
007800
007800
007800
007800
007800
007800
007800
007800
007800
007800
007800
007800
007800
007800
007800
007800
007800
007800
007800
007800
007800
007800
007800
007800
007800
007800
000000
000000
000000
00F000
00F000
00F000
00F000
003000
003000
007000
00E000
00C000
ENDCHAR
STARTCHAR 021B
ENCODING 539
SWIDTH 275 0
DWIDTH 11 0
BBX 8 38 2 -12
BITMAP
3C
3C
3C
3C
3C
FF
FF
FF
3C
3C
3C
3C
3C
3C
3C
3C
3C
3C
3C
3C
3C
3C
3C
3F
3F
1F
00
00
00
3C
3C
3C
3C
0C
0C
1C
38
30
ENDCHAR
STARTCHAR 021C
ENCODING 540
SWIDTH 550 0
DWIDTH 22 0
BBX 19 32 2 -5
BITMAP
07F800
1FFE00
3FFF00
7E0F80
780780
7803C0
F003C0
F003C0
F003C0
0003C0
000780
000F80
001F00
007E00
03FF00
07FF80
07C7C0
0303E0
0001E0
0001E0
0001E0
0001E0
0003E0
000FC0
001FC0
007F80
01FF00
0FFC00
7FF000
FFC000
7E0000
700000
ENDCHAR
STARTCHAR 021D
ENCODING 541
SWIDTH 425 0
DWIDTH 17 0
BBX 15 25 1 -3
BITMAP
0FC0
3FF0
7FF8
7C78
F83C
F03C
F03C
003C
007C
00F8
03F0
0FF8
0FFC
063E
001E
001E
001E
003E
007C
00F8
07F0
1FE0
7F00
7C00
6000
ENDCHAR
STARTCHAR 021E
ENCODING 542
SWIDTH 725 0
DWIDTH 29 0
BBX 23 36 3 0
BITMAP
038380
01C700
00FE00
007C00
007C00
000000
000000
F0001E
F0001E
F0001E
F0001E
F0001E
F0001E
F0001E
F0001E
F0001E
F0001E
F0001E
F0001E
F0001E
FFFFFE
FFFFFE
FFFFFE
F0001E
F0001E
F0001E
F0001E
F0001E
F0001E
F0001E
F0001E
F0001E
F0001E
F0001E
F0001E
F0001E
ENDCHAR
STARTCHAR 021F
ENCODING 543
SWIDTH 525 0
DWIDTH 21 0
BBX 18 35 2 1
BITMAP
060E00
031C00
039C00
01F800
01F000
00F000
F00000
F00000
F00000
F00000
F00000
F00000
F00000
F00000
F0FC00
F3FF00
F7FF80
FE0FC0
FC07C0
F803C0
F803C0
F003C0
F003C0
F003C0
F003C0
F003C0
F003C0
F003C0
F003C0
F003C0
F003C0
F003C0
F003C0
F003C0
F003C0
ENDCHAR
STARTCHAR 0220
ENCODING 544
SWIDTH 725 0
DWIDTH 29 0
BBX 23 38 3 -10
BITMAP
F1FF00
FFFFC0
FFFFF0
FF01F8
FC007C
F8003C
F8003E
F0001E
F0001E
F0001E
F0001E
F0001E
F0001E
F0001E
F0001E
F0001E
F0001E
F0001E
F0001E
F0001E
F0001E
F0001E
F0001E
F0001E
F0001E
F0001E
F0001E
F0001E
F0001E
00001E
00001E
00001E
00001E
00001E
00001E
00001E
00001E
00001E
ENDCHAR
STARTCHAR 0224
ENCODING 548
SWIDTH 625 0
DWIDTH 25 0
BBX 22 38 2 -9
BITMAP
7FFFFC
7FFFFC
7FFFFC
00007C
0000F8
0001F0
0001E0
0003E0
0007C0
000F80
000F00
001F00
003E00
007C00
007800
00F000
01F000
03E000
03C000
078000
0F8000
1F0000
1E0000
3C0000
7C0000
F80000
FFFFFC
FFFFFC
FFFFFC
00003C
00003C
00003C
00003C
00003C
00007C
0003FC
0003F8
0003E0
ENDCHAR
STARTCHAR 0225
ENCODING 549
SWIDTH 475 0
DWIDTH 19 0
BBX 17 30 2 -9
BITMAP
7FFF00
7FFF00
7FFF00
000F00
001E00
003C00
007800
007800
00F000
01E000
03C000
078000
0F0000
0F0000
1E0000
3C0000
780000
F00000
FFFF80
FFFF80
FFFF80
000780
000780
000780
000780
000780
000F80
007F80
007F00
007C00
ENDCHAR
STARTCHAR 0226
ENCODING 550
SWIDTH 675 0
DWIDTH 27 0
BBX 25 35 1 1
BITMAP
001E0000
001E0000
001E0000
001E0000
00000000
00000000
003E0000
007E0000
007F0000
007F0000
00F70000
00F78000
00E78000
01E38000
01E3C000
01C3C000
03C1E000
03C1E000
0781E000
0780F000
0700F000
0F00F000
0F007800
0FFFF800
1FFFF800
1FFFFC00
1C003C00
3C003C00
3C001E00
38001E00
78001E00
78000F00
F0000F00
F0000F80
F0000780
ENDCHAR
STARTCHAR 0227
ENCODING 551
SWIDTH 550 0
DWIDTH 22 0
BBX 21 29 1 0
BITMAP
00F000
00F000
00F000
00F000
000000
000000
000000
000000
03FC00
1FFF00
3FFF80
3E0FC0
7C03C0
7803C0
0003C0
0003C0
000FC0
03FFC0
1FFFC0
7FE3C0
7C03C0
F803C0
F003C0
F007C0
F00FC0
7C1FC0
7FFBF8
3FF1F8
0FC0F8
ENDCHAR
STARTCHAR 0228
ENCODING 552
SWIDTH 625 0
DWIDTH 25 0
BBX 20 37 3 -8
BITMAP
FFFFF0
FFFFF0
FFFFF0
F00000
F00000
F00000
F00000
F00000
F00000
F00000
F00000
F00000
F00000
FFFFE0
FFFFE0
FFFFE0
F00000
F00000
F00000
F00000
F00000
F00000
F00000
F00000
F00000
F00000
FFFFF0
FFFFF0
FFFFF0
002000
006000
007C00
000E00
000E00
061E00
07FC00
00F800
ENDCHAR
STARTCHAR 0229
ENCODING 553
SWIDTH 525 0
DWIDTH 21 0
BBX 20 30 1 -9
BITMAP
01F800
07FF00
1FFF80
3F0FC0
3C03E0
7801E0
7800E0
F000F0
F000F0
FFFFF0
FFFFF0
FFFFF0
F00000
F00000
F00000
7801E0
7801E0
7C03E0
3E07C0
1FFF80
0FFF00
03FC00
004000
00C000
00F800
001C00
001C00
063C00
0FF800
01F000
ENDCHAR
STARTCHAR 022A
ENCODING 554
SWIDTH 775 0
DWIDTH 31 0
BBX 28 39 2 0
BITMAP
00FFE000
00FFE000
00FFE000
00000000
00000000
00F0F000
00F0F000
00F0F000
00F0F000
00000000
003FC000
01FFF800
03FFFC00
0FE07F00
1F801F80
1E000780
3C0007C0
7C0003E0
780001E0
780001E0
F00001F0
F00000F0
F00000F0
F00000F0
F00000F0
F00000F0
F00000F0
F00000F0
F00001F0
780001E0
780001E0
7C0003E0
3C0003C0
1E000780
1F801F80
0FE07F00
03FFFC00
01FFF800
003FC000
ENDCHAR
STARTCHAR 022B
ENCODING 555
SWIDTH 525 0
DWIDTH 21 0
BBX 20 32 1 0
BITMAP
07FF00
07FF00
07FF00
000000
000000
0F0F00
0F0F00
0F0F00
0F0F00
000000
000000
03FC00
0FFF00
1FFF80
3E0FC0
7C03E0
7801E0
7801E0
F000F0
F000F0
F000F0
F000F0
F000F0
F000F0
F000F0
7801E0
7801E0
7C03E0
3E0FC0
1FFF80
0FFF00
03FC00
ENDCHAR
STARTCHAR 022C
ENCODING 556
SWIDTH 775 0
DWIDTH 31 0
BBX 28 40 2 0
BITMAP
00FFE000
00FFE000
00FFE000
00206000
00F8E000
00FFE000
01DFC000
01C7C000
00000000
00000000
00000000
003FC000
01FFF800
03FFFC00
0FE07F00
1F801F80
1E000780
3C0007C0
7C0003E0
780001E0
780001E0
F00001F0
F00000F0
F00000F0
F00000F0
F00000F0
F00000F0
F00000F0
F00000F0
F00001F0
780001E0
780001E0
7C0003E0
3C0003C0
1E000780
1F801F80
0FE07F00
03FFFC00
01FFF800
003FC000
ENDCHAR
STARTCHAR 022D
ENCODING 557
SWIDTH 525 0
DWIDTH 21 0
BBX 20 32 1 0
BITMAP
07FF00
07FF00
07FF00
000000
078600
0FFE00
0FFE00
0C7C00
1C0000
000000
000000
03FC00
0FFF00
1FFF80
3E0FC0
7C03E0
7801E0
7801E0
F000F0
F000F0
F000F0
F000F0
F000F0
F000F0
F000F0
7801E0
7801E0
7C03E0
3E0FC0
1FFF80
0FFF00
03FC00
ENDCHAR
STARTCHAR 022E
ENCODING 558
SWIDTH 775 0
DWIDTH 31 0
BBX 28 35 2 1
BITMAP
000F0000
000F0000
000F0000
000F0000
00000000
00000000
003FC000
01FFF800
03FFFC00
0FE07F00
1F801F80
1E000780
3C0007C0
7C0003E0
780001E0
780001E0
F00001F0
F00000F0
F00000F0
F00000F0
F00000F0
F00000F0
F00000F0
F00000F0
F00001F0
780001E0
780001E0
7C0003E0
3C0003C0
1E000780
1F801F80
0FE07F00
03FFFC00
01FFF800
003FC000
ENDCHAR
STARTCHAR 022F
ENCODING 559
SWIDTH 525 0
DWIDTH 21 0
BBX 20 27 1 1
BITMAP
00F000
00F000
00F000
00F000
000000
000000
03FC00
0FFF00
1FFF80
3E0FC0
7C03E0
7801E0
7801E0
F000F0
F000F0
F000F0
F000F0
F000F0
F000F0
F000F0
7801E0
7801E0
7C03E0
3E0FC0
1FFF80
0FFF00
03FC00
ENDCHAR
STARTCHAR 0230
ENCODING 560
SWIDTH 775 0
DWIDTH 31 0
BBX 28 39 2 1
BITMAP
00FFE000
00FFE000
00FFE000
00000000
000F0000
000F0000
000F0000
000F0000
00000000
00000000
003FC000
01FFF800
03FFFC00
0FE07F00
1F801F80
1E000780
3C0007C0
7C0003E0
780001E0
780001E0
F00001F0
F00000F0
F00000F0
F00000F0
F00000F0
F00000F0
F00000F0
F00000F0
F00001F0
780001E0
780001E0
7C0003E0
3C0003C0
1E000780
1F801F80
0FE07F00
03FFFC00
01FFF800
003FC000
ENDCHAR
STARTCHAR 0231
ENCODING 561
SWIDTH 525 0
DWIDTH 21 0
BBX 20 32 1 1
BITMAP
0FFE00
0FFE00
0FFE00
000000
000000
00F000
00F000
00F000
00F000
000000
000000
03FC00
0FFF00
1FFF80
3E0FC0
7C03E0
7801E0
7801E0
F000F0
F000F0
F000F0
F000F0
F000F0
F000F0
F000F0
7801E0
7801E0
7C03E0
3E0FC0
1FFF80
0FFF00
03FC00
ENDCHAR
STARTCHAR 0232
ENCODING 562
SWIDTH 675 0
DWIDTH 27 0
BBX 26 34 1 0
BITMAP
01FFC000
01FFC000
01FFC000
00000000
00000000
F80007C0
78000780
7C000F00
3E001F00
1E001E00
1F003E00
0F003C00
07807800
07C0F800
03C0F000
03E1E000
01E1E000
00F3C000
00FFC000
007F8000
003F0000
003F0000
001E0000
001E0000
001E0000
001E0000
001E0000
001E0000
001E0000
001E0000
001E0000
001E0000
001E0000
001E0000
ENDCHAR
STARTCHAR 0233
ENCODING 563
SWIDTH 475 0
DWIDTH 19 0
BBX 18 35 1 -9
BITMAP
1FFC00
1FFC00
1FFC00
000000
000000
E003C0
E00380
F00780
700700
700700
780F00
380E00
381E00
3C1E00
1C1C00
1C3C00
1E3C00
0E3800
0E7800
0F7000
077000
07F000
07E000
03E000
03E000
03C000
03C000
03C000
038000
078000
070000
0F0000
7F0000
7E0000
780000
ENDCHAR
STARTCHAR 0237
ENCODING 567
SWIDTH 225 0
DWIDTH 9 0
BBX 8 30 -1 -9
BITMAP
0F
0F
0F
0F
0F
0F
0F
0F
0F
0F
0F
0F
0F
0F
0F
0F
0F
0F
0F
0F
0F
0F
0F
0F
0F
0F
1F
FF
FE
F8
ENDCHAR
STARTCHAR 0238
ENCODING 568
SWIDTH 925 0
DWIDTH 37 0
BBX 35 29 1 0
BITMAP
0000F00000
0000F00000
0000F00000
0000F00000
0000F00000
0000F00000
0000F00000
0000F00000
03F8F1F800
0FFCF3FE00
1FFEF7FF00
3F0FFE0F80
7C03FC07C0
7801F803C0
7801F803E0
F000F001E0
F000F001E0
F000F001E0
F000F001E0
F000F001E0
F000F001E0
F000F001E0
7801F803C0
7801F803C0
7C03FC07C0
3F07FE0F80
1FFFB7FF00
0FFF33FE00
03F831F800
ENDCHAR
STARTCHAR 0239
ENCODING 569
SWIDTH 925 0
DWIDTH 37 0
BBX 35 28 1 -7
BITMAP
03F831F800
0FFF33FE00
1FFFB7FF00
3F0FFE0F80
7C03FC07C0
7801F803C0
7801F803C0
F000F001E0
F000F001E0
F000F001E0
F000F001E0
F000F001E0
F000F001E0
F000F001E0
F801F803E0
7801F803C0
7C03FC07C0
3F07FE0F80
1FFEFFFF00
0FFCF7FE00
03F8F1F800
0000F00000
0000F00000
0000F00000
0000F00000
0000F00000
0000F00000
0000F00000
ENDCHAR
STARTCHAR 0250
ENCODING 592
SWIDTH 550 0
DWIDTH 22 0
BBX 21 21 0 -1
BITMAP
300C00
FC7FC0
FCFFE0
7FFFF0
1F80F0
1F0078
1E0078
1E00F8
1E01F0
1E0FF0
1FFFE0
1FFF00
1FC000
1E0000
1E0000
1E00F0
1E01F0
1F01E0
1FFFE0
0FFFC0
03FF00
ENDCHAR
STARTCHAR 0251
ENCODING 593
SWIDTH 575 0
DWIDTH 23 0
BBX 22 21 1 0
BITMAP
03E1E0
0FF9E0
1FFDE0
3E1FE0
7C07E0
7807E0
7803E0
F003E0
F001E0
F001E0
F001E0
F001E0
F001E0
F003E0
7803E0
7803E0
7C07E0
3F0FE0
1FFFFC
0FF8FC
03F07C
ENDCHAR
STARTCHAR 0252
ENCODING 594
SWIDTH 575 0
DWIDTH 23 0
BBX 22 21 0 -1
BITMAP
F83F00
FC7F80
FFFFE0
3FC3F0
1F80F0
1F00F8
1F0078
1E007C
1E003C
1E003C
1E003C
1E003C
1E003C
1E007C
1F0078
1F0078
1F80F8
1FC1F0
1EFFE0
1E7FC0
1E3F00
ENDCHAR
STARTCHAR 0253
ENCODING 595
SWIDTH 550 0
DWIDTH 22 0
BBX 20 29 2 0
BITMAP
1F0000
7F0000
FF0000
F80000
F00000
F00000
F00000
F00000
F0FC00
F3FF00
F7FF80
FF0FC0
FC03E0
F801E0
F801E0
F000F0
F000F0
F000F0
F000F0
F000F0
F000F0
F000F0
F801E0
F801E0
FC03E0
FE0FC0
EFFF80
E7FF00
E1FC00
ENDCHAR
STARTCHAR 0254
ENCODING 596
SWIDTH 500 0
DWIDTH 20 0
BBX 19 21 0 -1
BITMAP
00E000
0FFC00
1FFF00
3F9F80
7C07C0
7803C0
7803E0
F001E0
0001E0
0001E0
0001E0
0001E0
0001E0
0001E0
F801E0
7803C0
7803C0
7C0F80
3FFF80
1FFE00
07FC00
ENDCHAR
STARTCHAR 0255
ENCODING 597
SWIDTH 500 0
DWIDTH 20 0
BBX 20 22 0 -1
BITMAP
00FC00
07FF00
0FFFC0
1F87C0
1E01E0
3C01E0
3C00F0
780000
780000
780000
780000
780000
781F00
787FC0
38FFE0
3FF0E0
3FC0E0
1F01E0
3FFFC0
FBFF80
70FE00
200000
ENDCHAR
STARTCHAR 0256
ENCODING 598
SWIDTH 600 0
DWIDTH 24 0
BBX 24 38 1 -9
BITMAP
0000F0
0000F0
0000F0
0000F0
0000F0
0000F0
0000F0
0000F0
03F8F0
0FFCF0
1FFEF0
3F0FF0
7C03F0
7801F0
7801F0
F000F0
F000F0
F000F0
F000F0
F000F0
F000F0
F000F0
7801F0
7801F0
7C03F0
3F07F0
1FFF70
0FFE70
03F870
000070
000070
000070
000070
000070
000078
00007F
00003F
00000F
ENDCHAR
STARTCHAR 0257
ENCODING 599
SWIDTH 600 0
DWIDTH 24 0
BBX 23 29 1 0
BITMAP
00001E
00007E
00007E
0000F8
0000F0
0000F0
0000F0
0000F0
03F8F0
0FFCF0
1FFEF0
3F0FF0
7C03F0
7801F0
7801F0
F000F0
F000F0
F000F0
F000F0
F000F0
F000F0
F000F0
7801F0
7801F0
7C03F0
3F07F0
1FFF70
0FFE70
03F870
ENDCHAR
STARTCHAR 0258
ENCODING 600
SWIDTH 525 0
DWIDTH 21 0
BBX 20 21 1 0
BITMAP
03F800
0FFF00
1FFF80
3E07C0
7C03E0
7801E0
7000E0
F000F0
FFFFF0
FFFFF0
FFFFF0
0000F0
0000F0
0000F0
7001E0
7801E0
7C03C0
3E0FC0
1FFF80
0FFF00
03F800
ENDCHAR
STARTCHAR 0259
ENCODING 601
SWIDTH 525 0
DWIDTH 21 0
BBX 20 21 0 -1
BITMAP
007000
07FE00
0FFF80
1F9FC0
3C03E0
7C01E0
7801F0
0000F0
0000F0
0000F0
FFFFF0
FFFFF0
FFFFF0
7000F0
7000F0
7800F0
7C01E0
3E03E0
1FFFC0
0FFF80
07FE00
ENDCHAR
STARTCHAR 025A
ENCODING 602
SWIDTH 775 0
DWIDTH 31 0
BBX 30 22 1 0
BITMAP
00000E00
03F81F00
0FFE3F00
1FFFFF00
3E0FF380
7C03E380
7801E380
7001E180
0000F1C4
0000F1CC
0000F0FC
FFFFF0FC
FFFFF078
FFFFF000
F000F000
F000E000
7801E000
7C03E000
3E07C000
1FFF8000
0FFF0000
03F80000
ENDCHAR
STARTCHAR 025B
ENCODING 603
SWIDTH 475 0
DWIDTH 19 0
BBX 18 21 1 0
BITMAP
03F800
0FFE00
3FFF00
3E0F00
780780
780780
780000
780000
3C0000
1FC000
1FC000
7FC000
7C0000
F80000
F003C0
F003C0
F007C0
7C0F80
7FFF00
1FFE00
07F800
ENDCHAR
STARTCHAR 025C
ENCODING 604
SWIDTH 475 0
DWIDTH 19 0
BBX 18 21 1 0
BITMAP
07F000
1FFC00
3FFF00
3C1F00
780780
780780
000780
000780
000F00
00FE00
00FE00
00FF80
000F80
0007C0
F003C0
F003C0
F807C0
7C0F80
3FFF80
1FFE00
07F800
ENDCHAR
STARTCHAR 025D
ENCODING 605
SWIDTH 725 0
DWIDTH 29 0
BBX 28 22 1 0
BITMAP
00003800
07F07C00
1FFDFC00
3FFFFC00
7C1F8E00
78078E00
78078E00
00078710
00078710
000F03F0
00FE03F0
00FE01E0
00FF8000
000F8000
0007C000
F003C000
F003C000
F807C000
7C0F8000
3FFF8000
1FFE0000
07F80000
ENDCHAR
STARTCHAR 025E
ENCODING 606
SWIDTH 500 0
DWIDTH 20 0
BBX 19 21 1 0
BITMAP
07F800
1FFE00
3FFF80
7E0F80
7803C0
7803C0
F003C0
F003C0
F00780
F07F00
F07F00
F07FC0
F007C0
F003E0
F001E0
7801E0
7C03E0
7E07C0
3FFFC0
1FFF00
03FC00
ENDCHAR
STARTCHAR 025F
ENCODING 607
SWIDTH 300 0
DWIDTH 12 0
BBX 10 30 0 -9
BITMAP
0F00
0F00
0F00
0F00
0F00
0F00
0F00
0F00
3FC0
3FC0
3FC0
0F00
0F00
0F00
0F00
0F00
0F00
0F00
0F00
0F00
0F00
0F00
0F00
0F00
0F00
0F00
1F00
FF00
FE00
F800
ENDCHAR
STARTCHAR 0260
ENCODING 608
SWIDTH 575 0
DWIDTH 23 0
BBX 22 35 1 -9
BITMAP
00003C
00007C
0000FC
0000F0
0000E0
03F0E0
0FFCE0
1FFEE0
3E0FE0
7C07E0
7803E0
7803E0
F001E0
F001E0
F001E0
F001E0
F001E0
F001E0
F001E0
7803E0
7803E0
7C07E0
3E0FE0
1FFDE0
0FF9E0
03F1E0
0001E0
0001E0
0003C0
7803C0
7C07C0
3E0F80
3FFF80
0FFE00
03F800
ENDCHAR
STARTCHAR 0261
ENCODING 609
SWIDTH 550 0
DWIDTH 22 0
BBX 21 30 1 -9
BITMAP
03F078
0FFCF8
1FFFF8
3E0FE0
7C07E0
7803E0
7803E0
F001E0
F001E0
F001E0
F001E0
F001E0
F001E0
F001E0
7803E0
7803E0
7C07E0
3E0FE0
1FFDE0
0FF9E0
03F1E0
0001E0
0001E0
0003C0
7803C0
7C07C0
3E0F80
3FFF80
0FFE00
03F800
ENDCHAR
STARTCHAR 0262
ENCODING 610
SWIDTH 550 0
DWIDTH 22 0
BBX 20 21 1 0
BITMAP
01FC00
07FF80
1FFFC0
3F03E0
3C01E0
7800F0
780000
F00000
F00000
F00000
F01FF0
F01FF0
F000F0
F000F0
7800F0
7801F0
7C03F0
3E07F0
1FFF70
0FFE30
01F830
ENDCHAR
STARTCHAR 0263
ENCODING 611
SWIDTH 475 0
DWIDTH 19 0
BBX 17 30 2 -9
BITMAP
E00380
F00780
700700
780F00
380F00
3C0E00
1C1E00
1C1C00
1E3C00
0E3800
0F7800
077000
07F000
03F000
03E000
01E000
01C000
03E000
03E000
07F000
077000
0F7800
0F7800
1E3C00
1E3C00
1E3C00
1F7C00
0FF800
0FF000
03E000
ENDCHAR
STARTCHAR 0264
ENCODING 612
SWIDTH 550 0
DWIDTH 22 0
BBX 22 22 0 0
BITMAP
070780
1FCFE0
3FFFF0
78FC78
787838
F0F83C
E0FC1C
E1FC1C
01DE00
03CE00
038700
038700
070780
070380
070380
070380
070380
078780
038700
03FF00
01FE00
007800
ENDCHAR
STARTCHAR 0265
ENCODING 613
SWIDTH 525 0
DWIDTH 21 0
BBX 18 29 1 -9
BITMAP
F003C0
F003C0
F003C0
F003C0
F003C0
F003C0
F003C0
F003C0
F003C0
F003C0
F003C0
F003C0
F003C0
F003C0
F003C0
F807C0
7807C0
7C1FC0
7FFFC0
3FFBC0
0FE3C0
0003C0
0003C0
0003C0
0003C0
0003C0
0003C0
0003C0
0003C0
ENDCHAR
STARTCHAR 0266
ENCODING 614
SWIDTH 525 0
DWIDTH 21 0
BBX 18 29 2 0
BITMAP
1E0000
7E0000
FE0000
F80000
F00000
F00000
F00000
F00000
F0FC00
F3FF00
F7FF80
FE0FC0
FC07C0
F803C0
F803C0
F003C0
F003C0
F003C0
F003C0
F003C0
F003C0
F003C0
F003C0
F003C0
F003C0
F003C0
F003C0
F003C0
F003C0
ENDCHAR
STARTCHAR 0267
ENCODING 615
SWIDTH 525 0
DWIDTH 21 0
BBX 18 38 2 -9
BITMAP
1E0000
7E0000
FE0000
F80000
F00000
F00000
F00000
F00000
F0FC00
F3FF00
F7FF80
FE0FC0
FC07C0
F803C0
F803C0
F003C0
F003C0
F003C0
F003C0
F003C0
F003C0
F003C0
F003C0
F003C0
F003C0
F003C0
F003C0
F003C0
F003C0
0003C0
0003C0
0003C0
0003C0
0003C0
0007C0
003FC0
003F80
003E00
ENDCHAR
STARTCHAR 0268
ENCODING 616
SWIDTH 275 0
DWIDTH 11 0
BBX 8 29 2 0
BITMAP
3C
3C
3C
3C
00
00
00
00
3C
3C
3C
3C
3C
3C
3C
3C
FF
FF
FF
3C
3C
3C
3C
3C
3C
3C
3C
3C
3C
ENDCHAR
STARTCHAR 0269
ENCODING 617
SWIDTH 250 0
DWIDTH 10 0
BBX 7 21 3 0
BITMAP
F0
F0
F0
F0
F0
F0
F0
F0
F0
F0
F0
F0
F0
F0
F0
F0
F0
F0
FE
7E
3E
ENDCHAR
STARTCHAR 026A
ENCODING 618
SWIDTH 275 0
DWIDTH 11 0
BBX 9 21 1 0
BITMAP
FF80
FF80
FF80
1C00
1C00
1C00
1C00
1C00
1C00
1C00
1C00
1C00
1C00
1C00
1C00
1C00
1C00
1C00
FF80
FF80
FF80
ENDCHAR
STARTCHAR 026B
ENCODING 619
SWIDTH 475 0
DWIDTH 19 0
BBX 17 29 1 0
BITMAP
03C000
03C000
03C000
03C000
03C000
03C000
03C000
03C000
03C000
03C000
03C000
3FC000
7FC000
FFC000
E7E180
C3F180
03FF80
03FF00
03DE00
03C000
03C000
03C000
03C000
03C000
03C000
03C000
03C000
03C000
03C000
ENDCHAR
STARTCHAR 026C
ENCODING 620
SWIDTH 425 0
DWIDTH 17 0
BBX 15 29 1 0
BITMAP
03C0
03C0
03C0
03C0
03C0
03C0
03C0
03C0
03C0
1FC0
7FC0
7FC0
F3C0
E3C0
F3C0
FFFE
7FFE
1FFE
03C0
03C0
03C0
03C0
03C0
03C0
03C0
03C0
03C0
03C0
03C0
ENDCHAR
STARTCHAR 026D
ENCODING 621
SWIDTH 250 0
DWIDTH 10 0
BBX 8 38 3 -9
BITMAP
F0
F0
F0
F0
F0
F0
F0
F0
F0
F0
F0
F0
F0
F0
F0
F0
F0
F0
F0
F0
F0
F0
F0
F0
F0
F0
F0
F0
F0
F0
F0
F0
F0
F0
F8
FF
7F
1F
ENDCHAR
STARTCHAR 026E
ENCODING 622
SWIDTH 600 0
DWIDTH 24 0
BBX 22 35 2 -6
BITMAP
F00000
F00000
F00000
F00000
F00000
F00000
F00000
F00000
FFFFE0
FFFFE0
FFFFE0
F001E0
F001C0
F00380
F00780
F00F00
F01E00
F03C00
F03F00
F03FE0
F03FF0
F000F8
F00078
F0003C
F0003C
F0003C
F0003C
F0003C
F0003C
020078
0F00F0
0F81F0
07FFE0
03FF80
00FE00
ENDCHAR
STARTCHAR 026F
ENCODING 623
SWIDTH 800 0
DWIDTH 32 0
BBX 29 21 1 -1
BITMAP
F00F0078
F00F0078
F00F0078
F00F0078
F00F0078
F00F0078
F00F0078
F00F0078
F00F0078
F00F0078
F00F0078
F00F0078
F00F0078
F00F0078
F00F8078
F80F8078
781F80F8
7C3FC1F8
7FF7FFF8
3FE3FF38
0FC0FE38
ENDCHAR
STARTCHAR 0270
ENCODING 624
SWIDTH 800 0
DWIDTH 32 0
BBX 29 28 2 -7
BITMAP
F0078078
F0078078
F0078078
F0078078
F0078078
F0078078
F0078078
F0078078
F0078078
F0078078
F0078078
F0078078
F0078078
F0078078
F0078078
F00F80F8
F81FC0F8
FC3FE3F8
7FFBFFB8
3FF1FF38
0FC07C38
00000038
00000038
00000038
00000038
00000038
00000038
00000038
ENDCHAR
STARTCHAR 0271
ENCODING 625
SWIDTH 800 0
DWIDTH 32 0
BBX 29 30 2 -9
BITMAP
E1F80FC0
E7FE3FE0
EFFF7FF0
FE1FF1F8
FC0FC0F8
F807C078
F0078078
F0078078
F0078078
F0078078
F0078078
F0078078
F0078078
F0078078
F0078078
F0078078
F0078078
F0078078
F0078078
F0078078
F0078078
00000078
00000078
00000078
00000078
00000078
000000F8
000003F8
000003F0
000003C0
ENDCHAR
STARTCHAR 0272
ENCODING 626
SWIDTH 575 0
DWIDTH 23 0
BBX 21 30 0 -9
BITMAP
0E1F80
0E7FE0
0EFFF0
0FE1F8
0FC0F8
0F8078
0F8078
0F0078
0F0078
0F0078
0F0078
0F0078
0F0078
0F0078
0F0078
0F0078
0F0078
0F0078
0F0078
0F0078
0F0078
0F0000
0F0000
0F0000
0F0000
0F0000
1F0000
FF0000
FE0000
F80000
ENDCHAR
STARTCHAR 0273
ENCODING 627
SWIDTH 575 0
DWIDTH 23 0
BBX 22 30 2 -9
BITMAP
E1FC00
E7FF00
EFFF80
FE0FC0
FC07C0
F803C0
F803C0
F003C0
F003C0
F003C0
F003C0
F003C0
F003C0
F003C0
F003C0
F003C0
F003C0
F003C0
F003C0
F003C0
F003C0
0003C0
0003C0
0003C0
0003C0
0003C0
0003E0
0003FC
0001FC
00007C
ENDCHAR
STARTCHAR 0274
ENCODING 628
SWIDTH 550 0
DWIDTH 22 0
BBX 18 21 2 0
BITMAP
F803C0
FC03C0
FC03C0
FE03C0
FE03C0
F703C0
F783C0
F383C0
F3C3C0
F1C3C0
F1E3C0
F0E3C0
F0F3C0
F073C0
F07BC0
F03BC0
F01FC0
F01FC0
F00FC0
F00FC0
F007C0
ENDCHAR
STARTCHAR 0275
ENCODING 629
SWIDTH 525 0
DWIDTH 21 0
BBX 20 21 1 0
BITMAP
03FC00
0FFF00
1FFF80
3E07C0
7C03E0
7801E0
7801E0
F000F0
F000F0
FFFFF0
FFFFF0
FFFFF0
F000F0
F000F0
7801E0
7801E0
7C03E0
3E0FC0
1FFF80
0FFF00
03FC00
ENDCHAR
STARTCHAR 0276
ENCODING 630
SWIDTH 750 0
DWIDTH 30 0
BBX 28 21 1 0
BITMAP
03F9FFF0
0FFFFFF0
1FFFFFF0
3E0FE000
7C03E000
7803E000
7801E000
F001E000
F001E000
F001FFC0
F001FFC0
F001FFC0
F001E000
F001E000
F001E000
7801E000
7C03E000
3E0FE000
1FFFFFF0
0FFFFFF0
03FDFFF0
ENDCHAR
STARTCHAR 0277
ENCODING 631
SWIDTH 725 0
DWIDTH 29 0
BBX 28 22 1 0
BITMAP
007FE000
03FFFC00
0FFFFF00
1FC03F80
3E0007C0
3C0003C0
780F01E0
780F01E0
F00F00F0
F00F00F0
F00F00F0
F00F00F0
F00F00F0
F00F00F0
F00F00F0
F00F00F0
780F01E0
781F81E0
3C3FC3C0
3FF9FFC0
1FF0FF80
07E07E00
ENDCHAR
STARTCHAR 0278
ENCODING 632
SWIDTH 700 0
DWIDTH 28 0
BBX 26 35 1 -7
BITMAP
001E0000
001E0000
001E0000
001E0000
001E0000
001E0000
001E0000
01FFC000
0FFFF800
1FFFFC00
3F1E3E00
7C1E1F00
781E0F80
F81E0780
F01E0780
F01E03C0
F01E03C0
F01E03C0
F01E03C0
F01E03C0
F01E0780
F81E0780
781E0F80
7C1E0F00
3F1E3F00
1FFFFE00
07FFF800
01FFE000
001E0000
001E0000
001E0000
001E0000
001E0000
001E0000
001E0000
ENDCHAR
STARTCHAR 0279
ENCODING 633
SWIDTH 325 0
DWIDTH 13 0
BBX 10 21 1 -1
BITMAP
03C0
03C0
03C0
03C0
03C0
03C0
03C0
03C0
03C0
03C0
03C0
03C0
03C0
03C0
03C0
07C0
07C0
1FC0
FDC0
F9C0
E1C0
ENDCHAR
STARTCHAR 027A
ENCODING 634
SWIDTH 325 0
DWIDTH 13 0
BBX 11 29 1 -1
BITMAP
01E0
01E0
01E0
01E0
01E0
01E0
01E0
01E0
01E0
01E0
01E0
01E0
01E0
01E0
01E0
01E0
01E0
01E0
01E0
01E0
01E0
01E0
01E0
03E0
07E0
1FE0
FEE0
F8E0
F0E0
ENDCHAR
STARTCHAR 027B
ENCODING 635
SWIDTH 375 0
DWIDTH 15 0
BBX 15 30 1 -9
BITMAP
01E0
01E0
01E0
01E0
01E0
01E0
01E0
01E0
01E0
01E0
01E0
01E0
01E0
01E0
01E0
03E0
07E0
1FE0
FEE0
F8E0
F0E0
00E0
00E0
00E0
00E0
00E0
00F0
00FE
007E
003E
ENDCHAR
STARTCHAR 027C
ENCODING 636
SWIDTH 325 0
DWIDTH 13 0
BBX 11 29 2 -9
BITMAP
E1E0
E7E0
EFE0
FF00
FC00
F800
F000
F000
F000
F000
F000
F000
F000
F000
F000
F000
F000
F000
F000
F000
F000
F000
F000
F000
F000
F000
F000
F000
F000
ENDCHAR
STARTCHAR 027D
ENCODING 637
SWIDTH 325 0
DWIDTH 13 0
BBX 11 30 2 -9
BITMAP
E1E0
E3E0
EFE0
FF00
FC00
F800
F000
F000
F000
F000
F000
F000
F000
F000
F000
F000
F000
F000
F000
F000
F000
F000
F000
F000
F000
F000
F800
FF00
7F00
1F00
ENDCHAR
STARTCHAR 027E
ENCODING 638
SWIDTH 375 0
DWIDTH 15 0
BBX 13 21 2 0
BITMAP
1FC0
7FF0
FFF8
F8F8
F078
F000
F000
F000
F000
F000
F000
F000
F000
F000
F000
F000
F000
F000
F000
F000
F000
ENDCHAR
STARTCHAR 027F
ENCODING 639
SWIDTH 375 0
DWIDTH 15 0
BBX 12 29 1 -8
BITMAP
1F80
7FE0
FFF0
F1F0
F0F0
00F0
00F0
00F0
00F0
00F0
00F0
00F0
00F0
00F0
00F0
00F0
00F0
00F0
00F0
00F0
00F0
00F0
00F0
00F0
00F0
00F0
00F0
00F0
00F0
ENDCHAR
STARTCHAR 0280
ENCODING 640
SWIDTH 525 0
DWIDTH 21 0
BBX 19 21 2 0
BITMAP
FFF800
FFFE00
FFFF00
F00F80
F00780
F00780
F00780
F00780
F00F80
FFFF00
FFFE00
FFF800
F1E000
F0F000
F07800
F03C00
F01E00
F00F00
F00780
F003C0
F003E0
ENDCHAR
STARTCHAR 0281
ENCODING 641
SWIDTH 525 0
DWIDTH 21 0
BBX 18 21 2 -1
BITMAP
F003C0
F00780
F00F00
F01E00
F01C00
F03C00
F07800
F0F000
F1E000
FFF000
FFFC00
FFFE00
F01F00
F00F00
F00F00
F00F00
F00F00
F01F00
FFFE00
FFFE00
FFF800
ENDCHAR
STARTCHAR 0282
ENCODING 642
SWIDTH 500 0
DWIDTH 20 0
BBX 18 30 1 -9
BITMAP
03F800
0FFE00
3FFF00
3E0F00
780780
780780
780000
780000
7E0000
3FE000
0FFC00
03FF00
003F80
0007C0
F003C0
F003C0
F803C0
FC0F80
FFFF80
FFFE00
F7F800
F00000
F00000
F00000
F00000
F00000
F80000
FF0000
7F0000
1F0000
ENDCHAR
STARTCHAR 0283
ENCODING 643
SWIDTH 300 0
DWIDTH 12 0
BBX 11 38 0 -9
BITMAP
01E0
07E0
07E0
0F80
0F00
0F00
0F00
0F00
0F00
0F00
0F00
0F00
0F00
0F00
0F00
0F00
0F00
0F00
0F00
0F00
0F00
0F00
0F00
0F00
0F00
0F00
0F00
0F00
0F00
0F00
0F00
0F00
0F00
0F00
1F00
FF00
FE00
F800
ENDCHAR
STARTCHAR 0284
ENCODING 644
SWIDTH 300 0
DWIDTH 12 0
BBX 10 38 0 -9
BITMAP
03C0
07C0
0FC0
0F00
0F00
0F00
0F00
0F00
0F00
0F00
0F00
0F00
0F00
0F00
0F00
0F00
3FC0
3FC0
3FC0
0F00
0F00
0F00
0F00
0F00
0F00
0F00
0F00
0F00
0F00
0F00
0F00
0F00
0F00
0F00
1F00
FF00
FE00
F800
ENDCHAR
STARTCHAR 0285
ENCODING 645
SWIDTH 300 0
DWIDTH 12 0
BBX 11 30 2 -9
BITMAP
F000
FC00
FC00
3E00
1E00
1E00
1E00
1E00
1E00
1E00
1E00
1E00
1E00
1E00
1E00
1E00
1E00
1E00
1E00
1E00
1E00
1E00
1E00
1E00
1E00
1E00
1F00
1FE0
0FE0
03E0
ENDCHAR
STARTCHAR 0286
ENCODING 646
SWIDTH 475 0
DWIDTH 19 0
BBX 18 38 1 -9
BITMAP
000F00
003F00
003F00
007C00
007800
007800
007800
007800
007800
007800
007800
007800
007800
007800
007800
007800
007800
007800
007800
007800
007800
007800
007800
007800
007800
007800
007800
007800
007800
3FF800
7FF800
FFFF00
F07FC0
E07F80
F0F880
7FF800
7FF000
1FC000
ENDCHAR
STARTCHAR 0287
ENCODING 647
SWIDTH 275 0
DWIDTH 11 0
BBX 8 26 1 0
BITMAP
F0
FC
FC
3C
3C
3C
3C
3C
3C
3C
3C
3C
3C
3C
3C
3C
3C
3C
FF
FF
FF
3C
3C
3C
3C
3C
ENDCHAR
STARTCHAR 0288
ENCODING 648
SWIDTH 275 0
DWIDTH 11 0
BBX 8 35 2 -9
BITMAP
3C
3C
3C
3C
3C
FF
FF
FF
3C
3C
3C
3C
3C
3C
3C
3C
3C
3C
3C
3C
3C
3C
3C
3C
3C
3C
3C
3C
3C
3C
3C
3C
3F
3F
1F
ENDCHAR
STARTCHAR 0289
ENCODING 649
SWIDTH 600 0
DWIDTH 24 0
BBX 23 21 1 0
BITMAP
3C00F0
3C00F0
3C00F0
3C00F0
3C00F0
3C00F0
3C00F0
3C00F0
FFFFFE
FFFFFE
FFFFFE
3C00F0
3C00F0
3C00F0
3C01F0
3C01F0
3E03F0
3F07F0
1FFF70
0FFE70
03F870
ENDCHAR
STARTCHAR 028A
ENCODING 650
SWIDTH 600 0
DWIDTH 24 0
BBX 23 22 1 0
BITMAP
FF83FE
FF83FE
FF83FE
0F83E0
1E00F0
3C0078
3C0078
78003C
78003C
F0001E
F0001E
F0001E
F0001E
F0001E
78003C
78003C
3C0078
3E00F8
1F83F0
0FFFE0
07FF80
00FE00
ENDCHAR
STARTCHAR 028B
ENCODING 651
SWIDTH 525 0
DWIDTH 21 0
BBX 18 21 2 0
BITMAP
F00000
F00000
F03C00
F01E00
F00F00
F00F00
F00780
F00780
F003C0
F003C0
F003C0
F003C0
F003C0
F00780
F00780
F00F00
F01F00
F83E00
FFFC00
FFF000
3FC000
ENDCHAR
STARTCHAR 028C
ENCODING 652
SWIDTH 500 0
DWIDTH 20 0
BBX 18 21 1 -1
BITMAP
01E000
01F000
03F000
03F000
03F800
07B800
073800
073C00
0F1C00
0E1C00
1E1E00
1E0E00
1C0E00
3C0F00
380700
380700
780780
700380
F003C0
F003C0
E001C0
ENDCHAR
STARTCHAR 028D
ENCODING 653
SWIDTH 725 0
DWIDTH 29 0
BBX 28 21 0 -1
BITMAP
03C01E00
03E03E00
03E03E00
07E03E00
07E03F00
07F07700
07707700
0F707780
0E787380
0E78E380
1E38E380
1E38E3C0
1C3CE1C0
1C3DC1C0
3C1DC1E0
3C1DC1E0
381FC0E0
780F80E0
780F80F0
780F80F0
F00F8070
ENDCHAR
STARTCHAR 028E
ENCODING 654
SWIDTH 475 0
DWIDTH 19 0
BBX 18 30 1 -1
BITMAP
000F00
003F00
003F00
007800
007000
00F000
00F000
00E000
01E000
01E000
03E000
03E000
03F000
07F000
07F000
077800
0F3800
0E3800
0E3C00
1E1C00
1C1C00
3C1E00
3C0E00
380F00
780F00
780700
700780
F00780
F00380
E003C0
ENDCHAR
STARTCHAR 028F
ENCODING 655
SWIDTH 500 0
DWIDTH 20 0
BBX 20 21 1 0
BITMAP
F000F0
7801E0
7801C0
3C03C0
1E0780
1E0780
0F0F00
079E00
079E00
03FC00
03F800
01F800
00F000
00F000
00F000
00F000
00F000
00F000
00F000
00F000
00F000
ENDCHAR
STARTCHAR 0290
ENCODING 656
SWIDTH 575 0
DWIDTH 23 0
BBX 21 30 2 -9
BITMAP
7FFF00
7FFF00
7FFF00
000F00
001E00
003C00
007800
007800
00F000
01E000
03C000
078000
0F0000
0F0000
1E0000
3C0000
780000
F00000
FFFF80
FFFF80
FFFF80
000780
000780
000780
000780
000780
0007C0
0007F8
0003F8
0000F8
ENDCHAR
STARTCHAR 0291
ENCODING 657
SWIDTH 500 0
DWIDTH 20 0
BBX 18 24 1 -3
BITMAP
3FFF80
3FFF80
3FFF80
000F00
000E00
001E00
003C00
007800
00F000
01E000
01E000
03C000
079F00
0F3F80
1E7FC0
3C71C0
3C71C0
7871C0
FFFFC0
FFFF80
FFFF00
007000
007000
007000
ENDCHAR
STARTCHAR 0292
ENCODING 658
SWIDTH 525 0
DWIDTH 21 0
BBX 19 27 1 -6
BITMAP
3FFF80
3FFF80
3FFF80
000780
000F00
001E00
003C00
003C00
007800
00F000
00F800
00FF00
00FF80
000FC0
0003C0
0003E0
0001E0
0001E0
F001E0
F001E0
F001E0
7803C0
7C03C0
3E0F80
3FFF80
0FFE00
03F800
ENDCHAR
STARTCHAR 0293
ENCODING 659
SWIDTH 525 0
DWIDTH 21 0
BBX 20 27 1 -6
BITMAP
FFFF00
FFFF00
FFFF00
001F00
001E00
003C00
007800
007000
00E000
01C000
01F800
01FE00
01FF00
000F80
000780
0003C0
0003C0
07E3C0
1FFFC0
3FFFC0
3C1FF0
3807E0
380FE0
3C1F20
1FFE00
1FFC00
07F000
ENDCHAR
STARTCHAR 0294
ENCODING 660
SWIDTH 500 0
DWIDTH 20 0
BBX 18 28 1 0
BITMAP
03F800
1FFE00
3FFF00
7E0F80
780780
7803C0
F003C0
F003C0
F003C0
0003C0
000780
000F80
01FF00
01FE00
01F800
01E000
01E000
01E000
01E000
01E000
01E000
01E000
01E000
01E000
01E000
01E000
01E000
01E000
ENDCHAR
STARTCHAR 0295
ENCODING 661
SWIDTH 500 0
DWIDTH 20 0
BBX 18 28 1 0
BITMAP
07F000
1FFE00
3FFF00
7C1F80
780780
F00780
F003C0
F003C0
F003C0
F00000
780000
7C0000
3FE000
1FE000
07E000
01E000
01E000
01E000
01E000
01E000
01E000
01E000
01E000
01E000
01E000
01E000
01E000
01E000
ENDCHAR
STARTCHAR 0296
ENCODING 662
SWIDTH 500 0
DWIDTH 20 0
BBX 18 28 1 1
BITMAP
01E000
01E000
01E000
01E000
01E000
01E000
01E000
01E000
01E000
01E000
01E000
01E000
01E000
0FE000
3FE000
7FE000
780000
F00000
F00000
F003C0
F003C0
F007C0
F80780
780F80
7F7F00
3FFE00
1FFC00
01E000
ENDCHAR
STARTCHAR 0297
ENCODING 663
SWIDTH 700 0
DWIDTH 28 0
BBX 25 38 2 -9
BITMAP
007F8000
01FFE000
07FFF800
0FC0FC00
1F003C00
1E001E00
3C001E00
3C000F00
78000F00
78000000
70000000
F0000000
F0000000
F0000000
F0000000
F0000000
F0000000
F0000000
F0000000
F0000000
F0000000
F0000000
F0000000
F0000000
F0000000
F0000000
F0000000
F0000780
78000780
78000F80
7C000F00
3C000F00
3E001E00
1F003E00
0FC0FC00
07FFF800
01FFF000
007F8000
ENDCHAR
STARTCHAR 0298
ENCODING 664
SWIDTH 775 0
DWIDTH 31 0
BBX 28 29 2 0
BITMAP
003FC000
01FFF800
03FFFC00
0FE07F00
1F801F80
1E000780
3C0007C0
7C0003E0
780001E0
780001E0
F00001F0
F00000F0
F01E00F0
F01E00F0
F01E00F0
F01E00F0
F00000F0
F00000F0
F00001F0
780001E0
780001E0
7C0003E0
3C0003C0
1E000780
1F801F80
0FE07F00
03FFFC00
01FFF800
003FC000
ENDCHAR
STARTCHAR 0299
ENCODING 665
SWIDTH 500 0
DWIDTH 20 0
BBX 16 21 2 0
BITMAP
FFF0
FFFC
FFFC
F03E
F01E
F00E
F00E
F01E
F03C
FFF8
FFFC
FFFE
F00F
F00F
F007
F007
F00F
F01F
FFFE
FFFC
FFF8
ENDCHAR
STARTCHAR 029A
ENCODING 666
SWIDTH 500 0
DWIDTH 20 0
BBX 18 21 1 0
BITMAP
03F800
1FFE00
3FFF00
3E1F80
780780
7807C0
7803C0
7803C0
3C03C0
1FC3C0
1FC3C0
7FC3C0
7C03C0
F803C0
F003C0
F00780
F00F80
7C1F80
7FFF00
1FFE00
07F800
ENDCHAR
STARTCHAR 029B
ENCODING 667
SWIDTH 625 0
DWIDTH 25 0
BBX 23 21 1 1
BITMAP
01FC3E
07FF7E
1FFFFE
3F03F0
3C01F0
7800F0
780000
F00000
F00000
F00000
F01FF0
F01FF0
F000F0
F000F0
7800F0
7801F0
7C03F0
3E07F0
1FFF70
0FFE30
01F830
ENDCHAR
STARTCHAR 029C
ENCODING 668
SWIDTH 550 0
DWIDTH 22 0
BBX 18 21 2 0
BITMAP
F003C0
F003C0
F003C0
F003C0
F003C0
F003C0
F003C0
F003C0
F003C0
FFFFC0
FFFFC0
FFFFC0
F003C0
F003C0
F003C0
F003C0
F003C0
F003C0
F003C0
F003C0
F003C0
ENDCHAR
STARTCHAR 029D
ENCODING 669
SWIDTH 450 0
DWIDTH 18 0
BBX 18 38 1 -9
BITMAP
007800
007800
007800
007800
000000
000000
000000
000000
007800
007800
007800
007800
007800
007800
007800
007800
007800
007800
007800
007800
007800
007800
007800
007800
007800
007800
007800
007800
007800
3FF800
7FF800
FFFF00
F07FC0
E07F80
F0F880
7FF800
7FF000
1FC000
ENDCHAR
STARTCHAR 029E
ENCODING 670
SWIDTH 525 0
DWIDTH 21 0
BBX 18 29 1 -7
BITMAP
F003C0
F003C0
7803C0
7803C0
3C03C0
1E03C0
1E03C0
0F03C0
0787C0
078FC0
03DFC0
03FFC0
01FBC0
00F3C0
01E3C0
03C3C0
0783C0
0F03C0
1E03C0
3C03C0
7803C0
0003C0
0003C0
0003C0
0003C0
0003C0
0003C0
0003C0
0003C0
ENDCHAR
STARTCHAR 029F
ENCODING 671
SWIDTH 400 0
DWIDTH 16 0
BBX 12 21 2 0
BITMAP
F000
F000
F000
F000
F000
F000
F000
F000
F000
F000
F000
F000
F000
F000
F000
F000
F000
F000
FFF0
FFF0
FFF0
ENDCHAR
STARTCHAR 02A0
ENCODING 672
SWIDTH 600 0
DWIDTH 24 0
BBX 23 33 1 -7
BITMAP
00001E
00003E
00007E
0000F8
0000F0
03F8F0
0FFEF0
1FFFF0
3F0FF0
7C03F0
7801F0
7801F0
F000F0
F000F0
F000F0
F000F0
F000F0
F000F0
F000F0
F801F0
7801F0
7C03F0
3F07F0
1FFEF0
0FFCF0
03F8F0
0000F0
0000F0
0000F0
0000F0
0000F0
0000F0
0000F0
ENDCHAR
STARTCHAR 02A1
ENCODING 673
SWIDTH 500 0
DWIDTH 20 0
BBX 18 28 1 0
BITMAP
03F800
1FFE00
3FFF00
7E0F80
780780
7803C0
F003C0
F003C0
F003C0
0003C0
0007C0
000F80
01FF00
01FF00
01FC00
01E000
0FFC00
0FFC00
0FFC00
01E000
01E000
01E000
01E000
01E000
01E000
01E000
01E000
01E000
ENDCHAR
STARTCHAR 02A2
ENCODING 674
SWIDTH 500 0
DWIDTH 20 0
BBX 18 28 1 0
BITMAP
07F000
1FFE00
3FFF00
7C1F80
780780
F00780
F003C0
F003C0
F003C0
F00000
F80000
7C0000
7FE000
3FE000
0FE000
01E000
0FFC00
0FFC00
0FFC00
01E000
01E000
01E000
01E000
01E000
01E000
01E000
01E000
01E000
ENDCHAR
STARTCHAR 02A3
ENCODING 675
SWIDTH 925 0
DWIDTH 37 0
BBX 35 29 1 0
BITMAP
0000F00000
0000F00000
0000F00000
0000F00000
0000F00000
0000F00000
0000F00000
0000F00000
03F8FFFFC0
0FFEFFFFC0
1FFFFFFFC0
3F0FF001C0
7C03F00380
7801F00700
7801F00600
F000F00C00
F000F01800
F000F03800
F000F07000
F000F0E000
F000F0C000
F000F18000
7801F30000
7801F70000
7C03FE0000
3F07FC0000
1FFFFFFFE0
0FFEFFFFE0
03F8FFFFE0
ENDCHAR
STARTCHAR 02A4
ENCODING 676
SWIDTH 950 0
DWIDTH 38 0
BBX 37 35 1 -6
BITMAP
0000F00000
0000F00000
0000F00000
0000F00000
0000F00000
0000F00000
0000F00000
0000F00000
03F8FFFFC0
0FFEFFFFC0
1FFFFFFFC0
3F0FF001C0
7C03F00380
7801F00700
F801F00F00
F000F01E00
F000F03C00
F000F03800
F000F03F80
F000F03FC0
F000F007F0
F000F000F0
7801F000F8
7801F00078
7C03F00078
3F0FF00078
1FFF700078
0FFE700078
03F87000F0
00000600F0
00000E01E0
00000F83E0
000007FFC0
000003FF80
000000FE00
ENDCHAR
STARTCHAR 02A5
ENCODING 677
SWIDTH 950 0
DWIDTH 38 0
BBX 36 32 1 -3
BITMAP
0000F00000
0000F00000
0000F00000
0000F00000
0000F00000
0000F00000
0000F00000
0000F00000
03F8FFFFC0
0FFEFFFFC0
1FFFFFFFC0
3F0FF003C0
7C03F00380
7801F00700
F801F00E00
F000F01E00
F000F03C00
F000F03800
F000F07000
F000F0F000
F000F1E7C0
F000F3CFE0
7801F3DFF0
7801F79C70
7C03FF1C70
3F0FFE1C70
1FFFFFFFF0
0FFEFFFFE0
03F8FFFFC0
0000001C00
0000001C00
0000001C00
ENDCHAR
STARTCHAR 02A6
ENCODING 678
SWIDTH 700 0
DWIDTH 28 0
BBX 26 26 2 0
BITMAP
3C000000
3C000000
3C000000
3C000000
3C000000
FF03F800
FF0FFE00
FF3FFF00
3C3E0F00
3C780780
3C780780
3C780000
3C7C0000
3C3E0000
3C3FC000
3C1FFC00
3C03FF00
3C003F80
3C0007C0
3C0003C0
3C0003C0
3C0007C0
3C000F80
3FFFFF00
3FFFFE00
0FFFF800
ENDCHAR
STARTCHAR 02A7
ENCODING 679
SWIDTH 525 0
DWIDTH 21 0
BBX 18 38 2 -9
BITMAP
0003C0
000FC0
001FC0
3C1F00
3C1E00
3C1E00
3C1E00
3C1E00
FFFE00
FFFE00
FFFE00
3C1E00
3C1E00
3C1E00
3C1E00
3C1E00
3C1E00
3C1E00
3C1E00
3C1E00
3C1E00
3C1E00
3C1E00
3C1E00
3C1E00
3C1E00
3FFE00
3FFE00
0FFE00
001E00
001E00
001E00
001E00
001E00
003E00
00FE00
00FC00
00F000
ENDCHAR
STARTCHAR 02A8
ENCODING 680
SWIDTH 775 0
DWIDTH 31 0
BBX 29 29 2 -3
BITMAP
3C000000
3C000000
3C000000
3C000000
3C000000
FF00FE00
FF07FF80
FF0FFFC0
3C1F07E0
3C3E01E0
3C3C01F0
3C3C00F0
3C780000
3C780000
3C780000
3C780000
3C780000
3C780000
3C7807C0
3C3C0FF0
3C3C1FF8
3C1E1C38
3C3F9C38
3FFFFFF8
3FF3FFF0
0F007FC0
00001C00
00001C00
00001C00
ENDCHAR
STARTCHAR 02A9
ENCODING 681
SWIDTH 800 0
DWIDTH 32 0
BBX 28 37 2 -8
BITMAP
07800000
1F800000
3F800000
3C000000
3C000000
3C000000
3C000000
3C000000
FFFE3F00
FFFE7FC0
FFFEFFE0
3C1FC3F0
3C1F81F0
3C1F00F0
3C1F00F0
3C1E00F0
3C1E00F0
3C1E00F0
3C1E00F0
3C1E00F0
3C1E00F0
3C1E00F0
3C1E00F0
3C1E00F0
3C1E00F0
3C1E00F0
3C1E00F0
3C1E00F0
3C1E00F0
000000F0
000000F0
000000F0
000000F0
000001F0
000007F0
000007E0
00000780
ENDCHAR
STARTCHAR 02AA
ENCODING 682
SWIDTH 650 0
DWIDTH 26 0
BBX 24 29 2 0
BITMAP
F00000
F00000
F00000
F00000
F00000
F00000
F00000
F00000
F00FE0
F03FF8
F0FFFC
F0F83C
F1E01E
F1E01E
F1E000
F1E000
F1F800
F0FF00
F07FF0
F00FFC
F000FE
F0001F
F0000F
F8000F
FE000F
FFE03E
F7FFFE
F1FFF8
F03FE0
ENDCHAR
STARTCHAR 02AB
ENCODING 683
SWIDTH 575 0
DWIDTH 23 0
BBX 19 29 2 0
BITMAP
F00000
F00000
F00000
F00000
F00000
F00000
F00000
F00000
FFFFE0
FFFFE0
FFFFE0
F001E0
F003C0
F00380
F00700
F00E00
F01C00
F03C00
F07800
F07000
F0E000
F1C000
F38000
F78000
FF0000
FE0000
FFFFE0
FFFFE0
FFFFE0
ENDCHAR
STARTCHAR 02AC
ENCODING 684
SWIDTH 525 0
DWIDTH 21 0
BBX 19 30 2 0
BITMAP
E0E0E0
60E0C0
61E0C0
61F1C0
71B180
31B180
31B180
3B3B00
1B1B00
1B1B00
1B1B00
1E1E00
0E0E00
0E0E00
000000
000000
E0E0E0
60E0C0
61E0C0
61F1C0
71B180
31B180
31B180
3B3B00
1B1B00
1B1B00
1B1B00
1E1E00
0E0E00
0E0E00
ENDCHAR
STARTCHAR 02AD
ENCODING 685
SWIDTH 475 0
DWIDTH 19 0
BBX 17 20 1 5
BITMAP
FFFF80
FFFF80
FFFF80
E00380
E00380
000000
000000
000000
000000
000000
000000
000000
000000
000000
000000
FFFF80
FFFF80
FFFF80
E00380
E00380
ENDCHAR
STARTCHAR 02AE
ENCODING 686
SWIDTH 575 0
DWIDTH 23 0
BBX 21 36 0 -7
BITMAP
F80000
FE0000
FF0000
1F0000
0F0000
0F0000
0F0000
0F0000
0F0078
0F0078
0F0078
0F0078
0F0078
0F0078
0F0078
0F0078
0F0078
0F0078
0F0078
0F0078
0F0078
0F0078
0F0078
0F00F8
0F00F8
0F81F8
0FC3F8
07FF78
03FE78
00FC78
000078
000078
000078
000078
000078
000078
ENDCHAR
STARTCHAR 02AF
ENCODING 687
SWIDTH 600 0
DWIDTH 24 0
BBX 24 38 0 -9
BITMAP
F80000
FE0000
FF0000
1F0000
0F0000
0F0000
0F0000
0F0000
0F0000
0F0078
0F0078
0F0078
0F0078
0F0078
0F0078
0F0078
0F0078
0F0078
0F0078
0F0078
0F0078
0F0078
0F0078
0F00F8
0F00F8
0F81F8
0FC3F8
07FF78
03FE78
00FC78
000078
000078
000078
000078
00007C
00003F
00003F
00000F
ENDCHAR
STARTCHAR 02B0
ENCODING 688
SWIDTH 325 0
DWIDTH 13 0
BBX 12 19 0 16
BITMAP
E000
E000
E000
E000
E000
E300
EFE0
FCF0
F070
E070
E070
E070
E070
E070
E070
E070
E070
E070
E070
ENDCHAR
STARTCHAR 02B1
ENCODING 689
SWIDTH 325 0
DWIDTH 13 0
BBX 12 19 0 16
BITMAP
3800
7800
E000
E000
E000
E300
EFE0
FCF0
F070
E070
E070
E070
E070
E070
E070
E070
E070
E070
E070
ENDCHAR
STARTCHAR 02B2
ENCODING 690
SWIDTH 175 0
DWIDTH 7 0
BBX 5 25 1 10
BITMAP
18
18
18
00
00
18
18
18
18
18
18
18
18
18
18
18
18
18
18
18
18
18
38
F8
E0
ENDCHAR
STARTCHAR 02B3
ENCODING 691
SWIDTH 225 0
DWIDTH 9 0
BBX 7 14 1 16
BITMAP
C6
CE
DC
F0
E0
E0
E0
E0
E0
E0
E0
E0
E0
E0
ENDCHAR
STARTCHAR 02B4
ENCODING 692
SWIDTH 225 0
DWIDTH 9 0
BBX 7 14 2 15
BITMAP
0E
0E
0E
0E
0E
0E
0E
0E
0E
0E
1E
76
E6
C6
ENDCHAR
STARTCHAR 02B5
ENCODING 693
SWIDTH 275 0
DWIDTH 11 0
BBX 8 19 1 10
BITMAP
0C
0C
0C
0C
0C
0C
0C
0C
0C
0C
1C
3C
EC
CC
0C
0C
0C
0F
07
ENDCHAR
STARTCHAR 02B6
ENCODING 694
SWIDTH 350 0
DWIDTH 14 0
BBX 11 13 2 16
BITMAP
C0E0
C1C0
C380
C700
C600
CC00
FF00
FF80
C1C0
C1C0
C1C0
FFC0
FF80
ENDCHAR
STARTCHAR 02B7
ENCODING 695
SWIDTH 500 0
DWIDTH 20 0
BBX 19 14 1 16
BITMAP
E0E0E0
60E0C0
61E0C0
61F1C0
71B180
31B180
31B180
3B3B00
1B1B00
1B1B00
1B1B00
1E1E00
0E0E00
0E0E00
ENDCHAR
STARTCHAR 02B8
ENCODING 696
SWIDTH 325 0
DWIDTH 13 0
BBX 12 20 0 10
BITMAP
E030
6070
6060
7060
30E0
30C0
38C0
19C0
1980
1D80
0F00
0F00
0F00
0600
0600
0E00
0C00
1C00
7800
7000
ENDCHAR
STARTCHAR 02B9
ENCODING 697
SWIDTH 275 0
DWIDTH 11 0
BBX 7 11 2 18
BITMAP
18
1E
3E
3C
3C
78
78
70
E0
E0
C0
ENDCHAR
STARTCHAR 02BA
ENCODING 698
SWIDTH 450 0
DWIDTH 18 0
BBX 15 11 2 18
BITMAP
1818
1E1E
3E3E
3C3C
3C3C
7878
7878
7070
E0E0
E0E0
C0C0
ENDCHAR
STARTCHAR 02BB
ENCODING 699
SWIDTH 250 0
DWIDTH 10 0
BBX 4 11 3 20
BITMAP
30
70
E0
C0
C0
C0
C0
F0
F0
F0
F0
ENDCHAR
STARTCHAR 02BC
ENCODING 700
SWIDTH 250 0
DWIDTH 10 0
BBX 4 10 3 18
BITMAP
F0
F0
F0
F0
30
30
30
70
E0
C0
ENDCHAR
STARTCHAR 02BD
ENCODING 701
SWIDTH 250 0
DWIDTH 10 0
BBX 4 10 3 18
BITMAP
F0
F0
F0
F0
C0
C0
C0
E0
70
30
ENDCHAR
STARTCHAR 02BE
ENCODING 702
SWIDTH 250 0
DWIDTH 10 0
BBX 3 7 4 23
BITMAP
80
C0
60
60
60
C0
C0
ENDCHAR
STARTCHAR 02BF
ENCODING 703
SWIDTH 250 0
DWIDTH 10 0
BBX 3 7 3 23
BITMAP
60
60
C0
C0
C0
60
60
ENDCHAR
STARTCHAR 02C0
ENCODING 704
SWIDTH 325 0
DWIDTH 13 0
BBX 11 15 1 16
BITMAP
1F00
7FC0
61C0
C060
C060
0060
0060
00C0
0FC0
0F00
0C00
0C00
0C00
0C00
0C00
ENDCHAR
STARTCHAR 02C1
ENCODING 705
SWIDTH 325 0
DWIDTH 13 0
BBX 11 15 1 16
BITMAP
1F00
7FC0
70C0
C060
C060
C000
C000
6000
7E00
1E00
0600
0600
0600
0600
0600
ENDCHAR
STARTCHAR 02C2
ENCODING 706
SWIDTH 325 0
DWIDTH 13 0
BBX 11 8 1 22
BITMAP
0020
03E0
1E00
F000
F000
1E00
03C0
0020
ENDCHAR
STARTCHAR 02C3
ENCODING 707
SWIDTH 325 0
DWIDTH 13 0
BBX 11 8 1 22
BITMAP
8000
7800
0F00
01E0
01E0
0F00
F800
8000
ENDCHAR
STARTCHAR 02C4
ENCODING 708
SWIDTH 325 0
DWIDTH 13 0
BBX 9 7 2 23
BITMAP
0800
1400
3600
2200
6300
4100
C180
ENDCHAR
STARTCHAR 02C5
ENCODING 709
SWIDTH 325 0
DWIDTH 13 0
BBX 9 7 2 23
BITMAP
C180
4100
6300
2200
3600
1400
0800
ENDCHAR
STARTCHAR 02C6
ENCODING 710
SWIDTH 325 0
DWIDTH 13 0
BBX 11 6 1 23
BITMAP
1F00
1F00
3B80
3180
71C0
E0E0
ENDCHAR
STARTCHAR 02C7
ENCODING 711
SWIDTH 325 0
DWIDTH 13 0
BBX 11 6 1 23
BITMAP
E0E0
71C0
3180
3B80
1F00
1F00
ENDCHAR
STARTCHAR 02C8
ENCODING 712
SWIDTH 250 0
DWIDTH 10 0
BBX 3 8 4 24
BITMAP
E0
E0
E0
E0
E0
E0
E0
E0
ENDCHAR
STARTCHAR 02C9
ENCODING 713
SWIDTH 325 0
DWIDTH 13 0
BBX 11 3 1 25
BITMAP
FFE0
FFE0
FFE0
ENDCHAR
STARTCHAR 02CA
ENCODING 714
SWIDTH 325 0
DWIDTH 13 0
BBX 7 6 4 24
BITMAP
1E
1E
3C
78
70
E0
ENDCHAR
STARTCHAR 02CB
ENCODING 715
SWIDTH 325 0
DWIDTH 13 0
BBX 8 6 1 23
BITMAP
F8
78
3C
1C
0E
07
ENDCHAR
STARTCHAR 02CC
ENCODING 716
SWIDTH 250 0
DWIDTH 10 0
BBX 3 8 4 -10
BITMAP
E0
E0
E0
E0
E0
E0
E0
E0
ENDCHAR
STARTCHAR 02CD
ENCODING 717
SWIDTH 325 0
DWIDTH 13 0
BBX 11 3 1 -6
BITMAP
FFE0
FFE0
FFE0
ENDCHAR
STARTCHAR 02CE
ENCODING 718
SWIDTH 325 0
DWIDTH 13 0
BBX 7 6 4 -8
BITMAP
F0
78
38
1C
0E
06
ENDCHAR
STARTCHAR 02CF
ENCODING 719
SWIDTH 325 0
DWIDTH 13 0
BBX 7 6 2 -8
BITMAP
1E
1E
3C
78
70
E0
ENDCHAR
STARTCHAR 02D0
ENCODING 720
SWIDTH 325 0
DWIDTH 13 0
BBX 5 22 4 0
BITMAP
F8
70
70
20
20
00
00
00
00
00
00
00
00
00
00
00
00
20
20
70
70
F8
ENDCHAR
STARTCHAR 02D1
ENCODING 721
SWIDTH 325 0
DWIDTH 13 0
BBX 5 5 4 17
BITMAP
F8
70
70
20
20
ENDCHAR
STARTCHAR 02D2
ENCODING 722
SWIDTH 250 0
DWIDTH 10 0
BBX 3 7 4 0
BITMAP
80
C0
60
60
60
C0
C0
ENDCHAR
STARTCHAR 02D3
ENCODING 723
SWIDTH 250 0
DWIDTH 10 0
BBX 3 7 3 0
BITMAP
60
60
C0
C0
C0
60
60
ENDCHAR
STARTCHAR 02D4
ENCODING 724
SWIDTH 325 0
DWIDTH 13 0
BBX 11 10 1 6
BITMAP
0E00
0E00
0E00
0E00
0E00
0E00
0E00
FFE0
FFE0
FFE0
ENDCHAR
STARTCHAR 02D5
ENCODING 725
SWIDTH 325 0
DWIDTH 13 0
BBX 11 10 1 6
BITMAP
FFE0
FFE0
FFE0
0E00
0E00
0E00
0E00
0E00
0E00
0E00
ENDCHAR
STARTCHAR 02D6
ENCODING 726
SWIDTH 325 0
DWIDTH 13 0
BBX 11 11 1 5
BITMAP
0E00
0E00
0E00
0E00
FFE0
FFE0
FFE0
0E00
0E00
0E00
0E00
ENDCHAR
STARTCHAR 02D7
ENCODING 727
SWIDTH 325 0
DWIDTH 13 0
BBX 12 3 0 9
BITMAP
FFF0
FFF0
FFF0
ENDCHAR
STARTCHAR 02D8
ENCODING 728
SWIDTH 325 0
DWIDTH 13 0
BBX 11 5 1 24
BITMAP
C060
E0E0
7FC0
7FC0
1F00
ENDCHAR
STARTCHAR 02D9
ENCODING 729
SWIDTH 325 0
DWIDTH 13 0
BBX 4 4 5 24
BITMAP
F0
F0
F0
F0
ENDCHAR
STARTCHAR 02DA
ENCODING 730
SWIDTH 325 0
DWIDTH 13 0
BBX 8 8 2 22
BITMAP
3C
7E
E7
C3
C3
E7
7E
3C
ENDCHAR
STARTCHAR 02DB
ENCODING 731
SWIDTH 325 0
DWIDTH 13 0
BBX 8 8 2 -8
BITMAP
1C
70
E0
E0
E0
F0
7F
1F
ENDCHAR
STARTCHAR 02DC
ENCODING 732
SWIDTH 325 0
DWIDTH 13 0
BBX 12 5 0 25
BITMAP
3830
7E70
7FE0
E7E0
C1C0
ENDCHAR
STARTCHAR 02DD
ENCODING 733
SWIDTH 325 0
DWIDTH 13 0
BBX 13 6 0 23
BITMAP
3C78
3CF0
78E0
71C0
E180
E380
ENDCHAR
STARTCHAR 02DE
ENCODING 734
SWIDTH 325 0
DWIDTH 13 0
BBX 13 13 0 9
BITMAP
3C00
7C00
FE00
EE00
CE00
8E00
0700
0700
0788
0398
03F8
01F8
00E0
ENDCHAR
STARTCHAR 02DF
ENCODING 735
SWIDTH 325 0
DWIDTH 13 0
BBX 12 7 1 24
BITMAP
E070
71C0
1F80
0E00
1F80
71C0
E060
ENDCHAR
STARTCHAR 02E0
ENCODING 736
SWIDTH 325 0
DWIDTH 13 0
BBX 12 20 1 10
BITMAP
C070
6060
60E0
70C0
30C0
3980
1980
1B80
0F00
0F00
0600
0600
0F00
1F00
1B80
3980
3980
3B80
1F80
0E00
ENDCHAR
STARTCHAR 02E1
ENCODING 737
SWIDTH 175 0
DWIDTH 7 0
BBX 3 19 2 16
BITMAP
E0
E0
E0
E0
E0
E0
E0
E0
E0
E0
E0
E0
E0
E0
E0
E0
E0
E0
E0
ENDCHAR
STARTCHAR 02E2
ENCODING 738
SWIDTH 325 0
DWIDTH 13 0
BBX 11 14 1 16
BITMAP
0E00
3F80
71C0
E0E0
E000
F000
7C00
1FC0
03E0
E0E0
E060
70E0
7FC0
1F80
ENDCHAR
STARTCHAR 02E3
ENCODING 739
SWIDTH 325 0
DWIDTH 13 0
BBX 11 14 1 16
BITMAP
C0E0
E0C0
61C0
3380
3B00
1E00
0E00
0E00
1E00
3B00
3380
6180
E0C0
C0E0
ENDCHAR
STARTCHAR 02E4
ENCODING 740
SWIDTH 325 0
DWIDTH 13 0
BBX 11 18 1 17
BITMAP
3F80
7FC0
E0E0
E0E0
C060
C060
E000
F800
7E00
0E00
0E00
0E00
0E00
0E00
0E00
0E00
0E00
0E00
ENDCHAR
STARTCHAR 02E5
ENCODING 741
SWIDTH 525 0
DWIDTH 21 0
BBX 16 32 2 0
BITMAP
FFFF
FFFF
FFFF
0007
0007
0007
0007
0007
0007
0007
0007
0007
0007
0007
0007
0007
0007
0007
0007
0007
0007
0007
0007
0007
0007
0007
0007
0007
0007
0007
0007
0007
ENDCHAR
STARTCHAR 02E6
ENCODING 742
SWIDTH 525 0
DWIDTH 21 0
BBX 16 32 2 0
BITMAP
0007
0007
0007
0007
0007
0007
FFFF
FFFF
FFFF
0007
0007
0007
0007
0007
0007
0007
0007
0007
0007
0007
0007
0007
0007
0007
0007
0007
0007
0007
0007
0007
0007
0007
ENDCHAR
STARTCHAR 02E7
ENCODING 743
SWIDTH 525 0
DWIDTH 21 0
BBX 16 32 2 0
BITMAP
0007
0007
0007
0007
0007
0007
0007
0007
0007
0007
0007
0007
0007
0007
FFFF
FFFF
FFFF
0007
0007
0007
0007
0007
0007
0007
0007
0007
0007
0007
0007
0007
0007
0007
ENDCHAR
STARTCHAR 02E8
ENCODING 744
SWIDTH 525 0
DWIDTH 21 0
BBX 16 32 2 0
BITMAP
0007
0007
0007
0007
0007
0007
0007
0007
0007
0007
0007
0007
0007
0007
0007
0007
0007
0007
0007
0007
0007
0007
FFFF
FFFF
FFFF
0007
0007
0007
0007
0007
0007
0007
ENDCHAR
STARTCHAR 02E9
ENCODING 745
SWIDTH 525 0
DWIDTH 21 0
BBX 16 32 2 0
BITMAP
0007
0007
0007
0007
0007
0007
0007
0007
0007
0007
0007
0007
0007
0007
0007
0007
0007
0007
0007
0007
0007
0007
0007
0007
0007
0007
0007
0007
0007
FFFF
FFFF
FFFF
ENDCHAR
STARTCHAR 02EA
ENCODING 746
SWIDTH 525 0
DWIDTH 21 0
BBX 16 24 3 0
BITMAP
E000
E000
E000
E000
E000
E000
E000
E000
E000
E000
E000
E000
E000
E000
E000
E000
E000
E000
E000
E000
E000
FFFF
FFFF
FFFF
ENDCHAR
STARTCHAR 02EB
ENCODING 747
SWIDTH 525 0
DWIDTH 21 0
BBX 16 24 3 0
BITMAP
E000
E000
E000
E000
E000
E000
E000
E000
E000
E000
FFFF
FFFF
FFFF
E000
E000
E000
E000
E000
E000
E000
E000
E000
E000
E000
ENDCHAR
STARTCHAR 02EC
ENCODING 748
SWIDTH 325 0
DWIDTH 13 0
BBX 11 6 1 -9
BITMAP
E0E0
71C0
3180
3B80
1F00
1F00
ENDCHAR
STARTCHAR 02ED
ENCODING 749
SWIDTH 325 0
DWIDTH 13 0
BBX 11 9 1 23
BITMAP
FFE0
FFE0
FFE0
0000
0000
0000
FFE0
FFE0
FFE0
ENDCHAR
STARTCHAR 02EE
ENCODING 750
SWIDTH 400 0
DWIDTH 16 0
BBX 10 10 3 19
BITMAP
F3C0
F3C0
F3C0
F3C0
30C0
30C0
30C0
71C0
E380
C300
ENDCHAR
STARTCHAR 02EF
ENCODING 751
SWIDTH 325 0
DWIDTH 13 0
BBX 9 7 2 -8
BITMAP
C180
4100
6300
2200
3600
1400
0800
ENDCHAR
STARTCHAR 02F0
ENCODING 752
SWIDTH 325 0
DWIDTH 13 0
BBX 9 7 2 -8
BITMAP
0800
1400
3600
2200
6300
4100
C180
ENDCHAR
STARTCHAR 02F1
ENCODING 753
SWIDTH 325 0
DWIDTH 13 0
BBX 11 8 1 -9
BITMAP
0020
03E0
1E00
F000
F000
1E00
03C0
0020
ENDCHAR
STARTCHAR 02F2
ENCODING 754
SWIDTH 325 0
DWIDTH 13 0
BBX 11 8 1 -9
BITMAP
8000
7800
0F00
01E0
01E0
0F00
F800
8000
ENDCHAR
STARTCHAR 02F3
ENCODING 755
SWIDTH 325 0
DWIDTH 13 0
BBX 8 8 2 -11
BITMAP
3C
7E
E7
C3
C3
E7
7E
3C
ENDCHAR
STARTCHAR 02F4
ENCODING 756
SWIDTH 250 0
DWIDTH 10 0
BBX 8 6 1 14
BITMAP
F8
78
3C
1C
0E
07
ENDCHAR
STARTCHAR 02F5
ENCODING 757
SWIDTH 325 0
DWIDTH 13 0
BBX 13 6 1 14
BITMAP
F1E0
79E0
38F0
3C70
1C70
0E38
ENDCHAR
STARTCHAR 02F6
ENCODING 758
SWIDTH 325 0
DWIDTH 13 0
BBX 13 6 0 14
BITMAP
3C78
3CF0
78E0
71C0
E180
E380
ENDCHAR
STARTCHAR 02F7
ENCODING 759
SWIDTH 325 0
DWIDTH 13 0
BBX 12 5 0 -6
BITMAP
3830
7E70
7FE0
E7E0
C1C0
ENDCHAR
STARTCHAR 02F8
ENCODING 760
SWIDTH 250 0
DWIDTH 10 0
BBX 4 21 3 3
BITMAP
F0
F0
F0
F0
00
00
00
00
00
00
00
00
00
00
00
00
00
F0
F0
F0
F0
ENDCHAR
STARTCHAR 02F9
ENCODING 761
SWIDTH 200 0
DWIDTH 8 0
BBX 6 9 1 21
BITMAP
FC
FC
FC
E0
E0
E0
E0
E0
E0
ENDCHAR
STARTCHAR 02FA
ENCODING 762
SWIDTH 200 0
DWIDTH 8 0
BBX 6 9 1 21
BITMAP
FC
FC
FC
1C
1C
1C
1C
1C
1C
ENDCHAR
STARTCHAR 02FB
ENCODING 763
SWIDTH 200 0
DWIDTH 8 0
BBX 6 9 1 -3
BITMAP
E0
E0
E0
E0
E0
E0
FC
FC
FC
ENDCHAR
STARTCHAR 02FC
ENCODING 764
SWIDTH 200 0
DWIDTH 8 0
BBX 6 9 1 -3
BITMAP
1C
1C
1C
1C
1C
1C
FC
FC
FC
ENDCHAR
STARTCHAR 02FD
ENCODING 765
SWIDTH 325 0
DWIDTH 13 0
BBX 13 7 0 -8
BITMAP
E038
E038
E038
E038
FFF8
FFF8
FFF8
ENDCHAR
STARTCHAR 02FE
ENCODING 766
SWIDTH 325 0
DWIDTH 13 0
BBX 12 6 0 -8
BITMAP
E000
E000
E000
FFF0
FFF0
FFF0
ENDCHAR
STARTCHAR 02FF
ENCODING 767
SWIDTH 325 0
DWIDTH 13 0
BBX 13 8 0 -9
BITMAP
1000
1000
3000
6000
FFF8
6000
3000
1800
ENDCHAR
STARTCHAR 0300
ENCODING 768
SWIDTH 0 0
DWIDTH 0 0
BBX 7 6 -12 23
BITMAP
F0
78
3C
1C
0E
06
ENDCHAR
STARTCHAR 0301
ENCODING 769
SWIDTH 0 0
DWIDTH 0 0
BBX 7 6 -9 23
BITMAP
1E
3C
38
70
60
C0
ENDCHAR
STARTCHAR 0302
ENCODING 770
SWIDTH 0 0
DWIDTH 0 0
BBX 10 6 -12 23
BITMAP
1E00
3F00
3F80
7380
61C0
E0C0
ENDCHAR
STARTCHAR 0303
ENCODING 771
SWIDTH 0 0
DWIDTH 0 0
BBX 12 5 -13 25
BITMAP
3870
7E60
FFE0
C7E0
C1C0
ENDCHAR
STARTCHAR 0304
ENCODING 772
SWIDTH 0 0
DWIDTH 0 0
BBX 11 3 -12 25
BITMAP
FFE0
FFE0
FFE0
ENDCHAR
STARTCHAR 0305
ENCODING 773
SWIDTH 0 0
DWIDTH 0 0
BBX 23 3 -18 25
BITMAP
FFFFFE
FFFFFE
FFFFFE
ENDCHAR
STARTCHAR 0306
ENCODING 774
SWIDTH 0 0
DWIDTH 0 0
BBX 11 5 -12 24
BITMAP
C060
E0C0
FFC0
7F80
3F00
ENDCHAR
STARTCHAR 0307
ENCODING 775
SWIDTH 0 0
DWIDTH 0 0
BBX 4 4 -8 24
BITMAP
F0
F0
F0
F0
ENDCHAR
STARTCHAR 0308
ENCODING 776
SWIDTH 0 0
DWIDTH 0 0
BBX 12 4 -12 24
BITMAP
F0F0
F0F0
F0F0
F0F0
ENDCHAR
STARTCHAR 0309
ENCODING 777
SWIDTH 0 0
DWIDTH 0 0
BBX 7 8 -12 23
BITMAP
78
FC
4E
06
0E
7C
78
60
ENDCHAR
STARTCHAR 030A
ENCODING 778
SWIDTH 0 0
DWIDTH 0 0
BBX 8 8 -11 22
BITMAP
3C
7E
C6
C3
C3
C7
FE
3C
ENDCHAR
STARTCHAR 030B
ENCODING 779
SWIDTH 0 0
DWIDTH 0 0
BBX 12 6 -12 24
BITMAP
7CF0
78F0
71E0
F1C0
E380
C300
ENDCHAR
STARTCHAR 030C
ENCODING 780
SWIDTH 0 0
DWIDTH 0 0
BBX 10 6 -12 23
BITMAP
E0C0
61C0
7380
3F80
3F00
1E00
ENDCHAR
STARTCHAR 030D
ENCODING 781
SWIDTH 0 0
DWIDTH 0 0
BBX 3 8 -8 24
BITMAP
E0
E0
E0
E0
E0
E0
E0
E0
ENDCHAR
STARTCHAR 030E
ENCODING 782
SWIDTH 0 0
DWIDTH 0 0
BBX 9 8 -11 24
BITMAP
E380
E380
E380
E380
E380
E380
E380
E380
ENDCHAR
STARTCHAR 030F
ENCODING 783
SWIDTH 0 0
DWIDTH 0 0
BBX 13 6 -16 23
BITMAP
F1E0
79E0
38F0
3C70
1C70
0E38
ENDCHAR
STARTCHAR 0310
ENCODING 784
SWIDTH 0 0
DWIDTH 0 0
BBX 11 8 -12 24
BITMAP
0F00
0F00
0F00
CF60
E0C0
FFC0
7F80
3F00
ENDCHAR
STARTCHAR 0311
ENCODING 785
SWIDTH 0 0
DWIDTH 0 0
BBX 11 5 -12 25
BITMAP
3F80
7FC0
FFC0
E0E0
C060
ENDCHAR
STARTCHAR 0312
ENCODING 786
SWIDTH 0 0
DWIDTH 0 0
BBX 4 6 -9 23
BITMAP
30
F0
80
F0
F0
F0
ENDCHAR
STARTCHAR 0313
ENCODING 787
SWIDTH 0 0
DWIDTH 0 0
BBX 4 6 -8 23
BITMAP
F0
F0
F0
10
F0
C0
ENDCHAR
STARTCHAR 0314
ENCODING 788
SWIDTH 0 0
DWIDTH 0 0
BBX 4 6 -8 23
BITMAP
F0
F0
F0
80
F0
30
ENDCHAR
STARTCHAR 0315
ENCODING 789
SWIDTH 0 0
DWIDTH 0 0
BBX 4 6 0 24
BITMAP
F0
F0
F0
10
F0
C0
ENDCHAR
STARTCHAR 0316
ENCODING 790
SWIDTH 0 0
DWIDTH 0 0
BBX 8 6 -12 -8
BITMAP
F8
78
3C
1C
0E
07
ENDCHAR
STARTCHAR 0317
ENCODING 791
SWIDTH 0 0
DWIDTH 0 0
BBX 7 6 -10 -8
BITMAP
1E
1C
38
70
60
C0
ENDCHAR
STARTCHAR 0318
ENCODING 792
SWIDTH 0 0
DWIDTH 0 0
BBX 8 9 -11 -11
BITMAP
07
07
07
FF
FF
FF
07
07
07
ENDCHAR
STARTCHAR 0319
ENCODING 793
SWIDTH 0 0
DWIDTH 0 0
BBX 8 9 -10 -12
BITMAP
E0
E0
E0
FF
FF
FF
E0
E0
E0
ENDCHAR
STARTCHAR 031A
ENCODING 794
SWIDTH 0 0
DWIDTH 0 0
BBX 10 10 -7 18
BITMAP
FFC0
FFC0
FFC0
01C0
01C0
01C0
01C0
01C0
01C0
01C0
ENDCHAR
STARTCHAR 031B
ENCODING 795
SWIDTH 0 0
DWIDTH 0 0
BBX 8 8 -5 19
BITMAP
06
0E
0F
0F
0F
FF
FE
F8
ENDCHAR
STARTCHAR 031C
ENCODING 796
SWIDTH 0 0
DWIDTH 0 0
BBX 3 7 -9 -9
BITMAP
60
60
C0
C0
C0
60
60
ENDCHAR
STARTCHAR 031D
ENCODING 797
SWIDTH 0 0
DWIDTH 0 0
BBX 9 6 -11 -8
BITMAP
1C00
1C00
1C00
FF80
FF80
FF80
ENDCHAR
STARTCHAR 031E
ENCODING 798
SWIDTH 0 0
DWIDTH 0 0
BBX 9 6 -11 -8
BITMAP
FF80
FF80
FF80
1C00
1C00
1C00
ENDCHAR
STARTCHAR 031F
ENCODING 799
SWIDTH 0 0
DWIDTH 0 0
BBX 9 9 -11 -11
BITMAP
1C00
1C00
1C00
FF80
FF80
FF80
1C00
1C00
1C00
ENDCHAR
STARTCHAR 0320
ENCODING 800
SWIDTH 0 0
DWIDTH 0 0
BBX 12 3 -17 -6
BITMAP
FFF0
FFF0
FFF0
ENDCHAR
STARTCHAR 0321
ENCODING 801
SWIDTH 0 0
DWIDTH 0 0
BBX 8 10 -7 -9
BITMAP
0F
0F
0F
0F
0F
0F
1F
FF
FE
F8
ENDCHAR
STARTCHAR 0322
ENCODING 802
SWIDTH 0 0
DWIDTH 0 0
BBX 8 10 -3 -9
BITMAP
F0
F0
F0
F0
F0
F0
F8
FF
7F
1F
ENDCHAR
STARTCHAR 0323
ENCODING 803
SWIDTH 0 0
DWIDTH 0 0
BBX 4 4 -10 -8
BITMAP
F0
F0
F0
F0
ENDCHAR
STARTCHAR 0324
ENCODING 804
SWIDTH 0 0
DWIDTH 0 0
BBX 12 4 -15 -6
BITMAP
F0F0
F0F0
F0F0
F0F0
ENDCHAR
STARTCHAR 0325
ENCODING 805
SWIDTH 0 0
DWIDTH 0 0
BBX 8 8 -14 -10
BITMAP
3E
7E
E3
C3
C3
67
7E
18
ENDCHAR
STARTCHAR 0326
ENCODING 806
SWIDTH 0 0
DWIDTH 0 0
BBX 4 9 -11 -12
BITMAP
F0
F0
F0
F0
30
30
70
E0
C0
ENDCHAR
STARTCHAR 0327
ENCODING 807
SWIDTH 0 0
DWIDTH 0 0
BBX 10 9 -15 -9
BITMAP
0400
0C00
0C00
1F80
03C0
01C0
C380
FF80
3E00
ENDCHAR
STARTCHAR 0328
ENCODING 808
SWIDTH 0 0
DWIDTH 0 0
BBX 8 8 -11 -8
BITMAP
3C
70
E0
E0
E0
E0
7F
3F
ENDCHAR
STARTCHAR 0329
ENCODING 809
SWIDTH 0 0
DWIDTH 0 0
BBX 3 8 -10 -9
BITMAP
E0
E0
E0
E0
E0
E0
E0
E0
ENDCHAR
STARTCHAR 032A
ENCODING 810
SWIDTH 0 0
DWIDTH 0 0
BBX 11 5 -12 -8
BITMAP
FFE0
FFE0
FFE0
E0E0
E0E0
ENDCHAR
STARTCHAR 032B
ENCODING 811
SWIDTH 0 0
DWIDTH 0 0
BBX 13 5 -13 -6
BITMAP
C618
C618
C738
7FF0
39E0
ENDCHAR
STARTCHAR 032C
ENCODING 812
SWIDTH 0 0
DWIDTH 0 0
BBX 10 6 -12 -8
BITMAP
E0C0
71C0
7380
3F00
1F00
1E00
ENDCHAR
STARTCHAR 032D
ENCODING 813
SWIDTH 0 0
DWIDTH 0 0
BBX 10 6 -12 -8
BITMAP
1E00
1F00
3F00
7380
71C0
E0C0
ENDCHAR
STARTCHAR 032E
ENCODING 814
SWIDTH 0 0
DWIDTH 0 0
BBX 11 5 -12 -7
BITMAP
C0E0
E1C0
FFC0
7F80
1F00
ENDCHAR
STARTCHAR 032F
ENCODING 815
SWIDTH 0 0
DWIDTH 0 0
BBX 11 5 -12 -7
BITMAP
3F80
7FC0
FFC0
E0E0
C060
ENDCHAR
STARTCHAR 0330
ENCODING 816
SWIDTH 0 0
DWIDTH 0 0
BBX 12 5 -16 -7
BITMAP
3830
7E70
7FF0
67E0
E1C0
ENDCHAR
STARTCHAR 0331
ENCODING 817
SWIDTH 0 0
DWIDTH 0 0
BBX 11 3 -15 -7
BITMAP
FFE0
FFE0
FFE0
ENDCHAR
STARTCHAR 0332
ENCODING 818
SWIDTH 0 0
DWIDTH 0 0
BBX 24 2 -24 -7
BITMAP
FFFFFF
FFFFFF
ENDCHAR
STARTCHAR 0333
ENCODING 819
SWIDTH 0 0
DWIDTH 0 0
BBX 24 6 -24 -11
BITMAP
FFFFFF
FFFFFF
000000
000000
FFFFFF
FFFFFF
ENDCHAR
STARTCHAR 0334
ENCODING 820
SWIDTH 0 0
DWIDTH 0 0
BBX 12 5 -18 9
BITMAP
3830
7E70
7FE0
E7E0
C1C0
ENDCHAR
STARTCHAR 0335
ENCODING 821
SWIDTH 0 0
DWIDTH 0 0
BBX 11 3 -17 10
BITMAP
FFE0
FFE0
FFE0
ENDCHAR
STARTCHAR 0336
ENCODING 822
SWIDTH 0 0
DWIDTH 0 0
BBX 24 2 -28 9
BITMAP
FFFFFF
FFFFFF
ENDCHAR
STARTCHAR 0337
ENCODING 823
SWIDTH 0 0
DWIDTH 0 0
BBX 27 25 -28 0
BITMAP
000000E0
000001C0
00000380
00000700
00000E00
00001C00
00003800
00007000
0000E000
0001C000
00038000
00070000
000E0000
001C0000
00380000
00700000
00E00000
01C00000
03800000
07000000
0E000000
1C000000
38000000
70000000
E0000000
ENDCHAR
STARTCHAR 0338
ENCODING 824
SWIDTH 0 0
DWIDTH 0 0
BBX 26 32 -27 -3
BITMAP
000001C0
00000380
00000380
00000700
00000E00
00001C00
00001C00
00003800
00007000
0000E000
0000E000
0001C000
00038000
00070000
000F0000
000E0000
001C0000
00380000
00780000
00700000
00E00000
01C00000
03C00000
03800000
07000000
0E000000
1E000000
1C000000
38000000
70000000
E0000000
E0000000
ENDCHAR
STARTCHAR 0339
ENCODING 825
SWIDTH 0 0
DWIDTH 0 0
BBX 3 7 -10 -10
BITMAP
80
C0
60
60
60
C0
C0
ENDCHAR
STARTCHAR 033A
ENCODING 826
SWIDTH 0 0
DWIDTH 0 0
BBX 11 5 -15 -6
BITMAP
E0E0
E0E0
FFE0
FFE0
FFE0
ENDCHAR
STARTCHAR 033B
ENCODING 827
SWIDTH 0 0
DWIDTH 0 0
BBX 10 11 -15 -12
BITMAP
FFC0
FFC0
FFC0
C0C0
C0C0
C0C0
C0C0
C0C0
FFC0
FFC0
FFC0
ENDCHAR
STARTCHAR 033C
ENCODING 828
SWIDTH 0 0
DWIDTH 0 0
BBX 12 5 -15 -7
BITMAP
39C0
7FE0
C630
C630
0600
ENDCHAR
STARTCHAR 033D
ENCODING 829
SWIDTH 0 0
DWIDTH 0 0
BBX 8 8 -11 23
BITMAP
81
C3
66
3C
3C
66
C3
81
ENDCHAR
STARTCHAR 033E
ENCODING 830
SWIDTH 0 0
DWIDTH 0 0
BBX 3 11 -9 23
BITMAP
60
E0
C0
C0
C0
60
60
60
60
E0
80
ENDCHAR
STARTCHAR 033F
ENCODING 831
SWIDTH 0 0
DWIDTH 0 0
BBX 24 6 -24 24
BITMAP
FFFFFF
FFFFFF
000000
000000
FFFFFF
FFFFFF
ENDCHAR
STARTCHAR 0340
ENCODING 832
SWIDTH 0 0
DWIDTH 0 0
BBX 7 6 -12 24
BITMAP
F0
78
3C
1C
0E
06
ENDCHAR
STARTCHAR 0341
ENCODING 833
SWIDTH 0 0
DWIDTH 0 0
BBX 7 6 -9 23
BITMAP
1E
3C
38
70
60
C0
ENDCHAR
STARTCHAR 0342
ENCODING 834
SWIDTH 0 0
DWIDTH 0 0
BBX 12 5 -14 25
BITMAP
3830
7E70
7FE0
E7E0
C1C0
ENDCHAR
STARTCHAR 0343
ENCODING 835
SWIDTH 0 0
DWIDTH 0 0
BBX 4 6 -8 23
BITMAP
F0
F0
F0
10
F0
C0
ENDCHAR
STARTCHAR 0344
ENCODING 836
SWIDTH 0 0
DWIDTH 0 0
BBX 14 6 -14 24
BITMAP
01E0
01C0
0380
F3BC
F33C
F63C
ENDCHAR
STARTCHAR 0345
ENCODING 837
SWIDTH 0 0
DWIDTH 0 0
BBX 6 6 -13 -6
BITMAP
E0
E0
E0
E0
F4
78
ENDCHAR
STARTCHAR 0346
ENCODING 838
SWIDTH 0 0
DWIDTH 0 0
BBX 11 5 -12 24
BITMAP
FFE0
FFE0
FFE0
E0E0
E0E0
ENDCHAR
STARTCHAR 0347
ENCODING 839
SWIDTH 0 0
DWIDTH 0 0
BBX 11 7 -15 -9
BITMAP
FFE0
FFE0
FFE0
0000
FFE0
FFE0
FFE0
ENDCHAR
STARTCHAR 0348
ENCODING 840
SWIDTH 0 0
DWIDTH 0 0
BBX 9 8 -13 -9
BITMAP
E380
E380
E380
E380
E380
E380
E380
E380
ENDCHAR
STARTCHAR 0349
ENCODING 841
SWIDTH 0 0
DWIDTH 0 0
BBX 5 5 -10 -9
BITMAP
F8
F8
18
18
18
ENDCHAR
STARTCHAR 034A
ENCODING 842
SWIDTH 0 0
DWIDTH 0 0
BBX 12 7 -15 23
BITMAP
0180
3F70
7FF0
FFE0
CFC0
1C00
1800
ENDCHAR
STARTCHAR 034B
ENCODING 843
SWIDTH 0 0
DWIDTH 0 0
BBX 11 13 -16 22
BITMAP
03C0
03C0
23E0
7FE0
FFE0
FFE0
C3C0
0000
0000
3C00
3C00
3C00
3C00
ENDCHAR
STARTCHAR 034C
ENCODING 844
SWIDTH 0 0
DWIDTH 0 0
BBX 12 11 -15 23
BITMAP
3830
7E70
7FF0
E7E0
E1E0
0000
3C30
7F70
7FE0
E3E0
C080
ENDCHAR
STARTCHAR 034D
ENCODING 845
SWIDTH 0 0
DWIDTH 0 0
BBX 19 8 -21 -9
BITMAP
080200
180300
200180
400040
FFFFE0
6000C0
100100
080200
ENDCHAR
STARTCHAR 034E
ENCODING 846
SWIDTH 0 0
DWIDTH 0 0
BBX 7 10 -14 -12
BITMAP
10
38
54
92
10
10
10
10
10
10
ENDCHAR
STARTCHAR 034F
ENCODING 847
SWIDTH 0 0
DWIDTH 0 0
BBX 0 0 0 0
BITMAP
ENDCHAR
STARTCHAR 0350
ENCODING 848
SWIDTH 0 0
DWIDTH 0 0
BBX 11 8 -13 22
BITMAP
8000
7800
0F00
01E0
01E0
0F00
7800
8000
ENDCHAR
STARTCHAR 0351
ENCODING 849
SWIDTH 0 0
DWIDTH 0 0
BBX 3 7 -8 23
BITMAP
60
60
C0
C0
C0
60
60
ENDCHAR
STARTCHAR 0352
ENCODING 850
SWIDTH 0 0
DWIDTH 0 0
BBX 11 10 -13 22
BITMAP
1F00
7F80
FFC0
E1C0
C0E0
0000
1E00
1E00
1E00
1E00
ENDCHAR
STARTCHAR 0353
ENCODING 851
SWIDTH 0 0
DWIDTH 0 0
BBX 8 8 -16 -9
BITMAP
81
C3
66
3C
3C
66
C3
81
ENDCHAR
STARTCHAR 0354
ENCODING 852
SWIDTH 0 0
DWIDTH 0 0
BBX 11 8 -16 -9
BITMAP
0020
03E0
1E00
F000
F000
1E00
01E0
0020
ENDCHAR
STARTCHAR 0355
ENCODING 853
SWIDTH 0 0
DWIDTH 0 0
BBX 11 8 -16 -9
BITMAP
8000
7800
0F00
01E0
01E0
0F00
7800
8000
ENDCHAR
STARTCHAR 0356
ENCODING 854
SWIDTH 0 0
DWIDTH 0 0
BBX 19 7 -20 -9
BITMAP
C00600
380700
070D00
00C980
071880
383040
C02060
ENDCHAR
STARTCHAR 0357
ENCODING 855
SWIDTH 0 0
DWIDTH 0 0
BBX 3 7 -7 23
BITMAP
80
C0
60
60
60
C0
C0
ENDCHAR
STARTCHAR 0358
ENCODING 856
SWIDTH 0 0
DWIDTH 0 0
BBX 4 4 -13 24
BITMAP
F0
F0
F0
F0
ENDCHAR
STARTCHAR 0359
ENCODING 857
SWIDTH 0 0
DWIDTH 0 0
BBX 9 9 -16 -11
BITMAP
0800
0800
0800
FF80
7F00
1C00
3600
3600
2200
ENDCHAR
STARTCHAR 035A
ENCODING 858
SWIDTH 0 0
DWIDTH 0 0
BBX 17 7 -21 -9
BITMAP
3C1E00
463100
814080
808080
834080
463100
3C0E00
ENDCHAR
STARTCHAR 035B
ENCODING 859
SWIDTH 0 0
DWIDTH 0 0
BBX 9 10 -13 22
BITMAP
3000
3000
7000
6000
7F80
FF00
0300
0700
0600
0600
ENDCHAR
STARTCHAR 035C
ENCODING 860
SWIDTH 0 0
DWIDTH 0 0
BBX 27 6 -13 -8
BITMAP
C0000060
E00000E0
7E000FC0
3FFFFF80
1FFFFF00
01FFF000
ENDCHAR
STARTCHAR 035D
ENCODING 861
SWIDTH 0 0
DWIDTH 0 0
BBX 27 6 -13 24
BITMAP
C0000060
E00000E0
7E000FC0
3FFFFF80
0FFFFF00
01FFF000
ENDCHAR
STARTCHAR 035E
ENCODING 862
SWIDTH 0 0
DWIDTH 0 0
BBX 26 3 -13 24
BITMAP
FFFFFFC0
FFFFFFC0
FFFFFFC0
ENDCHAR
STARTCHAR 035F
ENCODING 863
SWIDTH 0 0
DWIDTH 0 0
BBX 26 3 -13 -6
BITMAP
FFFFFFC0
FFFFFFC0
FFFFFFC0
ENDCHAR
STARTCHAR 0360
ENCODING 864
SWIDTH 0 0
DWIDTH 0 0
BBX 27 6 -14 23
BITMAP
0FC00000
3FF80060
7FFF00E0
E01FFFC0
C003FFC0
00007F00
ENDCHAR
STARTCHAR 0361
ENCODING 865
SWIDTH 0 0
DWIDTH 0 0
BBX 27 6 -14 26
BITMAP
01FFF000
0FFFFF00
3FFFFF80
7E000FC0
E00000E0
C0000060
ENDCHAR
STARTCHAR 0362
ENCODING 866
SWIDTH 0 0
DWIDTH 0 0
BBX 23 8 -12 -10
BITMAP
000060
000038
00001C
FFFFFE
FFFFFE
00001C
000038
000070
ENDCHAR
STARTCHAR 0363
ENCODING 867
SWIDTH 0 0
DWIDTH 0 0
BBX 8 8 -14 23
BITMAP
3C
66
02
0E
72
C2
46
7B
ENDCHAR
STARTCHAR 0364
ENCODING 868
SWIDTH 0 0
DWIDTH 0 0
BBX 8 8 -15 23
BITMAP
3C
62
43
FF
C0
43
62
3C
ENDCHAR
STARTCHAR 0365
ENCODING 869
SWIDTH 0 0
DWIDTH 0 0
BBX 2 11 -11 24
BITMAP
C0
C0
00
C0
C0
C0
C0
C0
C0
C0
C0
ENDCHAR
STARTCHAR 0366
ENCODING 870
SWIDTH 0 0
DWIDTH 0 0
BBX 8 8 -15 23
BITMAP
3C
66
43
C3
C3
43
66
3C
ENDCHAR
STARTCHAR 0367
ENCODING 871
SWIDTH 0 0
DWIDTH 0 0
BBX 7 8 -14 23
BITMAP
86
86
86
86
86
86
CE
76
ENDCHAR
STARTCHAR 0368
ENCODING 872
SWIDTH 0 0
DWIDTH 0 0
BBX 8 8 -14 23
BITMAP
3C
66
43
C0
C0
43
66
3C
ENDCHAR
STARTCHAR 0369
ENCODING 873
SWIDTH 0 0
DWIDTH 0 0
BBX 8 11 -14 24
BITMAP
03
03
03
3F
67
43
C3
C3
43
67
3D
ENDCHAR
STARTCHAR 036A
ENCODING 874
SWIDTH 0 0
DWIDTH 0 0
BBX 7 11 -13 24
BITMAP
80
80
80
BC
C6
C6
86
86
86
86
86
ENDCHAR
STARTCHAR 036B
ENCODING 875
SWIDTH 0 0
DWIDTH 0 0
BBX 11 8 -16 23
BITMAP
B9C0
CE60
8460
8460
8460
8460
8460
8460
ENDCHAR
STARTCHAR 036C
ENCODING 876
SWIDTH 0 0
DWIDTH 0 0
BBX 4 8 -12 23
BITMAP
B0
C0
C0
80
80
80
80
80
ENDCHAR
STARTCHAR 036D
ENCODING 877
SWIDTH 0 0
DWIDTH 0 0
BBX 3 10 -12 23
BITMAP
40
40
E0
40
40
40
40
40
40
60
ENDCHAR
STARTCHAR 036E
ENCODING 878
SWIDTH 0 0
DWIDTH 0 0
BBX 7 8 -15 23
BITMAP
C2
46
44
64
2C
28
38
18
ENDCHAR
STARTCHAR 036F
ENCODING 879
SWIDTH 0 0
DWIDTH 0 0
BBX 6 8 -13 23
BITMAP
8C
C8
50
30
30
50
C8
8C
ENDCHAR
STARTCHAR 0374
ENCODING 884
SWIDTH 275 0
DWIDTH 11 0
BBX 7 11 2 18
BITMAP
18
1E
3E
3C
3C
78
78
70
E0
E0
C0
ENDCHAR
STARTCHAR 0375
ENCODING 885
SWIDTH 200 0
DWIDTH 8 0
BBX 4 8 1 -8
BITMAP
10
10
30
70
60
E0
40
40
ENDCHAR
STARTCHAR 037A
ENCODING 890
SWIDTH 325 0
DWIDTH 13 0
BBX 6 6 5 -8
BITMAP
E0
E0
E0
E0
E4
7C
ENDCHAR
STARTCHAR 037B
ENCODING 891
SWIDTH 450 0
DWIDTH 18 0
BBX 15 21 2 0
BITMAP
FF80
FFE0
FFF0
01F8
007C
003C
003C
001E
001E
001E
001E
001E
001E
001E
003E
003C
007C
01F8
FFF0
FFE0
FF80
ENDCHAR
STARTCHAR 037C
ENCODING 892
SWIDTH 450 0
DWIDTH 18 0
BBX 15 21 1 -1
BITMAP
01FE
0FFE
1FFE
3F00
7C00
7800
F800
F000
F078
F078
F078
F078
F000
F000
7800
7800
7C00
3F00
1FFE
0FFE
03FE
ENDCHAR
STARTCHAR 037D
ENCODING 893
SWIDTH 450 0
DWIDTH 18 0
BBX 15 21 2 0
BITMAP
FF80
FFE0
FFF0
01F8
007C
003C
003C
001E
3C1E
3C1E
3C1E
3C1E
001E
001E
003E
003C
007C
01F8
FFF0
FFE0
FF80
ENDCHAR
STARTCHAR 037E
ENCODING 894
SWIDTH 275 0
DWIDTH 11 0
BBX 4 27 3 -6
BITMAP
F0
F0
F0
F0
00
00
00
00
00
00
00
00
00
00
00
00
00
F0
F0
F0
F0
30
30
30
70
E0
C0
ENDCHAR
STARTCHAR 0384
ENCODING 900
SWIDTH 325 0
DWIDTH 13 0
BBX 7 6 5 23
BITMAP
1E
3C
38
70
60
C0
ENDCHAR
STARTCHAR 0385
ENCODING 901
SWIDTH 325 0
DWIDTH 13 0
BBX 14 6 0 25
BITMAP
01C0
01C0
0380
F3BC
F73C
F63C
ENDCHAR
STARTCHAR 0386
ENCODING 902
SWIDTH 675 0
DWIDTH 27 0
BBX 25 29 1 1
BITMAP
1E3E0000
3C7E0000
387F0000
707F0000
E0F70000
C0F78000
00E78000
01E38000
01E3C000
01C3C000
03C1E000
03C1E000
0781E000
0780F000
0700F000
0F00F000
0F007800
0FFFF800
1FFFF800
1FFFFC00
1C003C00
3C003C00
3C001E00
38001E00
78001E00
78000F00
F0000F00
F0000F80
F0000780
ENDCHAR
STARTCHAR 0387
ENCODING 903
SWIDTH 275 0
DWIDTH 11 0
BBX 4 4 3 17
BITMAP
F0
F0
F0
F0
ENDCHAR
STARTCHAR 0388
ENCODING 904
SWIDTH 775 0
DWIDTH 31 0
BBX 29 29 0 0
BITMAP
1E7FFFF8
3C7FFFF8
387FFFF8
70780000
60780000
C0780000
00780000
00780000
00780000
00780000
00780000
00780000
00780000
007FFFF0
007FFFF0
007FFFF0
00780000
00780000
00780000
00780000
00780000
00780000
00780000
00780000
00780000
00780000
007FFFF8
007FFFF8
007FFFF8
ENDCHAR
STARTCHAR 0389
ENCODING 905
SWIDTH 875 0
DWIDTH 35 0
BBX 31 29 1 0
BITMAP
1EF0001E
3CF0001E
38F0001E
70F0001E
60F0001E
C0F0001E
00F0001E
00F0001E
00F0001E
00F0001E
00F0001E
00F0001E
00F0001E
00FFFFFE
00FFFFFE
00FFFFFE
00F0001E
00F0001E
00F0001E
00F0001E
00F0001E
00F0001E
00F0001E
00F0001E
00F0001E
00F0001E
00F0001E
00F0001E
00F0001E
ENDCHAR
STARTCHAR 038A
ENCODING 906
SWIDTH 425 0
DWIDTH 17 0
BBX 13 29 0 0
BITMAP
1E78
3C78
3878
7078
6078
C078
0078
0078
0078
0078
0078
0078
0078
0078
0078
0078
0078
0078
0078
0078
0078
0078
0078
0078
0078
0078
0078
0078
0078
ENDCHAR
ENDFONT
